<?xml version="1.0" standalone="no"?>
<!DOCTYPE svg PUBLIC "-//W3C//DTD SVG 1.1//EN" "http://www.w3.org/Graphics/SVG/1.1/DTD/svg11.dtd" >
<svg>
<metadata>
Created by FontForge 20110222 at Sun Mar 18 19:55:08 2012
 By www-data
Copyright (c)  Imagex 2012
</metadata>
<defs>
<font id="MaybeMaybeNot" horiz-adv-x="892" >
  <font-face 
    font-family="Maybe Maybe Not"
    font-weight="400"
    font-stretch="normal"
    units-per-em="2048"
    panose-1="3 0 6 0 0 0 0 0 0 0"
    ascent="1638"
    descent="-410"
    x-height="1774"
    cap-height="1822"
    bbox="22 -1092 2280 2061"
    underline-thickness="150"
    underline-position="-142"
    unicode-range="U+0020-20AC"
  />
    <missing-glyph />
    <glyph glyph-name="space" unicode=" " horiz-adv-x="819" 
 />
    <glyph glyph-name="space" unicode="&#xa0;" horiz-adv-x="819" 
 />
    <glyph glyph-name="exclam" unicode="!" horiz-adv-x="868" 
d="M736 1836q0 -59 12 -59q-12 -23 -12 -35q0 -182 12 -576q-12 -223 -23 -235q11 -20 11 -47v-35q0 -59 -23 -59l12 -23l-12 -165h12q0 -12 -12 -12l12 -47q-12 -112 -24 -129q0 -12 12 -12q-24 -98 -24 -211h12l-12 -23v-59h-47q-141 0 -364 -35v105q0 51 -23 94h11
q-18 176 -35 176q0 12 12 12l-35 176h11q-38 283 -58 341h11q-31 145 -58 411q11 23 11 35l-11 83h11q-23 146 -70 258q33 28 247 59l23 -12h12q12 0 12 12l23 -12l24 12v-12l23 12h24q99 0 293 12zM149 1695q0 -21 23 -71h-11q20 -79 47 -399l-12 -47q9 -47 23 -47l-11 -24
q94 -446 129 -845q0 -27 47 -130q43 24 94 24l23 -12l71 24q0 -12 12 -12q32 85 70 317l-12 23v71q0 26 12 47q-12 23 -12 35q6 153 24 153q0 12 -12 12q12 138 12 199v247l12 23h-12q0 12 12 12l-24 176h12l-12 24v153q0 11 12 11l-12 24v82l-106 -12l-23 12l-24 -12
q-11 0 -11 12q-232 -26 -318 -47q-23 -4 -23 -23zM501 -185q188 -14 188 -106q52 0 94 -129q0 -167 -141 -223q-70 -15 -70 -35q-435 0 -435 164v35q0 88 106 212q123 59 258 82zM219 -479q0 -69 94 -117h94l59 -12v12q23 -12 35 -12q161 0 200 141q0 176 -282 176l-23 -11
l-24 11q-94 -36 -153 -188z" />
    <glyph glyph-name="quotedbl" unicode="&#x22;" horiz-adv-x="1302" 
d="M800 1903q122 -36 246 -36h83q93 -48 93 -199q0 -217 -234 -599l-59 -47q-129 79 -129 235l12 23l-12 24q12 23 12 35q-12 0 -12 12h12l-12 23v106l-12 82q12 0 12 12q-12 0 -12 12h12l-12 23v153l-12 58h12l-12 24v35q4 24 24 24zM436 1879q11 -59 23 -59l-12 -23v-12
q0 -11 12 -11q-12 -83 -23 -83l11 -23v-47l-11 -24q11 0 11 -11h-11q0 -12 11 -12q-23 -149 -23 -188l12 -141q-31 -200 -94 -200v12q-35 -12 -35 -23q-209 70 -247 786q120 0 376 59zM1046 1797l12 -23l-12 -59h24v82h-24zM964 1750q0 -59 -12 -59l12 -23v-24l-12 -23h12
q24 0 24 23l-12 24h12l-12 23l12 24h-12l12 23v12h-24z" />
    <glyph glyph-name="dollar" unicode="$" horiz-adv-x="1490" 
d="M927 1890h24v-58q0 -100 -24 -247q0 -31 82 -47l24 12l47 -12l23 12q23 -12 36 -12v12q270 -35 270 -176q0 -36 11 -83h-11l11 -23v-12q0 -12 -11 -12l11 -23q-11 -85 -23 -106h12q-24 0 -36 -458l-82 -11h-23q-12 0 -12 11l-24 -11h-117q-20 0 -59 141h12l-12 23
q0 12 12 12l-23 47q0 11 11 11q0 200 -129 200q0 12 -211 35q-120 0 -176 -199q0 -221 328 -329q257 -110 435 -282q94 -192 94 -399q0 -306 -223 -376v12q-60 -24 -82 -24l-24 12q-43 -23 -94 -23h-23q0 -141 -24 -141q47 -117 47 -200q0 -27 -59 -35v12l-281 -47v11
l-24 -11l-23 11l11 83v105q0 12 -11 12l11 23v130q-23 0 -23 11l-24 -11q-47 0 -152 23v-12q-270 41 -270 259l-12 105l12 24q-12 20 -12 47q12 0 12 12h-12l12 23q0 12 -12 12l12 23q0 12 -12 12l12 59v105h94q94 0 223 -11q23 11 35 11q59 0 59 -176q30 -152 129 -152
l23 11l71 -11q0 11 12 11q0 -11 11 -11v23l24 -12q129 20 129 130q0 121 -364 293q-78 59 -388 188q0 23 -82 94q-35 95 -35 176v188q0 26 12 47q-12 20 -12 47q0 234 164 411q109 94 259 94l11 23l24 -11h12q94 0 94 70q-12 100 -12 164v59q0 50 305 82zM716 1761v-82
q0 -12 12 -12q-12 -117 -24 -117l12 -24q0 -86 -35 -94h-12q-137 0 -188 -23l-24 12q-156 0 -270 -235q-35 -176 -35 -364v-71q0 -258 270 -317q166 -75 341 -188q107 -70 129 -70q117 -93 117 -118l24 -105q-66 -176 -176 -176q-94 -28 -94 -36l-24 12h-47q-11 0 -11 -12
q-200 33 -200 165q-30 141 -47 141q0 20 -176 47h-24l-23 -12q0 -24 12 -24l-12 -117v-82q0 -12 -12 -12l12 -23v-106q0 -102 117 -141h12q12 0 12 12q161 -35 258 -47l24 12q22 -12 35 -12v-165q0 -59 -24 -140q12 -23 12 -36q117 12 176 12h12q17 0 35 35v329
q399 50 399 141q24 61 36 258q-12 21 -12 47h12q-51 246 -165 317q-116 65 -540 270q-164 159 -164 270v47q87 235 164 235q0 12 71 35q11 0 11 -11q13 0 36 11q80 -11 129 -11v11l105 -23v12q177 -38 177 -176q0 -47 11 -47l-11 -24v-70l11 -59h-11l23 -106q12 0 12 12
l47 -12q70 0 70 83q24 196 24 328h11q0 12 -11 12l11 59v94q0 164 -129 164l-58 12v-12l-24 12h-235q-35 0 -35 152q6 141 23 141l-35 47q-111 -35 -117 -35z" />
    <glyph glyph-name="quotesingle" unicode="'" horiz-adv-x="856" 
d="M600 1950q0 -16 106 -47q70 -65 70 -118v-188l-141 -281q0 -38 -105 -106q-106 -106 -341 -211q0 23 -35 23v47q4 137 35 188q0 12 -12 12l12 82v94q0 11 -12 11l12 24q0 82 -82 141q-47 88 -47 106q12 0 12 11h-12q0 176 106 176q82 12 82 24q12 0 12 -12zM330 1856h-70
q-65 0 -106 -71v-35q0 -62 117 -164q10 -47 24 -47l-12 -24v-23q0 -27 12 -47l-12 -24l12 -70q-12 0 -12 -12h12q-12 -32 -35 -211h11q83 33 83 70q11 0 11 -12q27 0 153 130q27 67 82 129q94 159 94 223v59q0 11 -12 11l12 24v12q-51 93 -141 93l-23 -11q-21 11 -47 11v-11
q-12 0 -12 11z" />
    <glyph glyph-name="parenleft" unicode="(" horiz-adv-x="938" 
d="M624 1809q26 0 129 -153q41 0 105 -106q-19 0 -93 -117q-238 -338 -259 -528h12q-35 -69 -35 -165q0 -12 11 -12l-11 -58v-212q0 -11 11 -11q0 -12 -11 -12q0 -209 164 -658q174 -235 200 -235v-23q-44 -83 -200 -211q-56 -83 -70 -83q0 12 -12 12q0 -12 -12 -12
q0 26 -176 212q-207 345 -282 646q0 11 12 11l-47 294l12 23v24q0 12 -12 12l12 23q0 56 -12 118q47 298 106 551q50 224 246 447q184 223 212 223zM318 -11q0 -125 83 -235v35l-36 47q0 12 12 12q-27 82 -35 82l12 23q0 17 -36 36zM494 -35v-23l12 -71l24 12q-24 59 -24 82
h-12z" />
    <glyph glyph-name="parenright" unicode=")" horiz-adv-x="915" 
d="M354 1873q240 -251 317 -470q-12 0 -12 -12q38 0 141 -399q-12 -23 -12 -35h12l-12 -24q47 -99 47 -211v-59q-39 -624 -117 -716l-24 -59h12q-41 -161 -352 -763q-17 0 -47 -47h-12q-25 1 -235 247q0 57 117 199q133 173 235 623q47 272 47 352v188l12 23h-12l12 24
q-12 184 -12 270h-12l12 23q-117 439 -223 552q0 18 -94 83l-35 35zM236 1685v-23q124 0 305 -623v-82q0 -12 -11 -12q11 -70 23 -70l-12 -59v-82q0 -27 12 -47q-12 -21 -12 -47v-12q0 -12 12 -12l-12 -23v-200q-47 -333 -187 -728q-188 -290 -188 -328q98 -130 117 -130h12
q203 348 317 658q82 258 106 376h-12l12 23v24q0 138 35 411q-65 543 -247 845q-110 164 -199 247q-71 -56 -71 -106z" />
    <glyph glyph-name="asterisk" unicode="*" horiz-adv-x="1666" 
d="M1140 1280v-23l-70 -341h23q82 52 317 282h36q16 0 58 -141q16 0 82 -164v-24l-187 -141q-156 -104 -294 -258q24 -80 329 -364q70 -92 70 -117h-11q-20 0 -118 -118l-106 -94h-23q0 24 -223 223q0 36 -24 36l-23 -12l12 -82v-36q0 -11 -12 -11l12 -24q-12 -22 -12 -35
h12l-12 -23l12 -24q-12 -20 -12 -47h12q-30 -94 -118 -94h-35q-26 0 -47 12q-21 -12 -47 -12v12l-23 -12h-59q-24 0 -24 24q9 164 24 164q0 12 -12 12l12 58q0 12 -12 12q33 125 47 247h-12q-205 -115 -422 -317h-12l-188 199q16 44 294 247q176 165 176 200
q-16 74 -353 411q0 12 165 152q23 -53 47 -58h23v11l-58 71q93 96 93 129h12q220 -258 306 -341h11q24 125 24 247h-12l12 23q-12 21 -12 47h12l-24 59l24 12h94q39 0 58 -12q133 16 188 35zM1176 787q-71 -76 -71 -82h12l70 82h-11zM612 728q87 -117 106 -117q0 8 -83 117
h-23zM1152 141q12 -35 82 -105h12q-82 105 -94 105z" />
    <glyph glyph-name="plus" unicode="+" horiz-adv-x="1408" 
d="M894 1222q47 -18 47 -36v-117q0 -12 -12 -12q0 -12 12 -12l-24 -293q12 -23 12 -35q149 23 188 23v-12l176 36q23 -12 35 -12q-12 -305 -12 -411q-11 0 -11 -12q-65 12 -94 12q-270 0 -270 -35v-12l11 -106q-11 0 -11 -11h11q0 -12 -11 -12q11 -117 11 -176v-71l-11 -70
q11 -20 11 -59v-35h-11q-83 0 -435 -82v11q12 0 24 188h-12l12 24q0 137 23 375q-12 0 -12 12l-58 -12h-24q-12 0 -12 12q-46 -23 -140 -35l-59 12q-13 0 -188 -35q12 176 12 258l-12 82q12 59 23 59l-11 23v12q0 17 35 35q65 -12 94 -12v12l23 -12h59q12 0 12 12
q17 -12 129 -23q80 11 129 11v71q0 12 12 12l-12 23v82l-12 59h12l-12 24v211q176 15 353 59z" />
    <glyph glyph-name="comma" unicode="," 
d="M459 -11q121 0 247 -106q106 -85 106 -270v-164q0 -195 -200 -529h-211l-118 -12l-12 24v70q40 0 83 212q-268 0 -294 364v23h12l-12 24q0 113 164 281q170 83 235 83zM530 -140q0 -21 -36 -59q47 23 83 23q0 17 -36 36h-11zM577 -951v-11q9 0 70 93v24q-20 -3 -70 -106z
" />
    <glyph glyph-name="hyphen" unicode="-" horiz-adv-x="1373" 
d="M1140 728v-11l24 11h94q17 0 35 -47q0 -11 -12 -11l12 -82v-247q0 -12 -47 -47l-47 12q-160 -12 -200 -12q0 12 -11 12q0 -12 -12 -12v12l-24 -12h-23q-750 -82 -846 -82q0 23 -23 23l12 59q0 12 -12 12l12 23v141q0 12 -12 12l12 23v12l-12 118q17 0 35 35l82 -12h141
q43 0 106 -12l247 47q11 0 11 -12q265 20 270 36q12 0 12 -12q149 23 176 23zM765 611v12l-59 -24v12l-24 -12q-22 12 -35 12q0 -12 -12 -12v12q-55 -21 -129 -35v12l-23 -12h-12q-12 0 -12 12l-23 -12h-71l-70 12q-20 -12 -59 -12q-12 0 -12 12q-70 -16 -70 -36v-188
q0 -31 23 -70l24 12q12 0 12 -12l23 12q39 0 59 -12q660 94 740 94v-12l23 12q13 0 35 -12q88 24 106 24q12 138 12 199v24l-12 23l-59 -11h-11q-27 0 -47 11q-80 -20 -317 -35z" />
    <glyph glyph-name="period" unicode="." horiz-adv-x="950" 
d="M459 -70h24l82 -12v12q270 -106 270 -211q14 0 35 -106h-12l12 -24v-35q0 -179 -105 -258q0 -44 -224 -129q-132 -24 -176 -24q-70 0 -235 129q-53 70 -70 141h12l-12 24v47q0 176 153 340q111 106 246 106zM142 -481v-82q0 -138 235 -223q222 0 376 164q47 81 47 141v12
q0 252 -165 293q-21 0 -94 24v-12q-62 24 -129 24q-270 -128 -270 -341z" />
    <glyph glyph-name="slash" unicode="/" horiz-adv-x="1349" 
d="M858 1750h71q12 0 12 -12q11 0 11 12q256 -23 317 -23q0 -40 -105 -247q-59 -193 -165 -481q12 0 12 -12q-52 -45 -199 -623q-63 -207 -130 -328q0 -60 -188 -728h-11l11 -24v-35q-43 23 -422 47q-12 23 -12 35q188 404 188 446q106 194 176 470q117 341 176 564h-12
q47 204 247 869q0 70 23 70zM1023 1668l-24 -82v-12h12q24 63 24 70v24h-12zM917 1656l-23 -82q16 1 47 59v23h-24zM988 1562q-59 -106 -71 -199v-12h12q35 113 70 164q-11 23 -11 35q11 0 11 12h-11zM905 1339q0 -35 -23 -82h23l12 70v12h-12zM729 447q-23 -97 -23 -106
v-12h12q0 30 23 59v59h-12zM412 -328q-23 -75 -23 -83q35 12 35 71v12h-12z" />
    <glyph glyph-name="zero" unicode="0" horiz-adv-x="1503" 
d="M753 1868h12v-24h23q231 0 353 -82q0 12 11 12q149 -161 188 -388q24 -247 36 -247q0 -11 -12 -11q12 -118 23 -118l-11 -23q0 -12 11 -12q0 -12 -11 -12q11 -81 23 -106q0 -11 -12 -11q24 -89 24 -165v-70l-12 -71q12 -117 24 -117l-12 -24v-176l12 -23h-12l12 -24
q0 -597 -106 -705q0 -128 -317 -199v11q-27 -8 -153 -23v12l-23 -12h-153q-27 0 -47 -12q-217 0 -411 153l-59 129h12l-71 329h12l-12 23v153l-12 59h12l-12 23v12q0 42 12 106l-12 23l12 71v12l-12 23h12l-12 24q12 22 12 35q-12 0 -12 12h12q-12 22 -12 35q0 199 -23 199
q23 54 23 118h-11q0 12 11 12q-11 117 -11 176v35q23 172 23 188v71l12 23h-12q0 163 259 388q73 36 188 117q211 40 211 71zM730 1456l11 -117q-23 -4 -23 -24h12q3 24 23 24v-35h12v117q0 12 12 12l-12 23v212q-35 0 -35 -212zM941 1633v-12q0 -27 12 -47q-12 -23 -12 -35
l12 -83h11q0 49 12 130q-12 20 -12 47h-23zM518 1597q0 -28 -23 -199q0 -12 11 -12l-11 -59l11 -82q24 0 24 24h-12l12 23v70q0 77 12 235h-24zM1011 1503q0 -52 -11 -70l23 -12v82h-12zM835 1468v-106q0 -23 -23 -23q12 -117 23 -117q-11 -23 -11 -36l11 -58h12l12 82
q0 12 -12 12q15 109 24 140q-12 21 -12 47v59l12 24h-12q-24 -4 -24 -24zM600 1468q0 -52 -11 -153l11 -140l-11 -47q11 -43 11 -130q24 0 24 24v59l-12 23q12 0 12 12h-12l12 23q-12 178 -12 329h-12zM1129 1456v-117q0 -12 -12 -12q12 -12 12 -94q23 0 23 24v58
q0 27 -11 47q11 23 11 36l-11 58h-12zM436 1433l-35 -153l11 -23v-12q0 -12 -11 -12l11 -23q0 -12 -11 -12q0 -12 11 -12q-11 -138 -11 -199v-106q0 -12 -12 -12q0 -12 12 -12l-12 -47l12 -70h11l24 82v212q0 11 12 11l-12 24v59l12 58h-12l12 24v82q0 12 -12 12l12 23v106
h-12zM1000 1374l11 -23q-11 -23 -11 -36h23v83q-23 -4 -23 -24zM1188 1245v-94l23 12q-12 15 -12 82h-11zM718 1222v-165q23 0 23 24q0 11 -11 11q0 12 11 12q-11 62 -11 118h-12zM354 1175q0 -36 -12 -36q0 -11 12 -11l-12 -59v-47h12q0 17 23 106q-12 22 -12 35
q12 0 12 12h-23zM506 1081v-94h12v94h-12zM553 1081q0 -56 -11 -118q11 -20 11 -47h12q0 24 12 24q-12 61 -12 141h-12zM342 1010v-12q-12 -260 -12 -282v-35h12q0 59 12 59q0 12 -12 12q15 148 23 176q-11 23 -11 35q11 23 11 35zM600 987v-24q0 -12 12 -12l-12 -23v-35
q0 -12 12 -12l-12 -24v-70l12 -82h-12q0 -12 12 -12q0 -13 -12 -35q12 -64 12 -106q0 -12 -12 -12q12 -19 12 -59h12v118q0 12 12 12l-12 23v141q0 12 12 12l-12 23v177h-24zM166 740v-106h11q0 82 12 94zM330 646v-106h12q0 82 12 94zM154 540v-23q0 -12 12 -12l-12 -24
q12 -22 12 -35h-12l12 -23v-82l-12 -24h12q0 -12 -12 -12l12 -58q0 -12 -12 -12q12 -8 12 -106h11q12 117 12 176v141q0 27 -12 47q12 23 12 35l-23 12h-12zM330 528v-82h24l-12 82h-12zM612 470v-106h12q0 10 12 94zM412 388q12 -44 12 -106h12v117zM988 352v-82h12v82h-12
zM612 247q0 -83 -12 -83l12 -23l-12 -24q12 -45 12 -94h12l12 118h-12l12 23l-12 83h-12zM1329 188v-94h11q0 23 12 23q-12 18 -12 71h-11zM401 153q0 -83 -12 -94q12 -21 12 -47h-12l12 -24q0 -12 -12 -12l12 -23v-35q0 -12 -12 -12q14 -106 35 -106v165l12 70
q-12 20 -12 59q12 23 12 35zM976 35v-223h12q12 138 12 200v47q-24 -4 -24 -24zM600 12l12 -24v-23q0 -12 -12 -12q12 -18 12 -71h12q0 115 12 118l-24 12h-12zM730 0q0 -12 -12 -12q12 -23 12 -35q-12 -103 -12 -118q12 -22 12 -35h11q0 30 12 94h-12l12 24v11q0 12 -12 12
l12 24v11q0 24 -23 24zM1317 -35v-12q0 -12 12 -12l-12 -23v-71h12l11 82v36h-23zM506 -176q0 -235 -23 -235q23 -46 23 -129q24 0 24 23h-12q12 94 24 94l-12 59q0 105 23 176l-23 12l12 23v12q-17 0 -36 -35zM730 -270l-12 -59v-24q3 -23 23 -23q0 82 12 94zM1000 -364
l-12 -71v-47h12l11 106v12h-11z" />
    <glyph glyph-name="one" unicode="1" horiz-adv-x="1326" 
d="M1058 1844h12q7 -129 24 -129q80 -12 129 -12h12l11 -70l-11 -24l11 -23l-11 -47q0 -30 11 -94q-15 -386 -47 -458q0 -12 12 -12q-12 -138 -12 -200v-423q0 -11 -11 -11l35 -224q0 -11 -12 -11l12 -83v-94q0 -26 -12 -47q12 -20 12 -47q0 -12 -12 -35q12 -20 12 -47v-12
q0 -11 -12 -11q0 -12 12 -12l-12 -71q0 -168 -23 -293l11 -24q0 -129 -164 -129q-104 0 -176 -12l-118 12q-158 -12 -235 -12v106l-11 59h-130v12q0 218 59 446q0 12 -12 12q9 141 24 141l-12 23q0 12 12 12q0 12 -12 12l12 58v271l12 70q-12 19 -12 59q0 203 35 317
q-12 59 -23 59l11 23v47h-23q-35 -96 -35 -129q-115 21 -306 176v24q31 0 47 58q-82 21 -82 83v35q35 44 106 270h-12q47 112 82 329l47 23v-11q187 47 282 47h47q12 0 12 11q12 0 12 -11q218 23 422 23zM1058 1421q12 0 12 -12h-12l12 -23v-47q0 -12 -12 -12q0 -12 12 -12
l-12 -58v-165q0 -26 -11 -47q11 -20 11 -47l-11 -47h11l-11 -23v-212q0 -26 11 -47q-11 -20 -11 -47v-70l11 -59q-11 0 -11 -12q11 0 11 -11q-11 0 -11 -12h11l-11 -23v-165q0 -12 -12 -12q12 -11 23 -176l-11 -23l11 -24q-11 -62 -11 -70l11 -47l-11 -24q11 -59 23 -59
q-16 -105 -35 -105l12 -83v-293q-13 0 -36 -12q-22 12 -35 12v-12l-23 12h-223q-12 0 -12 12l-24 -12q-11 0 -11 12q-106 0 -106 -106h59l58 12v-12q12 0 12 12q185 -24 247 -24v12l23 -12h59q23 0 23 24l24 -12h12q17 0 35 35v200q0 12 -12 12l12 23q0 12 -12 12
q0 12 12 12l-12 58v118q0 11 -12 11l12 24v82l-12 24l24 11l-12 118q0 23 12 23l-12 59v141q0 12 -12 12l12 23l-12 24h12l-12 23v235q0 12 12 12q-12 94 -23 94q21 0 35 282l-12 23q15 130 35 130q0 11 -11 11l11 59v176l12 24h-12l12 23v188l12 82h-12q-94 0 -94 -70
q0 -113 -12 -153zM365 1633v-59q0 -24 -23 -24q12 -22 12 -35h11q0 50 24 118h-24zM800 1597v-23l12 -106h12v106q0 23 -24 23zM964 1456v-47q4 -23 24 -23v94q-24 -4 -24 -24zM624 1280v-129h12v129h-12zM436 1139q-73 -176 -153 -176q0 35 -59 35h-23v-35q20 0 70 -23
q0 11 12 11q0 -18 47 -47h12q23 0 23 36l24 -12q0 38 59 117q0 36 11 83zM964 1022q0 -53 -11 -71l23 -11v82h-12zM694 23v-58q4 -24 24 -24v12q-12 23 -12 35h12q-12 23 -12 35h-12zM506 -71v-82h12l12 47q-12 23 -12 35h-12zM694 -118q0 -95 -11 -152q11 0 11 -12
q-11 0 -11 -12h23q0 39 12 59q0 12 -12 12l12 58v24q0 23 -24 23z" />
    <glyph glyph-name="two" unicode="2" horiz-adv-x="1585" 
d="M917 1762q71 -19 71 -35q23 11 35 11q171 0 341 -270q98 -149 106 -329v-58h23l-12 -24q0 -537 -270 -799q-194 -197 -481 -352q-84 -82 -118 -82v-24h82l24 -12v12q23 -12 35 -12q53 0 399 24v12q12 0 12 -12q71 12 341 23v-47q0 -80 -24 -364l12 -164
q-176 -12 -258 -12h-12q-27 0 -47 12q-21 -12 -47 -12h-71q-26 0 -47 12q-117 -12 -117 -24q-12 0 -12 12l-82 -12h-164q-27 0 -47 -11q-21 11 -47 11h-24q-12 0 -12 -11l-23 11h-59q-12 0 -12 -11l-23 11h-35q-12 0 -12 -11q-15 8 -165 23v-12l-23 12l-71 -12v94
q0 214 -11 599l-12 24q23 53 47 59v-12q449 246 493 258q23 0 153 106q55 0 247 258q70 160 70 212q0 94 24 94q0 221 -200 364l-129 47q-142 0 -353 -153q-17 0 -152 153q-71 46 -71 82q68 166 294 235q80 59 434 106zM283 1445v-24l141 -152h47q91 152 317 152v-12l24 12
q173 -61 270 -188q41 -23 94 -293l-24 -71l12 -70q-115 -312 -235 -388q-166 -194 -387 -282q-14 -35 -259 -117q-153 -67 -153 -94q0 -134 12 -247q-12 -103 -12 -270q24 -63 24 -71h164l71 -11q12 0 12 11q12 0 35 -11q542 23 728 23l47 12q20 -12 59 -12h35q12 0 12 12
q12 0 12 -12l58 12q23 -12 36 -12v176q0 12 11 12q0 12 -11 12l11 58v130l-117 11q-12 0 -12 -11q-12 0 -12 11l-117 -11h-82l-24 -12v12q-235 -28 -235 -36l-23 12q-110 0 -200 12q-64 -12 -129 -12l-47 24q13 81 270 246q279 162 493 376q200 292 200 611v106l-12 23h12
q-37 252 -106 306q-124 305 -364 305h-35q-386 -70 -564 -188z" />
    <glyph glyph-name="three" unicode="3" horiz-adv-x="1608" 
d="M788 1809l59 -12v12q115 -47 129 -47v12q252 -59 353 -188q86 -130 129 -447q-37 -426 -176 -493q0 -18 -36 -47q139 -101 177 -247q94 -220 94 -364v-47q0 -12 11 -12q0 -306 -258 -540q-88 -78 -329 -117l-24 11q-54 -19 -211 -35v12q-25 -12 -129 -24l-118 24v-12
q-88 35 -129 35v-11q-9 0 -141 58v24q0 25 129 246l12 59h59q92 -23 376 -47q117 0 258 165q0 11 24 94v152q0 12 11 12q-37 183 -164 270q-150 59 -258 59q0 -12 -12 -12v71q0 136 -35 305q306 0 411 141q47 80 47 212q-41 193 -141 258q-111 70 -223 70h-24
q-269 -61 -364 -211q-12 0 -12 12l-23 -12q-70 40 -177 223q-14 0 -23 47q304 281 681 341h47zM671 1703l-24 12q-361 -103 -493 -247q43 -78 117 -141v-12h12q227 177 458 177q187 -36 259 -130q82 -91 141 -317q0 -229 -235 -340q-141 -24 -176 -47v11q-20 -11 -59 -11
v-141q0 -12 12 -12l-12 -24v-11q0 -18 246 -82q224 -137 224 -400v-117q0 -155 -270 -317h-24v11q-53 -23 -153 -23v12l-23 -12q-12 0 -12 12l-23 -12q-47 9 -47 23l-24 -11l-23 11v-11q0 11 -188 23q-83 -144 -83 -188q165 -82 541 -82q422 0 587 387q35 89 35 282v12
q-48 337 -164 482q-138 105 -165 105h-23q258 155 258 353l36 176h-12q0 12 12 12q0 219 -118 423q-177 188 -376 188q-11 0 -11 -12l-59 12h-82q-59 -3 -59 -24z" />
    <glyph glyph-name="four" unicode="4" horiz-adv-x="1925" 
d="M1352 1774h200v-12q0 -45 -59 -106v-12l82 -11h83q-101 -159 -247 -318q-106 -127 -106 -164q-28 -1 -188 -270q-74 -74 -129 -223q-8 0 -47 -59h70q40 0 59 12l59 -12q104 12 129 12q59 0 59 -24l59 24v-12q155 35 258 35q71 -49 71 -117v-59q11 0 11 12l24 -12h70v23
h24q0 -12 11 -35l-11 -47q0 -11 11 -11l-11 -59q0 -67 11 -82q-11 -62 -11 -71q11 -214 11 -270q-35 -12 -35 -24q-12 0 -12 12q-270 -14 -270 -35l-23 12h-59q-70 0 -70 -47q-12 -235 -12 -259q-12 0 -12 -11h12q-24 -49 -24 -71t24 -94l-35 -70l11 -24q-213 -12 -282 -12
q-41 -11 -47 -11l12 58v12q0 12 -12 12l12 23v59q0 8 -35 35l-59 -11h-47q0 35 -11 82q0 12 11 35q-11 80 -11 129v165q-13 0 -36 11q-275 -23 -493 -23q0 -12 -12 -12q0 141 -70 141l-24 -12h-153q-23 0 -23 24v435q0 43 200 270q82 94 352 540q101 153 259 329
q117 146 117 176l70 -12zM788 646l-23 12q-59 -71 -59 -83q24 0 24 -11q109 0 176 164q12 0 141 212l223 305q0 21 141 141q0 19 117 164v12h-11q-165 -7 -165 -94q-38 -14 -153 -223q-209 -245 -223 -317q-188 -226 -188 -270v-12zM1094 458h-165l-23 -12v12
q-8 -12 -106 -12v-11h59l164 11q21 -11 47 -11q0 11 12 11q0 -11 12 -11v11q11 0 11 -11q44 11 106 11v12q-59 0 -59 12zM1681 211v-176q-23 0 -23 -12l-24 12h-12v-23q-26 17 -152 35q-23 -12 -36 -12v12q-211 -28 -211 -59l12 -23l-12 -24q0 -12 12 -12q0 -12 -12 -35
l12 -141q-12 -23 -12 -35h12l-12 -24v-105q0 -12 12 -12l-12 -23v-12l12 -24q-47 -35 -141 -35v-12l-12 -117l23 -12h106l59 -12q35 43 35 83v129q0 163 35 364q165 44 353 59q0 11 12 11v-11q70 8 70 129h-12q24 43 24 94v141l-12 59q-82 0 -82 -106zM295 305q4 -23 23 -23
h94q12 0 12 12l24 -12h23v23h-176zM401 12v-118h23q170 24 176 24v-12q23 12 36 12q11 0 11 -12q94 23 224 23l11 83h-11q-109 0 -306 -12q-100 12 -164 12zM1129 -59v-129h12l11 117zM1129 -212l-12 -23v-35q0 -12 12 -12l-12 -24v-11h24q0 29 11 94zM1117 -329v-82l24 11
l-12 71h-12z" />
    <glyph glyph-name="five" unicode="5" horiz-adv-x="1761" 
d="M1528 1738q12 -224 12 -305h-12q-20 12 -47 12l-105 -12q-12 0 -12 12l-59 -12h-47q-152 0 -411 -47q-62 12 -70 12q-47 -9 -47 -24l-24 12h-117v-24l-24 12h-35q0 -47 -24 -47q0 -12 12 -12l-12 -82v-47h12q39 0 223 94v-11l165 35v-12q68 20 164 35l24 -12h47
q11 0 11 12l24 -12h12q35 0 35 12q318 0 388 -317q58 -278 70 -575l-12 -24q0 -12 12 -12l-12 -82v-153q0 -11 12 -11q0 -12 -12 -12l12 -59q0 -117 -12 -352h-11q11 -23 11 -36q0 -173 -282 -375q-234 -71 -317 -71q-527 12 -599 12v12l-23 -12h-12q-217 0 -282 106
q-94 47 -94 328q70 446 70 506h12q153 -12 247 -12h117l12 -47q-47 -138 -47 -282q0 -228 141 -259h12q12 0 12 12l58 -12q346 0 517 177l47 141l-12 23l12 24q0 11 -12 11q24 115 24 341v176q0 12 12 12l-12 23q0 12 12 12l-12 59q0 12 12 35q-49 306 -130 306
q0 26 -152 35q-21 -12 -47 -12q-21 12 -47 12q0 -12 -12 -12v12l-47 -24v12l-47 -23q0 11 -12 11q-258 -152 -258 -270h-423q0 12 12 12l-12 23v36l12 58h-12l12 24v141q0 12 11 12l-11 23v12l11 23h-11l11 24q0 12 -11 12q11 22 11 35q12 272 12 282h-12l12 23v24
q0 11 -12 11l12 24q-12 120 -12 188q37 0 141 23q497 12 740 12q36 0 153 24q13 0 35 -12q81 12 130 12h58q12 0 12 -12q25 9 129 23zM213 1633q0 -36 -12 -36q12 -22 12 -35q0 -12 -12 -12q23 -132 23 -176h-11q0 -12 11 -12q-15 -158 -23 -187q12 -12 23 -141
q-23 -77 -23 -106v-118q0 -58 70 -82q21 12 106 24h71q240 305 528 305q23 -12 35 -12t12 12q329 0 329 -446v-24l-12 -70q12 -20 12 -59l-12 -59h12l-12 -23v-24q0 -11 12 -11l-12 -24q0 -12 12 -12l-12 -58v-224l-11 -23h11l-11 -24v-11q0 -12 11 -12q0 -249 -246 -341
q-56 -32 -270 -94q-12 0 -12 12l-106 -12q-270 0 -270 141q-28 0 -59 176q12 144 35 235h-11l11 24v23q-51 0 -94 24l-70 -12h-47q-35 -118 -35 -129h11q-11 -82 -23 -82l12 -24v-94l-12 -23h12l-12 -24v-59q0 -178 59 -270q65 -94 258 -94h223q12 0 12 12l247 -35
q528 57 528 153q106 22 130 552q-12 138 -12 199l12 188q-12 83 -12 235h-12q12 23 12 35q-70 541 -235 541q0 12 -94 23v-11q-47 23 -82 23q0 -12 -12 -12q0 12 -12 12q0 -12 -12 -12v12l-23 -12h-176q-210 -13 -505 -176l-36 71q24 52 24 152q0 12 -12 12q0 12 12 12
l-12 58q0 12 12 12l-24 71q94 30 94 58h24l-12 -23l82 -24q0 12 12 12v-12l24 12q11 0 11 -12q12 0 12 12l82 -12h24l59 12v-12l23 12h24q11 0 11 -12q0 22 529 71v-12l82 24l-12 23l12 71v11h-117q-68 0 -83 12q-63 -12 -105 -12h-212q-12 0 -12 -11l-47 23q-11 0 -11 -12
l-153 24v-24h-188l-59 12v-12q-82 12 -82 24q-211 -28 -211 -35z" />
    <glyph glyph-name="six" unicode="6" horiz-adv-x="1585" 
d="M1023 1891q21 -12 47 -12q12 0 12 12q247 -26 247 -47q11 -35 23 -35l-12 -24v-82q0 -102 -35 -211l-23 -12q0 23 -24 23q-458 -99 -458 -164q-93 -30 -223 -282l-59 -317v-71q39 0 188 47q23 -11 35 -11q0 11 12 11v-11q35 11 35 23q12 0 12 -12q112 24 176 24v-12
l24 12q120 -8 305 -118l106 -152q47 -95 70 -282q0 -12 -11 -12l35 -329l-12 -23q12 -23 12 -36q-12 0 -12 -11h12q0 -12 -12 -12l12 -59v-47q0 -12 -12 -12l12 -23v-24l-12 -58q12 0 12 -12h-12l12 -23q-55 -259 -200 -259q-50 -41 -270 -94v12l-71 -24q-63 12 -105 12
h-106l-35 -23q0 35 -24 35h-23l-24 -12q0 24 -129 35v-11q-329 109 -329 188q-42 47 -59 47q0 11 12 11q-23 20 -82 400q0 74 12 305q11 0 11 12q-11 0 -11 12h11l-23 82q12 16 35 223h-12q12 22 36 282h-12l94 470h-12q86 274 165 340q190 259 387 259q19 19 200 70
q23 -11 35 -11zM1105 1703v-23h12q12 0 12 11l23 -11q12 0 12 11l24 -11h35v23q-12 0 -12 -12l-23 12h-83zM389 1057q-47 -236 -47 -258v-24h12q17 141 35 141l-12 24q0 15 35 117h-23zM201 834q0 -49 -12 -94h24v94h-12zM330 752q0 -36 -12 -83h24q0 31 35 83h-47zM177 716
v-47q0 -26 12 -47q-12 -32 -35 -223h12q-24 -38 -24 -58h12l-12 -24v-12h24q0 47 23 47l-12 24q9 82 24 82l-12 23v47l12 24q-12 0 -12 12q24 0 24 35l-12 23l12 24q-12 23 -12 35q12 23 12 35h-36zM389 693q0 -36 -12 -82v-12h12q0 35 23 35l-11 59h-12zM647 622v-94
q36 0 36 47q-18 47 -36 47zM1129 622q0 -11 -24 -141v-11h12l24 82v70h-12zM730 552v-117h11q0 35 12 35l-12 23v12q0 12 12 12q-12 22 -12 35h-11zM917 517l-11 -24v-23q23 -111 23 -165h12v71q0 23 -24 82q24 0 24 23v12q0 24 -24 24zM1282 493q0 -12 11 -12
q-11 -35 -23 -35q12 -23 12 -35h11l12 82h-23zM565 446v-82h12l12 82h-24zM800 364v-94h24l-12 82q12 0 12 12h-24zM1035 129v-117h23v70q0 12 -11 12l11 23v12h-23zM1352 129v-94q0 -12 12 -12l-12 -23v-35l12 -24h-12q12 -12 12 -94h12q0 47 11 47l-11 24v47q0 11 11 11
q-8 27 -23 153h-12zM917 59q0 -53 -11 -71l11 -70v-94l24 11l-12 47l12 71q-12 63 -12 106h-12zM354 47v-71l11 -82h12v153h-23zM1282 12l-12 -59h12l-12 -24v-82h12q3 71 23 71q-12 45 -12 94h-11zM1035 0v-129h23q0 26 -11 47q11 20 11 47q-11 22 -11 35h-12zM917 -188
q0 -24 -11 -24l11 -23v-118q24 0 24 24q-12 0 -12 12h12l-12 23q0 12 12 12l-12 23q12 23 12 36q-12 22 -12 35h-12zM506 -247q0 -23 -11 -23l11 -24q0 -12 -11 -12l11 -23v-35q0 -12 -11 -12q15 -70 35 -70v93q0 12 -12 12l12 24v11l-12 59h-12zM412 -353q-11 -61 -11 -70
l23 -12q0 24 12 24q-12 19 -12 58h-12zM600 -364v-106h12l12 82v24h-24zM1199 -364q0 -47 -11 -47l11 -24v-35q0 -12 -11 -12l11 -23v-24l-11 -58l23 -12l12 23v106q0 12 -12 12l12 23v24l-12 23q12 0 12 12z" />
    <glyph glyph-name="seven" unicode="7" horiz-adv-x="1714" 
d="M1399 1832l24 -11l70 11q129 -309 141 -376l-12 -23l12 -24l-258 -563q-124 -241 -459 -834q-102 -237 -187 -376q0 -34 -83 -270q12 -21 12 -47v-24h-23q-171 0 -529 -12v24q129 195 364 705q0 25 153 258q0 25 247 540q20 3 140 235q51 11 130 224l-24 11
q-215 -11 -387 -47v12l-24 -12h-94q-26 0 -47 -11q-23 11 -35 11l-59 -11v11q-12 0 -12 -11q-64 11 -94 11q-272 -11 -282 -11v11q-11 217 -11 270q-12 0 -12 12q12 0 12 12h-12l12 23q-12 120 -12 188l35 24q0 -12 12 -12q0 12 12 12v-12l23 12h482l82 12q0 -12 12 -12
q0 12 12 12q0 -12 11 -12q0 12 12 12v-12l24 12q182 0 234 35v-12l24 12h247q117 0 117 23zM741 1703q-11 0 -11 -12q-12 0 -12 12q-71 -8 -71 -23q-11 0 -11 11l-59 -11q-25 0 -129 11q-21 -11 -47 -11v11l-24 -11h-94q-26 0 -47 11q-94 -11 -94 -35v-35q0 -35 12 -35
l-12 -59v-141q0 -32 24 -71q-12 0 -12 -11q23 0 23 -12l24 12h59q11 0 11 -12l24 12h12l70 -12q23 12 35 12q23 -12 36 -12v12l23 -12l59 12v-12l23 12h83l58 11v-11q197 35 447 58v12q105 -17 105 -47q0 -103 -422 -752q-200 -349 -200 -387q0 -50 -106 -247q0 -12 -12 -35
q12 0 12 -12q-35 0 -106 -188q-30 -30 -82 -164l-94 -188l12 -24l59 12h70q188 0 188 47q92 305 106 305q47 60 47 71q-12 0 -12 12q22 0 59 94q17 0 47 129q100 138 282 505q199 325 340 646q83 138 106 223h12v71q0 75 -82 293h-118q-12 0 -12 -11l-23 11q-12 0 -12 -11
l-82 11h-47q-12 0 -12 -11q-12 0 -12 11q-291 -35 -411 -35z" />
    <glyph glyph-name="eight" unicode="8" horiz-adv-x="1444" 
d="M624 1844q48 -23 70 -23q0 11 12 11v-11l141 23q0 -23 12 -23q23 11 35 11q0 -11 12 -11q0 11 11 11v-11l24 11q305 -98 305 -235q42 -32 83 -235h-12l12 -23v-106q0 -436 -177 -505v-12q29 0 106 -58q82 -47 106 -435q0 -12 -12 -35q12 -21 12 -47q0 -12 -12 -12l12 -23
q-12 -84 -12 -94l12 -106l-12 -24l12 -70v-59l-12 -23h12q-51 -376 -141 -376q-102 -82 -235 -82q-26 0 -47 11q-153 -23 -329 -23v12l-23 -12h-12q-42 0 -106 12q-23 -12 -35 -12q-317 70 -317 317q0 82 -12 94l12 70v71q0 12 11 12q0 11 -11 11l11 59q0 35 -11 35l11 83
v105l-11 83h11l-11 23v35l11 24h-11q38 270 94 270q47 59 70 59v11q-211 26 -211 235q-12 0 -12 71v35q0 12 12 12l-12 23q0 12 12 12l-12 59q0 658 188 658q176 117 376 117zM542 1621q0 -87 -12 -129h12q23 0 23 23v12q0 12 -12 12l12 23v35q0 24 -23 24zM271 1586
q0 -24 -11 -24q0 -12 11 -12l-23 -94l23 -11q12 104 12 129v12h-12zM694 1586v-94q24 0 24 35l-12 59h-12zM1011 1527v-106h24v82q0 24 -24 24zM342 1515l-12 -82v-24q0 -11 12 -11q-12 -25 -24 -106q47 0 47 -59h-11q11 -20 11 -47h12v47l-12 24q0 12 12 12l-12 117v23
l12 83zM471 1433v-106h12v106h-12zM177 1421v-82h12q0 67 12 82h-24zM248 1409l-12 -140v-71l12 -59h12q0 40 11 59q0 12 -11 12l23 188l-23 11h-12zM1023 1362l-23 -47q11 -20 11 -46h24v58l-12 24q12 0 12 11h-12zM177 1327q0 -62 -11 -105h23v105h-12zM1011 1257
q0 -13 -11 -35l11 -71h12q0 98 12 106h-24zM518 1163v-12q0 -12 12 -12l-12 -23v-24h12l12 83v11q-24 -3 -24 -23zM683 963q0 -47 -12 -47l12 -23v-47l-12 -24q12 0 12 -12l-24 -11l12 -24v-35l-12 -71l12 -23q-24 -208 -24 -258h12l-12 -24q12 -23 12 -35h12q0 65 12 129
h-12q23 51 23 188q0 12 -11 12q9 47 23 47l-12 23v24l12 82h-12l12 23v47l-12 59h-11zM847 517v-247q0 -12 -12 -12q0 -11 12 -11q-12 -138 -12 -200v-59l24 12l-12 23v59q0 12 12 12q0 12 -12 12l12 58v224q0 11 12 11l-12 24q12 64 12 94h-24zM565 223q0 -62 -12 -106
l24 -11v117h-12zM553 82v-129h12q0 53 12 70h-12l12 24q-12 23 -12 35h-12zM530 -176h23v58l12 59q-26 0 -35 -117zM694 -59v-82h12v82h-12zM624 -94v-12q0 -12 12 -12q-9 -26 -24 -152l24 -12q0 74 11 176zM1047 -141q0 -98 -12 -106l23 -12h12q-12 3 -12 118h-11z
M1082 -141v-47q0 -12 12 -12q-12 -141 -36 -141v47h-23v-12q0 -52 -12 -258h24q58 180 58 423h-23zM859 -176v-130l12 -117h11q0 82 12 94q0 12 -12 12q0 12 12 35q-12 80 -12 129q-23 -3 -23 -23zM530 -329l12 -24v-35l-12 -58h23v117h-23zM683 -376v-82q0 -27 -12 -47
l12 -24q-10 -47 -24 -47q12 -15 12 -82h12q11 96 23 118q0 11 -12 11l12 59v94h-23zM777 -435v-141q3 -23 23 -23v164h-23z" />
    <glyph glyph-name="nine" unicode="9" horiz-adv-x="1432" 
d="M777 1844l23 -12h223q282 -66 282 -329q24 -390 24 -446v-106q23 -199 23 -223v-117q0 -27 -12 -47q12 -21 12 -47q0 -82 -23 -82l11 -141v-106q0 -27 12 -47q-12 -21 -12 -47q0 -39 12 -59q-25 -552 -106 -552q0 -67 -282 -176q-62 0 -199 -24v12q-12 -12 -153 -23
q-222 23 -329 23q-45 48 -141 82q-70 115 -70 282q0 99 58 400q-11 0 -11 11l58 12l71 -12q62 12 117 12h71v-94q0 -12 -12 -12l12 -23v-153q0 -12 -12 -12q0 -100 176 -141h24l12 24l23 -12l94 35v-11q176 0 176 199v47q0 12 -12 12l12 24q0 11 -12 11l12 24
q-24 388 -70 388q-12 0 -12 11q-22 0 -94 -23q-12 0 -12 12l-82 -12h-153l-82 12q0 -12 -12 -12q0 23 -23 23q-12 0 -12 -11q-199 70 -247 187q-43 169 -70 400q12 20 12 47v23q0 12 -12 12l12 24v82q0 297 199 528q120 130 400 130q0 11 106 23zM154 1210l12 -24
q-12 -35 -24 -35l12 -23v-12q0 -12 -12 -12l12 -23q0 -508 164 -588q82 -23 141 -23l24 11q4 -23 23 -23v12l24 -12h12q11 0 11 12l24 -12q106 0 329 35l-12 -23q70 0 70 -153q0 -12 -11 -35q11 -181 35 -259v-105q0 -12 12 -12l-12 -24v-82q0 -188 -211 -188
q-153 -47 -188 -47l-24 12h-35q-165 72 -165 106q-23 46 -23 129l12 47h-12q0 12 12 12l-12 58l12 24q-12 20 -12 47v35h-165v-12l-35 -223q0 -294 106 -399q94 -71 411 -71h71q11 0 11 12q12 0 12 -12q300 0 458 224l71 234q-12 528 -12 670q0 59 12 435l-12 23l12 71
q-12 186 -12 223h12l-12 23v24q0 12 12 12l-47 234h11q-82 209 -141 224q-45 38 -211 58v12q-462 0 -611 -211q-129 -227 -129 -376zM894 1527q35 -26 47 -212q-12 -61 -12 -70q12 -191 12 -341q0 -11 -12 -11q12 -118 24 -118q0 -94 -329 -94v-12l-24 12q-11 0 -11 -12
q-188 31 -188 130q0 12 -12 35q0 12 12 12q-24 94 -24 199v59q0 12 12 12l-12 23q24 353 282 353q66 23 235 35zM459 1198q0 -12 12 -12l-12 -82q0 -10 12 -94h-12q18 -258 106 -258l141 -12l24 12l23 -12q97 9 118 47l-12 23v106l12 24q-24 0 -24 23q24 0 24 24h-12
q12 25 23 105q-11 21 -11 47h11q-11 22 -23 118h12l-12 23v82q0 45 -35 106h-59q-12 0 -12 -12l-23 12q-259 -90 -259 -246q0 -24 -12 -24z" />
    <glyph glyph-name="colon" unicode=":" 
d="M436 1081h70q118 0 235 -165q0 -49 24 -117q-12 0 -12 -12h12q-29 -246 -94 -246q0 -79 -329 -130q-141 0 -282 259l12 23v35q0 12 -12 12q28 158 82 212q110 129 294 129zM483 83q141 -27 258 -141q71 -66 71 -141v-24q0 -251 -200 -328h-12q-12 0 -12 11
q-52 -23 -152 -23h-82q-196 0 -247 317v70q101 235 211 235q0 12 12 12v-12q18 12 153 24zM271 -199v-12h24q58 31 59 47v12q-83 -28 -83 -47zM377 -270h12l129 59v-12q48 24 70 24v12h-23v-12l-24 12q-164 -60 -164 -83z" />
    <glyph glyph-name="semicolon" unicode=";" horiz-adv-x="856" 
d="M506 822q92 0 223 -117q47 -157 47 -200l-11 -23q11 -23 11 -35l-23 -47h12q-12 -36 -24 -36l12 -23v-12q0 -72 -282 -164h-59q-329 85 -329 317q0 255 271 340h152zM166 505q11 0 11 -11q-11 0 -11 -12h11q-11 -23 -11 -35q78 -212 281 -212q247 28 247 235q12 0 12 35
q0 36 -24 94h12q-66 153 -247 153h-23q-247 -51 -247 -235q-11 0 -11 -12zM483 -70q258 -64 258 -153q12 -80 12 -129v-12q0 -197 -247 -587q-19 -57 -47 -82q-182 35 -199 35v-11q-94 7 -94 47l117 293v12q-153 0 -223 141l35 141h-12q0 258 318 305h82zM142 -504
q0 -66 200 -83v24l23 -12q0 12 12 12l35 -47v-47q-45 0 -141 -270h118l35 23q0 -11 12 -11q246 383 246 622q0 106 -211 141v-12l-24 12l-70 -12q-21 12 -47 12q-153 -58 -153 -176q-15 0 -35 -176z" />
    <glyph glyph-name="equal" unicode="=" horiz-adv-x="1267" 
d="M753 987q23 -12 35 -12q6 0 47 12l23 -12q23 12 36 12v-12l23 12h71l58 -12v12q31 -9 141 -24v-11q0 -47 -11 -47l11 -83v-176q0 -87 -58 -94q-43 24 -94 24h-83q-11 0 -11 12q-23 -12 -36 -12q-81 0 -458 -35h-23l-23 -12v12q-71 -24 -306 -24h-12v12q0 39 12 59
q-23 140 -23 352q-12 0 -12 12q20 0 70 23q129 -12 224 -12h140q12 0 12 -11l24 11q11 0 11 -11q51 23 188 23h12q12 0 12 12zM976 811l-12 -24h118v24l-24 -12zM236 646q4 -23 24 -23q11 0 11 12l24 -12l59 12v11h-118zM1129 130q0 -27 -12 -47l23 -188q-11 -21 -11 -47
q23 -82 23 -141v-12h-12q-35 0 -82 12q-247 -26 -293 -35q-12 0 -12 11q-461 -28 -587 -70q0 -12 -12 -12h-24l-58 12v423l35 47l59 -12h129q48 0 94 12l70 -12l482 47h105zM624 -11v-12q3 -24 23 -24h35q24 0 24 24q-67 0 -82 12zM354 -35v-12h211v12q-35 0 -35 12
q-33 -12 -176 -12z" />
    <glyph glyph-name="question" unicode="?" horiz-adv-x="1456" 
d="M530 1809q274 -10 540 -129q306 -224 306 -517q-23 -215 -130 -376q-47 -47 -129 -71q0 -52 -293 -82v-59q0 -26 -12 -47q0 -11 12 -11l-12 -82v-259q0 -32 -388 -59q0 -14 -47 -23v12q24 165 24 223h-12l12 23q0 12 -12 12q12 23 12 35q0 134 -12 529q12 23 12 35h35
q306 47 399 141q71 65 71 94q0 223 -353 223h-58q0 -12 -12 -12v12l-24 -12q-11 0 -11 12q-143 -38 -294 -106q-94 312 -94 353v12q273 129 470 129zM600 -259l24 -11l23 11q9 0 130 -47q0 12 11 12q0 -16 94 -129q0 -79 24 -188q-115 -176 -212 -176h-117q-27 0 -47 -12
q-247 62 -247 129q-12 0 -23 118q11 0 11 12h-11q0 98 188 246z" />
    <glyph glyph-name="A" unicode="A" horiz-adv-x="1527" 
d="M847 1833q0 -23 36 -23q223 -8 223 -24l23 12q12 0 12 -12q12 0 12 12q93 -23 223 -23h24l23 11v-117q0 -235 -23 -306q23 -38 23 -70v-47h-23q11 -118 23 -118q-12 -22 -12 -35q12 -23 12 -35h-12q9 -31 24 -141h-12q0 -12 12 -12q-8 -82 -24 -82q24 -59 24 -212v-94
q0 -11 -12 -11l12 -24v-94l-24 -35q28 0 36 -82q0 -11 -12 -94l12 -83l-12 -23l12 -24q-12 -22 -12 -35h12q0 -12 -12 -12l12 -141v-35l-12 -59h12l-12 -23v-59q0 -12 12 -12q0 -11 -12 -11l12 -59q-12 -131 -12 -235v-12q0 -35 -47 -35q-83 0 -317 -12l-24 35l12 24h-12
l12 23q-12 100 -12 165l12 23q-12 0 -12 12h12l-12 24v305q0 12 -12 12q0 12 12 12l-12 58v12l12 59q-12 0 -12 12h12q-23 138 -35 199q-43 21 -118 36q-163 -12 -270 -59q-106 0 -106 -176h-11q0 -12 11 -12q-58 -267 -82 -282q12 -23 12 -35q0 -188 -24 -188q0 -12 12 -12
q-23 -167 -23 -235q11 0 11 -12q0 -53 -293 -82q0 -12 -24 -12q-23 12 -35 12q0 82 -12 94q24 223 24 388h-12l12 23q11 217 11 317h12q0 12 -12 12q24 136 24 329v59q0 12 -12 12l12 23v71q0 11 -12 11l12 24v12l-12 141q12 0 12 11h-12l12 24v106l12 82h-12l12 23v94
q0 12 -12 12l12 24v58q0 68 -12 188q0 12 12 12l-12 59v117q0 12 12 12l-12 24l12 117q-12 23 -12 35q27 24 153 47l23 -11q64 23 353 35l23 -12l59 24v-12zM965 1716l23 -118q24 0 24 24v47q0 12 -12 12l12 23q0 24 -24 24zM236 1704q12 -57 12 -153h12q0 9 12 71h-12
l35 70v24zM1200 1716v-12q12 -63 12 -106v-47l-12 -23q12 0 12 -12h-12l12 -23q0 -24 -24 -24q12 -23 12 -35q-12 -23 -12 -35h12l-12 -24v-23q0 -12 12 -12l-12 -24v-11h24q0 49 11 129l-11 23q35 177 47 177q-12 22 -12 35v35zM894 1528l12 -24q0 -11 -12 -11l12 -24
q-7 -106 -23 -106l11 -23l-11 -47q11 -21 11 -47h12v23h12v-35q0 -12 -12 -12l12 -23v-35l-12 -24h12l-24 -106q0 -11 12 -11l-12 -59v-71h12l59 282q-12 21 -12 47l12 59q-24 60 -24 94h12l-23 47l11 24q-23 88 -23 94zM1129 1516l-11 -82v-35q0 -27 11 -47l-23 -47h23
l-11 -24h23v235h-12zM307 1493q0 -53 -12 -71h12l-12 -23v-12h12q23 0 23 23v47l-11 24q11 0 11 12h-23zM718 1446q0 -13 -12 -36h12l-12 -23v-71q36 12 36 71l-12 23q12 23 12 36h-24zM565 1399l-70 -564h23q21 0 36 105l-12 24q12 20 12 47h-12q12 16 35 247l-12 23
q24 100 24 118h-24zM189 1328q12 -64 12 -94q-12 -23 -12 -35h24q0 53 12 70q-16 59 -36 59zM695 1128h11q-35 -54 -35 -258v-24h12q17 130 35 130q0 11 -12 11q36 152 36 200l-12 59q12 20 12 47q-20 0 -47 -165zM1118 1246q11 -23 11 -35l-11 -24q11 -20 11 -47h-11
q11 -23 11 -35h12q0 23 12 23q-12 23 -12 36l12 23q-12 18 -12 71zM1306 1258l-12 -59v-153q0 -26 -12 -47q12 -20 12 -47v-164l-12 -24l24 -12q0 98 11 106l-11 24q11 20 11 47q0 11 -11 11l11 24v294h-11zM1235 1164q0 -27 -12 -47h12l-12 -24q4 -23 24 -23v94h-12z
M601 1128l-12 -105l12 -24q-24 -66 -24 -188q24 0 24 24q0 40 11 246v47h-11zM366 1117v-106l-12 -24h12l-12 -23q0 -12 12 -12q-15 -105 -24 -129h12l-12 -24v-35q0 -12 12 -12l-24 -129h12l-12 -23v-59l-11 -141h11l-11 -24v-82h11q0 29 24 59h-12l12 23v130q0 11 12 11
l-12 24v12l12 58h-12q20 33 35 153q0 12 -12 12l12 59v141q0 26 12 47l-12 23q12 23 12 35q-12 23 -12 36h-23zM1047 1081v-117l24 12l-12 23v59l12 23h-24zM988 658q0 -26 -11 -47l11 -70v-12l-11 -23l23 -12h12q0 12 12 35q-24 88 -24 106q12 0 12 12zM706 647l-11 -83
q11 0 11 -11h-11q11 -21 11 -47h24l12 82q-24 0 -24 59h-12zM189 412v-212q24 0 24 24h-12l12 23v24q0 11 -12 11l12 24v12l-12 23h12q-12 18 -12 71h-12zM1329 365v-24q0 -35 12 -35l-12 -59v-141h-23v-12h23l-12 -23l12 -24l-12 -23q0 -12 12 -12l-12 -59v-11
q0 -12 12 -12l-12 -24v-82l-11 -59h11q36 0 36 271v235q0 26 11 47q-11 17 -11 70q-24 -4 -24 -23zM189 188q-23 -171 -23 -199v-12h12q23 94 23 117v94h-12zM436 188l-12 -82q20 0 36 82h-24zM1129 83q0 -71 -11 -71l11 -23v-94h24v47q0 11 -12 11q0 12 12 12
q-12 41 -12 118h-12zM1223 0v-129h24q-12 104 -12 129h-12zM166 -47q-12 -117 -12 -176v-94l12 -23q-12 0 -12 -12l24 -12v188q0 12 11 12l-11 23l11 24l-11 23q11 21 11 47h-23zM354 -270l-12 -59v-23h12l12 70v12h-12zM330 -364v-94h12v94h-12z" />
    <glyph glyph-name="B" unicode="B" horiz-adv-x="1703" 
d="M730 1798h247q11 0 11 -12q12 0 12 12q313 0 447 -388q-12 -22 -12 -35q35 -47 47 -235q-30 -202 -94 -329q-130 -163 -247 -200v-23q187 0 388 -411q67 -199 94 -329q-16 -67 -35 -94h11l-11 -24q0 -12 11 -12q-55 -329 -164 -329q-149 -99 -635 -152v11
q-22 -11 -35 -11q-394 0 -576 -36q-117 0 -117 83q12 58 23 58l-11 47q0 83 11 259q0 29 -11 94q11 135 11 258v188l12 83h-12l12 23v212q0 203 -23 317h11l-11 23v153q0 12 -12 12q0 12 12 12l-12 58q0 176 -12 318q12 127 12 282l-12 82q25 12 106 23l47 -11
q100 11 164 11l24 -11q64 23 329 23zM530 1716v12q-84 -24 -270 -24v-12l-24 12h-82q0 -53 -12 -70h12l-12 -24v-23q0 -12 12 -12q-12 -29 -23 -118q11 0 11 -11h-11l11 -24v-129q0 -12 -11 -12l23 -70l-12 -59q24 -353 47 -529l-23 -247q12 -46 12 -82l-12 -141
q12 0 12 -12h-12l12 -23v-270l-12 -71l12 -23q-12 -21 -12 -47l12 -24l-12 -23l12 -24q0 -12 -12 -12l12 -117v-35l-12 -71q5 -117 94 -117h12l23 11v-11q94 11 94 23l24 -12h23l59 12v-12l23 12h118q26 0 47 12q23 -12 35 -12q23 12 35 12v-12l24 12h12q163 0 235 35
q11 0 11 -12q412 75 412 165q28 0 70 211l12 141q-37 303 -223 553q-161 129 -306 129q-149 -20 -176 -47q0 12 -12 12q0 -12 -12 -12l-58 70q64 36 411 130q247 192 247 458q0 231 -130 435q-57 82 -246 141q-12 0 -12 -12l-59 12h-282q-26 0 -47 11q-72 -23 -94 -23z" />
    <glyph glyph-name="C" unicode="C" horiz-adv-x="1527" 
d="M692 1880q114 -23 129 -23v12q12 0 12 -12q15 0 118 12q342 0 458 -271q47 -159 47 -517l12 -23q-24 -62 -36 -176h12q0 -19 -47 -47l-164 35q-43 -24 -94 -24q-17 0 -36 36q24 174 47 235q0 305 -129 364q0 37 -211 82q-292 0 -376 -423h11l-11 -23v-24l11 -23h-11
q0 -12 11 -12q-23 -94 -23 -200v-23q0 -36 12 -36l-12 -58v-165q0 -153 -12 -317q24 -140 24 -353v-47q0 -136 94 -188q113 -37 258 -47v12q12 0 12 -12q223 0 223 188q35 55 35 188q0 62 -11 200q18 21 258 35q0 15 47 24q47 0 82 -200h-11l11 -23v-24q0 -290 -117 -670
q0 -117 -893 -117q-341 41 -341 399v106q0 12 12 12l-12 23v36q0 11 12 11l-12 24q0 12 12 12q0 12 -12 35l12 141q0 15 -12 117h12l-12 24v352l12 59h-12l12 24v82l12 70q0 12 -12 12q15 214 35 341l-12 23q0 259 130 564q129 165 329 165q89 12 117 23zM1174 1704v-23
q14 0 70 -71v24q-47 47 -47 70h-23zM351 1692q-47 -61 -47 -82q74 59 94 59v23h-47zM727 1645v-11h130q-12 35 -71 35h-35q-24 -4 -24 -24zM1127 1563v-12l59 -70q-31 75 -59 82zM234 1457q-24 -122 -24 -129v-12h12q0 29 35 106q-11 23 -11 35h-12zM328 1140v-82h12
q0 9 11 70zM316 870q0 -49 -23 -200l11 -70l-11 -24l11 -23q0 -24 -11 -24q11 -51 11 -176h12q0 35 12 82l-12 24q12 20 12 47q0 11 -12 11l12 24v117q0 12 12 12q0 12 -12 12l12 59v47q0 26 -12 47q12 22 12 35h-24zM163 376q0 -35 -11 -35l11 -59v-58q0 -212 36 -212h11
l-11 24v164l-12 71l12 23q-12 82 -36 82zM1139 153q0 -26 -12 -47q12 -20 12 -47h23q0 24 12 24q-12 17 -12 70h-23zM1315 153v-12q12 -61 12 -117q23 0 23 23q0 18 -23 106h-12zM1244 118v-82l12 -83l-12 -23q0 -12 12 -12q-23 -256 -82 -329h12q82 113 82 259v70
q0 62 -12 200h-12zM1127 -47q0 -11 12 -11l-36 -165v-12h12q35 129 35 188h-23zM163 -246v-12q0 -12 12 -12l-12 -23v-24q0 -26 12 -47q-12 -23 -12 -35q12 0 12 -12l24 12h11v-35h12v11q-35 125 -35 177h-24zM1150 -493q-42 -82 -70 -82v-24h12q14 0 70 106h-12zM222 -575
v-12q0 -22 82 -71v24q-14 0 -70 59h-12zM563 -575v-12l82 -24h12q-12 23 -12 36h-82z" />
    <glyph glyph-name="D" unicode="D" horiz-adv-x="1562" 
d="M601 1786v-11l23 11h47q59 -2 59 -23l23 12h36q11 0 11 -12q12 0 12 12q250 0 494 -247l105 -212q-11 0 -11 -11h11l-11 -24q82 -238 82 -446q-12 0 -12 -12q12 0 12 -12h-12q12 -23 12 -35q0 -53 -12 -153l12 -59q-26 -510 -59 -587v-129l-23 -36q11 0 11 -11
q-11 0 -11 -12h11q-23 -94 -35 -94l12 -24v-23q-122 -282 -223 -282q-49 -71 -376 -71h-212q-12 0 -12 -11l-23 11q-21 -11 -47 -11v11q-25 -9 -129 -23l-83 12q-120 -12 -188 -12q-23 38 -23 59l23 11q0 12 -11 12l11 59v176q0 12 12 12l-12 23v118q0 117 -11 352h11
l-11 24q-12 217 -12 317h12q-12 23 -12 35q0 24 12 24l-24 235q24 74 35 153q0 11 -11 11l11 83v58q0 27 -11 47q11 21 11 47v24q0 12 -11 12l11 23l-11 165l11 23q-23 64 -23 329v12q0 47 141 47h153l23 12q0 -12 12 -12v12q12 0 12 -12zM471 1692v12l-23 -12h-35
q-12 0 -12 12l-24 -12h-94l-70 -11q-20 11 -59 11v-82q0 -12 -12 -12l12 -23q0 -29 -12 -94l12 -82l-12 -24l24 -106q0 -11 -12 -11l12 -59v-24l-12 -141h12l-12 -23v-82q0 -12 12 -12q0 -12 -12 -12q0 -12 12 -35q-24 -123 -24 -129q0 -12 12 -12q0 -24 -12 -24l24 -517
h-12l12 -23l-12 -106q0 -20 24 -70q0 -12 -12 -12l12 -82v-59q0 -12 -12 -12l12 -23v-24q0 -35 -12 -35l12 -59v-188q0 -12 11 -12q-9 -47 -23 -47q23 -94 47 -94q197 0 364 24q12 0 12 -12l59 12h141l23 12v-12l24 12h105q30 0 106 23v-12q247 101 247 318q75 62 106 998
v153q0 12 -12 12l12 23v36l-12 23h12q-24 68 -36 153h12q-122 435 -200 435q-197 152 -376 152h-70q-12 0 -12 12q-12 0 -12 -12q-80 12 -105 24q-25 -9 -130 -24zM448 1528q110 -15 141 -24v12l223 -59q259 -114 259 -575h-12q12 -59 23 -59l-11 -24q0 -49 23 -117
q0 -12 -12 -12l12 -59v-164q0 -12 12 -12l-12 -23v-118q0 -56 12 -117q-74 -564 -153 -564q0 -9 -59 -47l-70 11q0 -11 -12 -11q0 11 -12 11v-11q-11 0 -11 11l-59 -11q-13 0 -35 11q-110 -14 -141 -23q0 12 -12 12v-12q-141 0 -141 59q0 23 -12 23q0 12 12 12l-12 117v271
q0 11 -12 11l12 24q0 12 -12 12q16 158 24 188l-12 70q0 185 24 423h-12q0 12 12 12l-12 82v12q0 26 12 47l-12 23q0 24 12 24l-24 282h12l-12 23v59q0 42 -12 106q0 61 71 94zM448 1340q12 -21 12 -47h-12l12 -24v-23q0 -12 -12 -12l12 -23q-12 -23 -12 -36q12 -35 23 -35
l-11 -23l11 -71l-11 -23l11 -71v-12q0 -35 -11 -35l11 -59v-117q0 -152 -23 -212q12 -20 12 -47q0 -23 -12 -23l12 -82v-118q0 -26 -12 -47q0 -12 12 -12l-12 -82v-12q0 -26 12 -47q-12 -20 -12 -47v-11l12 -83h-12l12 -23v-176q7 -71 35 -71q132 0 341 12q22 -12 35 -12
q117 91 117 294q15 0 24 47h-12l24 59h-12q12 25 23 105l-11 24q11 20 11 47v12q0 11 -11 11l11 24v94l-11 59h11l-11 23v153q0 235 -24 235q0 12 12 12q-43 434 -129 470q0 61 -200 117l-24 -12q-38 24 -70 24h-106q-23 0 -35 -94z" />
    <glyph glyph-name="E" unicode="E" horiz-adv-x="1527" 
d="M1118 1751l23 -12h35l24 12q0 -12 12 -12v12l23 -12h71l58 12q0 -12 12 -12v12l24 -12q20 12 47 12l-12 -82v-282l-12 -59q12 0 12 -12q-6 0 -118 -35q-11 -12 -94 -12h-35q-12 0 -12 -11l-23 11h-12q-12 0 -12 -11l-23 11h-82q-49 0 -94 -11l-247 35q-200 0 -200 -94
q0 -76 -12 -118h12l-12 -23v-59q0 -12 12 -12l-12 -23v-71l12 -58h-12q0 -12 12 -12l-12 -59q12 -35 71 -35h12q35 0 35 12l59 -12h235l11 -71l-11 -70l11 -47q-11 -158 -11 -270q-12 0 -12 -12q12 0 12 -12h-12q12 -35 23 -35q-11 -47 -47 -47q-30 0 -317 -12
q-12 -129 -23 -129l11 -24v-94q0 -82 -11 -258l35 -24h317q235 0 317 -35v12q39 -27 165 -47v12q23 -12 35 -12q-32 -294 -47 -294q-12 0 -12 12l-58 -12h-470q-12 0 -12 -12l-24 12q-26 0 -47 -12q-11 0 -11 12l-59 -12h-24q-220 0 -470 -35q-38 24 -58 24q11 158 11 235
q0 11 -11 11l11 24q-23 392 -23 564h12q-12 23 -12 35l12 24q-12 20 -12 47q0 23 12 23l-12 59v106q0 62 -12 105q24 365 47 365l-12 58v12l12 71l-12 23l12 24q-12 20 -12 47q12 0 12 11h-12l12 24q0 12 -12 12l12 23v82q0 27 -12 47l12 24q0 12 -12 12l12 58v83
q0 93 12 246q-12 23 -12 36l59 11h235l59 -11v11l23 -11h35q49 0 130 11l23 -11l24 11q20 -11 47 -11q0 11 11 11v-11l24 11q12 0 12 -11l23 11h82q27 0 47 -11l24 11q12 0 12 -11q141 11 141 23z" />
    <glyph glyph-name="F" unicode="F" horiz-adv-x="1691" 
d="M178 1880l58 -11v11l106 -23q9 0 71 12q213 -12 282 -12v-12q22 12 35 12q162 0 352 -24l259 24q30 0 59 -82l-12 -24q4 -23 23 -23q36 0 94 35q106 -6 106 -71q0 -11 -12 -11l12 -59v-24l-12 -23h12l-47 -247h12l-12 -23v-12l12 -24q-98 0 -106 -11q-42 23 -106 23
q-65 -35 -129 -35v12l-23 -12q-23 12 -36 12v-12q-11 0 -11 12l-83 -12h-70l-71 12q-43 -24 -94 -24h-23q-12 0 -12 12l-23 -12q-12 0 -12 12q-23 -12 -35 -12q7 -94 23 -94l-12 -23v-12l12 -24q-23 -3 -23 -23v-71q3 -23 23 -23h47q26 0 47 12q12 0 12 -12l59 12h58
q24 -4 24 -24q0 -12 -12 -12q12 -89 24 -117l58 12h71q23 0 23 -36q0 -114 -35 -211q12 -21 12 -47l-12 -59h12q-18 -129 -47 -129l-106 12q-35 -12 -35 -24l-24 12h-105q-64 0 -71 -71l12 -58v-83l-12 -23h12l-12 -24v-35q0 -26 12 -47q-12 -20 -12 -47q0 -12 12 -12
l-12 -23l12 -59h-12l12 -23q-12 -23 -12 -36h12q0 -11 -12 -11q12 -177 12 -259v-117q0 -12 12 -12q-12 -71 -24 -71l12 -23q-12 -120 -12 -188q12 0 12 -12q-12 0 -12 -12q12 0 12 -11q0 -44 -458 -71q0 -23 -83 -23h-11q-24 0 -24 23v12l12 70q-12 59 -24 59q-9 0 -70 -12
q-59 15 -59 36q24 71 35 528q12 0 12 36q-12 19 -12 58q0 12 12 12l-12 59v188l12 59h-12l24 94l-12 70v12q0 12 12 12l-12 23v106q0 62 12 200h-12q12 58 24 58l-12 24v59l12 70q0 12 -12 12l12 59v552q0 42 -12 106q12 20 12 47q-12 22 -12 35h12l-12 23v24q0 26 12 47
q-12 21 -12 47q45 70 59 70zM1388 1634q0 -57 23 -188q-23 -39 -23 -59q-61 0 -106 35h-82q-49 0 -94 12l-47 -12q-175 12 -294 12h-59l-23 -12q0 12 -12 12q0 -12 -12 -12v12q-47 -9 -47 -24q0 -55 12 -117q-12 -103 -12 -176q0 -19 12 -141h47v58l12 83h-12q0 11 12 11
q0 22 -24 94q6 106 71 106q48 0 94 -12q158 12 270 12h118q11 0 11 12l24 -12q127 24 164 24l83 -12l11 47h-11q35 94 35 200v94q-24 0 -24 11q-117 -41 -117 -58zM272 1140v-35l11 -59q24 0 24 24v23q0 27 -12 47q24 68 24 153q-39 0 -47 -153zM377 1211l-11 -118v-82
q0 -27 -12 -47q12 -18 12 -71h23l12 83v35q0 12 -12 12q0 11 12 11l-12 59l12 59h-12l12 23v12q0 24 -24 24zM201 1187v-94h12q0 47 12 47q-12 21 -12 47h-12zM518 752v-11l47 -12v12l24 -12h23q27 0 47 12q23 -12 36 -12v23h-177zM988 717v-117q0 -19 -47 -47q-12 0 -35 11
q-164 -11 -164 -23l-24 12q-106 -10 -106 -36h12q-12 -129 -23 -129l11 -59v-117q0 -12 12 -12l-12 -23v-24q0 -12 12 -12l-12 -23v-317l-11 -59q11 0 11 -12q-11 0 -11 -12h11l-11 -23v-24q0 -11 11 -11l-11 -24v-35q0 -12 11 -12l-11 -23v-353q0 -17 -36 -35h-152
q-12 0 -12 -12l-24 12h-70q-24 -4 -24 -24v-11q0 -12 12 -12l-12 -24v-11h24v23h12q0 -23 11 -23q254 35 318 35h11q21 0 36 106q0 11 -12 11l12 59v82q0 12 11 12l-11 24v23q0 12 11 12q-11 23 -11 35t11 12l-11 59v164q0 42 -12 106q12 20 12 47q0 35 -12 82
q12 103 12 176v83q0 117 -36 152q0 19 59 59l24 -12l58 12v-12q23 12 36 12q11 0 11 -12l59 12h59q12 0 12 -12q82 0 82 71q12 52 35 258h-70q-17 0 -36 -35zM260 588q-8 -200 -24 -200l12 -23q0 -12 -12 -12l12 -24v-58q0 -27 -12 -47q12 -23 12 -36l-12 -58h24v58
q0 27 12 47q0 12 -12 12l12 59v23q0 12 -12 12l12 24v23q0 12 -12 12l12 23v36q0 11 -12 11q12 23 12 36v82h-12zM178 130l-12 -47q12 -65 12 -94h-12l12 -24v-12l-12 -23q12 0 12 -12q-12 0 -12 -12l23 -11q0 11 12 11l-12 83v141h-11zM248 47v-82h12v82h-12zM448 -58
l12 -59q0 -35 -24 -82q12 -20 12 -59q23 0 23 23h-11q23 61 23 94q-12 23 -12 36q12 22 12 35l-23 12h-12zM178 -141v-23q0 -56 11 -118l-23 -117h23l12 82h-12q9 47 24 47q-12 129 -35 129zM507 -176v-23q0 -12 11 -12l-11 -24v-152h11q0 62 12 105h-12l12 24v12
q0 26 -12 47q12 20 12 47q-23 -4 -23 -24zM448 -270q0 -29 -12 -94l12 -23l-12 -59q12 -23 12 -35q-12 0 -12 -12h24l11 47h-11l11 23v94q0 12 -11 12l11 24v23h-23zM507 -411l-12 -70l23 -12v82h-11zM424 -528q24 -107 24 -118h12q0 47 11 47l-11 24q0 11 11 11
q-11 20 -11 59h-12q-24 -4 -24 -23z" />
    <glyph glyph-name="G" unicode="G" horiz-adv-x="1552" 
d="M795 1842l329 -25l26 13q304 -62 304 -210q12 0 12 -12l-12 -25l37 -98l-12 -74q12 -108 12 -123l-12 -25q0 -13 12 -37l-12 -123q0 -13 12 -37q0 -295 -75 -295q-69 0 -355 -13q0 13 -13 13q26 252 26 295l-26 111h13q-13 26 -25 111l-26 -12q0 60 -139 86h-190
q-190 -28 -190 -185q0 -98 -25 -98l13 -62q-13 -324 -13 -443h-13l26 -49q0 -13 -13 -13l13 -61v-25q0 -12 -13 -12l13 -25v-12q0 -13 -13 -13l13 -24v-160q0 -34 -26 -74q0 -443 89 -443q22 0 76 -25q418 0 418 86q25 123 50 160l-12 62h12l-12 24l12 62q-12 0 -12 12
q-13 0 -13 -12q-96 12 -127 25l-253 -25l-25 37v369q0 25 101 37l51 -12l76 12q90 -12 101 -12q233 25 418 25h51q25 -4 25 -25q0 -41 -13 -62l25 -566q-37 -491 -37 -591l-76 -25q-87 13 -140 13q-85 0 -202 -25v12q-13 0 -13 -12l-63 12q-90 0 -190 -37l-64 13h-12
q-32 0 -114 -25q-274 0 -405 173q-76 169 -76 209h12l-12 24v210l-13 86h13l-13 25v246l13 74q-10 26 -26 135q0 12 13 12l-25 234q12 22 12 50q-12 24 -12 37h12l-12 24v123q0 28 -13 50q13 23 13 37l-13 24l25 86q0 13 -12 13l12 61v62q0 257 165 517q317 160 557 160z
M706 1756l-25 12q-19 0 -190 -37v12q-266 -93 -266 -233q-19 0 -88 -284q12 -84 12 -135l-25 -49q0 -13 13 -13l-13 -123q0 -87 13 -332h-13q25 -41 25 -74q0 -12 -12 -12l12 -25v-12q0 -13 -12 -13q25 -64 25 -258v-246q0 -45 13 -111q0 -13 -13 -13q0 -566 367 -566
q568 49 722 49h127q38 8 38 99l-13 86q0 12 13 12l-13 62v12q0 37 13 37l-13 74q0 101 13 197q-13 75 -13 185h13l-13 24v13q0 12 13 12l-13 25q-13 203 -13 307l-25 13l-76 -13q-13 0 -13 13q-211 -13 -468 -50h-51l-25 -12q12 -123 12 -185v-73q4 -25 26 -25h228
q12 0 12 -12l89 24q76 -29 76 -86q0 -24 -25 -86l12 -25q-42 -345 -253 -345q-82 0 -127 -12l-12 25q-25 -13 -38 -13q-272 0 -304 173q-9 30 -25 197q0 12 12 12q0 16 -12 123q-13 702 -13 850h13l-13 24v87q22 332 114 332q115 62 240 62l89 -13q25 13 38 13
q253 -54 253 -197q26 -88 26 -99v-61q0 -87 -13 -271l63 -13h89q101 0 101 74l26 234l-13 25q13 49 13 86l-13 49q0 13 13 13q0 455 -178 455q-31 0 -88 25q-14 0 -38 -13q-96 25 -178 25h-88q-29 0 -51 12z" />
    <glyph glyph-name="H" unicode="H" horiz-adv-x="1809" 
d="M1129 1845l59 -12h129q12 0 12 -11l24 11q11 0 11 -11q12 0 12 11q13 0 35 -11q81 11 130 11l11 -58v-94l12 -24q106 26 106 47q53 -23 59 -47q-36 -215 -36 -470h-11q0 -12 11 -12q0 -23 -11 -23l11 -118v-70l-11 -24h11l-11 -23q0 -36 11 -82q-11 -228 -23 -306
q12 0 12 -12q-12 0 -12 -11q12 0 12 -12h-12q0 -12 12 -12l-12 -59v-47q0 -47 12 -47l-12 -82v-282q0 -12 12 -12l-12 -23v-12q0 -12 12 -12q-12 -22 -12 -35q0 -25 12 -129l-36 -141q24 -99 24 -259v-23q0 -27 12 -47q-12 -21 -12 -47v-24q0 -11 12 -11l-12 -24v-12l12 -23
q-88 -71 -141 -71h-83q-11 0 -11 -11l-24 11q-152 -35 -200 -35l-11 24q11 117 11 176h-11l-59 -12q-21 12 -47 12q12 252 12 376v12l11 23h-11q11 23 11 35l-11 59l11 59q0 12 -11 12l23 223h-106q-11 0 -11 12q-55 -21 -353 -36v-129q0 -12 12 -12l-12 -23v-47
q0 -147 -12 -270q12 -78 12 -153q-12 -21 -12 -47q12 0 12 -12h-12l12 -23v-94l12 -59q-35 0 -35 -24l-118 12h-47q-12 0 -12 12l-23 -12h-165q-23 -4 -23 -23q-63 0 -82 141q-94 0 -94 47q0 61 11 458h-11l11 23q-11 65 -11 94q0 12 11 12l-11 47q0 96 11 423q0 32 -23 270
h12l-12 24v12q0 26 12 47l-12 23q0 27 12 47q-12 81 -12 129v130q0 11 -12 11l12 24v94q0 12 -12 12q12 22 12 35q0 68 23 282q-23 223 -23 282q12 35 23 35q99 0 376 -12q23 12 36 12q11 -141 35 -141q7 0 153 12l11 -24q-9 -117 -23 -117q0 -12 12 -12l-12 -59
q0 -11 12 -11l-12 -59v-212q0 -11 12 -11l-12 -24q0 -35 12 -35q-21 -235 -36 -235l12 -24v-117q0 -76 -12 -235l24 -12h70l24 12v-12l23 12h94q12 0 12 -12l24 12h82q26 0 47 -12q17 12 70 12v12q0 67 -11 82l11 82q0 154 -23 259q0 11 12 11l-12 59v212q0 11 12 11l-12 24
l12 23h-12l12 24v47q0 12 -12 12q12 105 23 105q-28 94 -35 94l12 24v153l-12 23h12l-12 24v58q35 0 35 12zM295 1739q-12 -141 -12 -211l12 -59h-12l12 -23v-177q0 -11 -12 -11l12 -24v-23q0 -12 -12 -12l12 -24v-58h24q3 82 23 82l-12 23v200q0 12 12 12l-12 23
q0 12 12 12l-12 24v47l-11 141h11q-11 19 -11 58h-24zM1270 1634v-141h12v141h-12zM507 1481l11 -59v-352q0 -12 -11 -12l11 -24v-47q0 -11 -11 -11l11 -24q-11 -170 -11 -188q11 -104 11 -129h-11l11 -24q-23 -88 -23 -105l23 -12h47q24 0 24 23q0 12 -12 12l12 82v153
l12 24h-12l12 23v59q0 12 -12 12q12 30 35 246q-12 103 -12 177v23q0 59 12 176h-12l12 24v70q-106 0 -106 -70q0 -47 -11 -47zM1541 1516h11l-11 -23v-306q0 -12 11 -12q-11 -82 -23 -82l12 -23v-177l-12 -23h12q0 -12 -12 -12l12 -59v-11q0 -12 -12 -12l12 -24v-282
q0 -11 -12 -11q0 -12 12 -12l-24 -376h12l-12 -24v-329q0 -11 -12 -11l12 -24v-23q0 -27 -12 -47l12 -24l-12 -23l12 -59h-12l12 -24q-12 -20 -12 -47h12q0 -11 -12 -11q24 -106 24 -153q-28 -19 -94 -35q-23 11 -35 11q-106 0 -106 -82h12l-12 -23v-12l12 -24l94 24
q0 -12 11 -12v12l24 -12q35 12 35 24l24 -12q94 26 94 94q0 9 11 70q-11 165 -23 165q12 23 12 35l-12 59h12q0 12 -12 12q23 117 23 235v11q0 27 -11 47q11 21 11 47q0 40 -11 200h11l-11 24v11q0 105 11 235l-11 47q23 94 23 200h-12l12 24l-12 47q8 94 24 94l-24 117
q12 82 24 82l-12 24v12q0 11 12 11l-12 24v35q0 66 24 376q-12 23 -12 35q12 0 12 12h-12l12 24v58h-12q-82 0 -82 -82zM1212 1504q0 -82 -24 -82l12 -23v-130q0 -11 -12 -11l12 -24v-70l-12 -59h24q0 12 -12 12q9 24 23 129v35h12v165l-12 58h-11zM189 1152l-11 -106
q23 -4 23 -23v-36l-12 -58l36 23l-12 82v83l12 23q-13 0 -36 12zM1435 1105v-106q0 -12 12 -12l-12 -23v-71q12 0 35 -11q-12 105 -23 105l11 24v117q-23 -3 -23 -23zM1188 1081q12 -17 12 -70h12v82zM377 1070q-23 -89 -23 -165v-70q0 -12 -12 -12q12 -20 12 -59l47 35
l-12 118v153h-12zM1259 776q0 -13 -12 -35q12 -23 12 -36q0 -23 -12 -23q12 -44 12 -259h11q0 74 12 177l-12 70q12 0 12 12q-12 0 -12 12h12q-12 15 -12 82h-11zM342 670v-70q0 -27 12 -47q-12 -21 -12 -47v-59h24v12l11 141q-11 64 -11 94q-24 -4 -24 -24zM225 670v-70
q0 -12 11 -12l-11 -24v-23q0 -39 11 -59l-11 -70v-12q2 -141 23 -141l-12 -24q12 -20 12 -47q-12 0 -12 -11l24 -12q0 114 12 117q-12 47 -12 83l12 82q-12 20 -12 47q12 23 12 35q-12 0 -12 12h12l-12 23v36q-24 0 -24 70h-11zM1447 576v-82h11v82h-11zM742 282v12
q-23 -12 -36 -12v-11h83l58 11v-11q61 23 94 23v12h-35q-150 -12 -164 -24zM507 -70l-12 -59h12q0 -12 -12 -12l23 -188l-23 -199q12 -23 12 -36h-12q23 -58 35 -58l-35 -71q12 -21 12 -47v-12q-21 0 -59 -23q0 12 -12 12v-12l-23 12h-118q-23 -4 -23 -24q0 -27 164 -35
q21 12 47 12q23 -12 35 -12v12q23 -12 36 -12q47 12 47 59q-12 61 -12 70q8 82 23 82q-9 27 -23 153h12q0 12 -12 12l12 82q0 39 -12 59l12 70v47q0 62 -12 200q27 59 153 59q35 0 82 12l70 -12q106 23 153 23h59q17 0 35 36v47q0 23 -23 23h-153q-388 -28 -458 -82v-188z
M366 12v-82h23l-12 82h-11zM283 -82v-35l-35 23v-35l24 12q3 -24 23 -24l-12 -23v-24h12q24 0 24 24l-24 47q12 23 12 35h-24zM189 -152l12 -59v-82l-23 11v-35h23q-23 -38 -23 -70v-71q23 0 23 24h-12l36 141l-12 70l12 24q-12 20 -12 47h-24zM1341 -176q-9 -21 -24 -164
q12 0 12 -12q-12 0 -12 -12h12l-12 -23v-83q24 0 24 24v47q0 12 -12 12q24 94 35 94l-11 23v59l11 23zM413 -270v-70q0 -12 -12 -12q12 -18 12 -71h11q0 115 12 118h-12l12 23v12h-23zM330 -364v-12q0 -12 12 -35l-23 -141q11 -62 11 -117v-12h24q8 70 23 70q-23 39 -23 71
v141l12 23l-24 12h-12zM1400 -423v-129h11q12 84 12 94q-12 23 -12 35h-11zM213 -446q0 -53 -12 -71q0 -11 12 -11l-12 -59q7 -94 35 -94l12 23l-12 24q12 20 12 47h-23q3 23 23 23q-23 38 -23 118h-12zM1317 -528l12 -59h12q0 23 12 23q-12 20 -12 59q-24 -4 -24 -23z" />
    <glyph glyph-name="I" unicode="I" horiz-adv-x="622" 
d="M201 1822q38 -24 59 -24v12l23 -12h24l59 12v-12l23 12q12 0 12 -12q6 12 106 12l35 -59q0 -12 -12 -12l12 -58v-83l-12 -23h12l-12 -24v-70q0 -12 12 -12l-12 -23v-130q0 -26 -12 -47q12 -20 12 -47l-23 -70q11 0 11 -12h-11q0 -12 11 -12q0 -23 -11 -23l11 -141v-12
q0 -137 -23 -188h12q-12 -82 -24 -82l12 -24v-94q0 -45 -24 -293q12 -23 12 -36h-12l12 -23v-82q0 -27 -12 -47l36 -141l-12 -24q12 -23 12 -35q-12 0 -12 -12h12q0 -12 -12 -12l12 -117v-47l11 -24h-11q35 -153 35 -211v-35q0 -212 -71 -212h-23v12q-47 -9 -47 -24
q-23 12 -35 12q-23 -12 -36 -12q0 12 -11 12v-12q-61 24 -94 24q-94 -8 -94 -24q-17 1 -59 47l12 24v35q0 12 -12 12l12 23v447q0 12 -12 12l12 23v223q0 12 -12 12l12 24v117l11 24h-11l11 23v59q-35 372 -35 458v24q0 11 12 11l-12 24v258l12 71q0 12 -12 12l12 47
q0 10 -12 94l12 23l-12 24q9 129 24 129l-12 23v165q0 26 -12 47q0 82 82 82q0 12 59 24zM142 1716v-106q0 -153 -11 -317q11 -62 11 -71q-11 -112 -11 -223v-106l11 -70l-11 -24q0 -11 11 -11q0 -13 -11 -36q23 -218 23 -282q-12 -237 -12 -329q0 -82 24 -82l-12 -23v-118
q0 -26 12 -47q-12 -20 -12 -47v-12q0 -11 12 -11l-12 -24v-70q0 -27 12 -47q0 -12 -12 -12l24 -153q0 -12 -12 -35l23 -153h12q118 -2 118 -23l23 11q12 0 12 -11q117 5 117 58l-58 447q0 12 11 12l-11 82v317q0 655 35 705l-12 47q12 505 12 635h12l-12 23v12q0 12 12 12
l-12 23v71h-24q-26 0 -47 -12q-22 12 -35 12v-12l-23 12h-47q-12 0 -12 -12l-24 12h-35z" />
    <glyph glyph-name="J" unicode="J" horiz-adv-x="1386" 
d="M1212 1845v-12l23 12h35q17 0 36 -35v-24q-47 -561 -47 -787q11 0 11 -12h-11q9 -24 23 -129q-12 -23 -12 -35h12l-12 -24v-82q3 -117 24 -117l-12 -141v-177q0 -11 12 -11l-12 -24v-12l12 -23q-12 0 -12 -12h12l-12 -23q12 -148 12 -177q-12 0 -12 -11h12q0 -12 -12 -12
l12 -82v-188q0 -12 -12 -12l12 -24q-33 -299 -94 -305q-75 -129 -188 -129q-35 -20 -200 -47l-23 11h-188q-413 0 -506 200q-35 84 -35 294v59q0 11 12 11l-12 24v47l12 70l-12 24l12 70h-12l12 24v188q0 258 70 317l24 -12q148 12 188 36l23 -12h36q3 -24 23 -24l-12 -82
v-106q0 -210 -35 -434v-24q0 -26 12 -47q0 -12 -12 -12q46 -258 259 -258h58q71 0 130 411h-12q23 66 23 188h-11l11 24q0 11 -11 11q11 59 23 59q0 13 -12 35q0 36 24 306l-12 47q12 45 12 94h-12l12 23q-12 164 -12 212q12 23 12 35q-12 0 -12 12h12l-12 23v24q0 39 12 59
l-12 47q0 39 12 199q0 18 -12 165l12 82q-24 112 -24 141q12 0 12 12q-12 0 -12 12q12 0 12 11h-12q12 47 71 47h94q12 0 12 -11q22 11 35 11q62 -11 70 -11q47 23 83 23zM1024 1634q-12 -62 -12 -71q12 0 12 -12q-12 0 -12 -11h12l-12 -24v-117h23v23q0 12 -11 12l11 23
v177h-11zM1082 1293l-11 -59v-211h11l12 141v129h-12zM941 1246v-94h12v94h-12zM1153 1187l-12 -23v-59h24v12l-12 58q12 0 12 12h-12zM1153 1034v-164h12v164h-12zM1071 929v-177q-12 0 -12 -11l23 -12v200h-11zM236 447l12 -24q-35 -77 -35 -105h12q-12 -59 -24 -59
q12 -23 12 -35l-12 -71l12 -47l-12 -164q0 -8 12 -153h12q0 129 11 129q0 12 -11 12q11 353 35 529zM1035 -35q-47 -170 -47 -176v-12h12q0 20 24 71h-12l35 58v59h-12zM1094 -270v-35q-35 -129 -59 -129q12 -21 12 -47q35 0 71 211h-24zM977 -364q0 -20 -24 -70v-12h12
q0 11 35 82h-23zM413 -446q0 -22 58 -71q23 12 36 12v12q-31 0 -94 47zM1153 -564q0 -20 -59 -105h12q59 30 59 94v11h-12z" />
    <glyph glyph-name="K" unicode="K" horiz-adv-x="1491" 
d="M518 1798q31 -3 59 -59l-35 -70h12l-24 -47h12q-12 -59 -24 -59l24 -106q-12 0 -12 -11h12q-24 -60 -24 -83q0 -11 12 -11l-12 -83v-58l12 -24h-12l12 -23l-12 -71h12q-23 -38 -23 -70v-12q0 -12 11 -12l-11 -23v-24h23q0 42 176 294q122 223 153 317l129 212q12 0 12 11
l24 -11q165 11 282 11q61 -11 70 -11q0 -31 -352 -670q-24 -12 -200 -376q-27 0 -118 -153v-12q188 -250 188 -270q189 -248 459 -858l58 -82l-11 -23q11 -23 11 -36q-47 -9 -47 -23l-23 12h-12q-12 0 -12 -12q-11 0 -11 12l-59 -12h-12q-55 0 -200 35q0 -23 -117 -47
q-259 578 -411 858h-12q-8 -82 -24 -82l12 -83v-305q0 -42 -12 -106q12 -15 12 -82v-47q0 -24 -23 -24q9 -20 23 -141q-341 -20 -341 -35q-70 15 -70 35v59q0 39 12 59l-12 70v59q0 35 12 35l-12 59v106q0 39 -12 59q15 37 24 329h11l-11 23l11 47l-11 71q0 11 11 11l-11 59
v82q0 12 -12 12q12 29 23 118q-11 158 -11 270v129q0 12 11 12l-11 23q0 62 11 106l-11 82q0 81 23 259q-12 113 -12 223v82q0 42 306 71q117 19 117 35zM483 752h-47q-23 0 -23 24q35 258 35 435v117q0 42 12 106q-12 18 -12 70q0 64 23 200h-35q-26 0 -47 -12
q-23 12 -35 12q-137 -35 -176 -35v-247q0 -12 11 -12l-23 -117h12l-12 -24v-293l-12 -71q12 -20 12 -47q0 -12 -12 -12l12 -82v-188q0 -26 -12 -47q12 -20 12 -47q0 -23 -12 -23l12 -83v-199l-12 -24h12q0 -12 -12 -12l12 -47q0 -89 -24 -235h12l-12 -23v-35l12 -59h-12
l12 -24v-199q0 -27 -12 -47q12 -23 12 -36l-12 -23l24 -59h-12q12 -21 12 -47h70q12 0 12 -12l24 12h11l24 -12v12l23 -12h71v235l12 24h-12l12 23q0 12 -12 12l12 24v141q0 11 11 11q0 12 -11 12l11 82q0 80 -11 141q11 61 11 141l-11 71q23 72 23 94h59q0 -14 35 -59h-12
q282 -517 435 -881l82 12h59l24 -12v12q52 -24 152 -24h12v12q0 98 -153 376q0 44 -223 423q-155 249 -294 376v23q245 351 658 1152v12h-11q-271 -12 -271 -94q-68 -99 -235 -447l-141 -211q-15 -87 -129 -224z" />
    <glyph glyph-name="L" unicode="L" horiz-adv-x="1209" 
d="M495 1763q23 -54 23 -106l-11 -23l11 -24q-23 0 -47 -376h12q-12 -117 -23 -117l11 -24v-12l-11 -23h11l-11 -24v-82q0 -12 11 -12l-11 -23q0 -12 11 -12l-11 -59v-94l-12 -23h12l-24 -71q12 -22 12 -35l-12 -23l12 -24l-12 -70q0 -12 12 -12q0 -15 -35 -306q11 0 11 -11
h-11l11 -24q-11 -120 -11 -188v-23q0 -12 11 -12q-11 -23 -11 -35l11 -71q-11 -45 -11 -94q0 -12 47 -35l246 47l24 -12q23 12 35 12v-12q29 12 118 24v-12q129 12 129 23l23 -11h12q12 0 12 11q17 -11 70 -11l-47 -282v-118l-11 -59l-83 12h-58l-71 -12q-38 24 -59 24
q0 -12 -11 -12v12l-24 -12l-35 24v-24h-82q-12 0 -12 12l-24 -12q-256 24 -387 24l-59 -12v12l-24 -12h-11q-61 0 -71 35v82l12 24q-12 0 -12 12h12q0 11 -12 11q12 118 12 177v129l12 117h-12l12 24v59q0 39 -12 58l12 71v82l11 24h-11q0 11 11 11q0 13 -11 36
q11 128 11 223v35q0 12 12 12l-12 23v212q0 12 12 12l-12 23v165q0 26 12 47q0 11 -12 11l12 47q0 45 -23 459q11 0 11 11q-11 0 -11 12h11q-9 27 -23 153q368 59 423 59v-12zM225 130q0 -83 -12 -94h12l11 23v71h-11zM201 12v-23q0 -12 12 -12l-12 -24v-129q0 -12 -12 -12
q12 -22 12 -35h24v47q0 12 -12 12q12 82 23 82l-11 24l11 58l-23 12h-12zM260 -282v-105q23 0 23 23v82h-23zM565 -352v-12h153q0 24 -35 24q-15 0 -118 -12zM142 -434v-59q4 -24 24 -24q0 13 12 36q-18 47 -36 47zM354 -434v-12q117 -12 176 -12q12 0 12 12l23 -12h12v24
h-223z" />
    <glyph glyph-name="M" unicode="M" horiz-adv-x="2208" 
d="M1811 1857v-12l23 12h188q67 0 106 -47q-23 -60 -23 -82h11l-11 -24v-94q0 -26 11 -47q-11 -23 -11 -35l11 -47q-23 -39 -23 -71q12 0 12 -11h-12l23 -71l-23 -329l12 -23l-12 -24l12 -47q-12 -102 -12 -176q0 -12 12 -12l-12 -23v-94q0 -76 -12 -153l12 -59l-12 -117
l12 -59l-12 -24q12 -20 12 -47q0 -11 -12 -11l12 -59q0 -42 -12 -106q12 -23 12 -35l-12 -71q0 -11 12 -11l-12 -59v-176q0 -12 -12 -12l12 -24v-23l-12 -24h12l-12 -23q12 -23 12 -35h-12q24 -39 24 -71v-23q0 -24 -129 -36q0 -11 -12 -11q0 19 -24 35q-241 -12 -352 -47
l-35 47q11 63 11 106q0 11 -11 11l11 24l-11 106q23 88 23 105h-12l12 24v223q0 27 12 47q-12 129 -24 129l12 24l-23 59l11 23q-11 23 -11 35q11 0 11 12h-11q11 23 11 35q0 69 -11 282l11 71h-11l11 23v94q0 40 12 59l-12 71v246q0 24 -23 24l12 -59q-39 -164 -47 -164
q0 -12 11 -12l-35 -306v-94q0 -58 -23 -58l11 -24q-35 -384 -35 -529l-23 -11l11 -24q0 -12 -11 -12l11 -23v-35q0 -12 -11 -12l11 -24q-23 -45 -70 -340l12 -24q-24 -164 -83 -164h-11q0 23 -24 23h-176l-24 -12v12l-23 -12h-176q-12 0 -12 -11q-94 0 -94 188
q-47 211 -247 928v12h-12l-23 -177q12 0 12 -11h-12l12 -24v-82l-12 -71l23 -70h-11q23 -46 23 -129v-12q0 -12 -12 -12l12 -23v-188l-12 -83h12q0 -11 -12 -11l12 -71l-12 -82q12 -20 12 -59q-35 0 -35 -35l-106 12v-12l-23 12h-130v-24h-11v24h-59q-28 0 -47 94h-12l12 23
v118q0 26 12 47q-12 20 -12 47q0 11 12 11l-12 24q0 26 12 47q-12 63 -12 106v82l12 23q-12 0 -12 12h12q0 12 -12 12l12 59q0 160 -12 423l12 23q-12 21 -12 47q0 24 12 24l-12 47q12 176 12 258h11l-11 24q0 11 11 11l-11 24v153q0 193 23 329q0 11 -12 11q0 13 12 36
q-12 262 -35 305q15 71 35 71q146 -12 153 -12q35 0 94 23q23 0 23 -11l118 11h59q82 0 82 -164q47 -197 106 -353l-12 -23q47 -45 164 -541q71 -164 165 -552q43 0 59 388q11 0 23 153h-12q12 19 36 199h-12l12 24q0 12 -12 12l12 23v12q0 12 -12 12l12 23q0 12 -12 12
q12 23 12 35q0 97 23 259q-12 0 -12 11q12 0 12 12h-12q40 212 47 212l-11 58v141q0 12 11 12l-11 24q27 51 58 58q59 0 59 -23l24 12h176q83 0 129 23l24 -12q20 12 47 12q11 0 11 -12q39 24 71 24zM1952 1775q-23 11 -35 11q0 -11 -12 -11v11q-65 -20 -611 -47l-12 -23
v-47q0 -65 -12 -165l12 -23q-59 -272 -59 -658q-11 0 -11 -59h11q-28 -166 -47 -223q12 -21 12 -47l-12 -24h12l-12 -23v-176q0 -59 -23 -59q12 -23 12 -35q-47 -94 -47 -130v-70q0 -12 11 -12q-7 -70 -30 -145q-92 118 -122 310q-271 995 -412 1421h12q-35 88 -35 153h-153
q-59 -3 -59 -23l-23 11h-141q12 -176 12 -258v-35q0 -12 -12 -12q0 -12 12 -12q-24 -147 -24 -176q12 -62 12 -71l-12 -70h12l-12 -24l12 -105q0 -13 -12 -36l12 -47q-12 -83 -12 -141q12 0 12 -11h-24l12 -24v-70q0 -36 -12 -36l12 -58v-611q0 -27 -12 -47q12 -23 12 -36
q0 -23 -12 -23l12 -82v-94q0 -12 12 -12l-12 -24v-82l12 -70v-47q94 -24 153 -24v12q22 -12 35 -12q47 18 47 35v83l12 82h-12l12 23q-10 47 -24 47l12 24q0 12 -12 12q12 25 24 105q-12 23 -12 36h12l-12 23v12q0 12 12 12l-24 105h12q-12 71 -24 71l12 59v282l-12 70
q24 48 24 71h-12q24 73 29 241q111 -159 253 -758q71 -204 176 -600l59 -11h47q118 0 118 23q11 0 11 -12q13 0 36 12q61 -12 70 -12q82 0 82 165q59 295 94 564l-11 23q11 188 23 247q-12 23 -12 35q24 0 24 24q0 12 -12 12q12 94 24 94q0 11 -12 11l12 83v70q0 12 -12 12
q32 114 94 576q12 0 21 18t9 54l62 104q45 -70 61 -282h-12l12 -24l-12 -58h12q0 -12 -12 -12l12 -82v-12q0 -49 -12 -129q12 -23 12 -36h-12l12 -23l-12 -24q0 -11 12 -11q0 -24 -12 -24q12 -176 12 -258v-235q0 -12 11 -12l-11 -24v-47q0 -11 11 -11q0 -12 -11 -12
q23 -88 23 -106q-8 -70 -23 -70q11 -21 23 -106h-12q0 -12 12 -12q-23 -176 -23 -305q11 -105 11 -130h130q48 0 129 12q23 -12 35 -12q21 12 47 12q12 138 12 200v117l12 24h-12q0 12 12 12l-12 58v212q0 56 12 117l-12 71q12 327 12 423l11 23q0 12 -11 12l11 59v211
l12 141h-12l12 24v47q0 80 -12 141q16 188 24 211q-12 64 -12 106v118l12 23h-12q-23 0 -82 -23z" />
    <glyph glyph-name="N" unicode="N" horiz-adv-x="1985" 
d="M507 1857q26 -18 141 -35l176 23q23 -12 35 -12l24 12q145 0 188 -153q70 -273 211 -622q94 -400 94 -529q33 -94 47 -94v12h-12l12 23v129q0 27 -12 47q12 21 12 47q-12 23 -12 36h12q0 11 -12 11l12 59l-47 576q12 300 12 352h-12q14 106 35 106h36q82 0 258 -12v-129
h59q12 0 12 12q129 -12 129 -59q-24 -46 -24 -129q0 -42 12 -106q-23 -93 -23 -223v-94q0 -12 11 -12l-11 -23v-200l-12 -82q12 0 12 -12h-24l12 -24v-70q0 -12 -12 -12q12 -25 24 -106q-12 -63 -12 -105h12l-12 -24q12 -230 23 -305h-11l11 -24v-235l12 -70l-12 -24
q12 -23 12 -35l-12 -47q12 -23 12 -35q-12 -23 -12 -36h12l-12 -23v-165q0 -11 -11 -11l11 -24l-11 -59q11 -22 11 -35l-11 -23q11 -23 11 -36l-47 -35q0 12 -11 12q0 -94 -59 -94l-24 12h-11q-76 0 -165 -24l-23 12q-47 -9 -47 -24l-24 12h-164q0 47 -12 47q14 19 23 118
q0 66 -152 94q-21 129 -36 129l12 23q0 28 -117 447q0 78 -271 787h-11q0 -26 -12 -47q12 -59 23 -59q-11 -22 -11 -35l11 -82h-11l11 -24q0 -11 -11 -11l11 -24v-47q0 -68 -11 -188q11 -20 11 -47h-11l23 -82l-12 -71v-35q0 -67 12 -82q-12 -64 -12 -106q0 -101 12 -211
l-12 -59q12 -21 12 -47h-12l12 -24v-164q0 -12 12 -12q-12 -153 -47 -153q-138 12 -200 12h-176q-27 0 -47 -12q-21 12 -47 12h-47v35l-12 83h-47q-94 0 -94 70q0 26 12 47q0 12 -12 12l12 59v82q0 67 -12 82q12 64 12 106v317q0 12 -12 12l12 23v153q0 27 12 47
q-12 23 -12 35q0 24 12 24l-12 117v341q0 27 -12 47q12 21 12 47v200l-12 59h12q-12 22 -12 35l12 23q0 12 -12 12l12 59v235q0 99 -12 294l35 23h71q12 0 12 -12q11 0 11 12q27 0 47 -12q100 12 153 12l47 -12v12l24 -12q47 10 47 24zM272 1751v-12q0 -47 -12 -211h23v12
q0 11 -11 11q23 46 23 130l-12 23q24 0 24 12q-12 23 -12 35h-23zM730 1681v-12q39 -153 59 -153l11 24v23zM1693 1610v-106q0 -26 -11 -47l23 -47q0 -23 -12 -23q12 -117 12 -176v-118l12 -70q0 -12 -12 -12l12 -82v-130q0 -11 12 -11l-24 -47q24 -81 35 -188
q-11 -20 -11 -59l11 -24h-23l12 -117v-341q0 -12 -12 -12l12 -23v-71q0 -100 11 -211q-11 -47 -11 -82q11 -23 11 -36q-23 -38 -23 -58l12 -106q0 -69 -177 -94l-23 12h-106q-12 0 -12 11q-22 -11 -35 -11l12 -24v-35q0 -27 -12 -47q12 -59 24 -59q76 24 105 24q12 0 12 -12
l223 59q0 -12 12 -12q0 12 12 12q0 -12 12 -12q0 12 11 12q0 -12 12 -12v94q0 117 12 352h-12q12 23 12 36q0 47 -12 211q12 0 12 12h-12q12 23 12 35q0 247 -24 247q0 12 12 12l-12 58v24q0 12 12 12q-9 26 -23 152q11 62 11 118v59l-11 23h11q0 12 -11 12q0 12 11 35
q12 298 12 435l-12 59l12 23l-12 24q24 88 24 164v47q0 12 -12 12q0 12 12 12q-9 141 -35 141h-59q-24 -4 -24 -24zM683 1587q0 -87 35 -94v11l-12 83h-23zM260 1516v-82h12q0 47 11 47q-11 23 -11 35h-12zM1447 1446v-36l11 -58h12v23q-12 23 -12 35h12q-12 23 -12 36h-11z
M260 1363v-35q0 -26 12 -47q-12 -20 -12 -47l23 -12v36q0 26 -11 47q11 20 11 47zM1082 1328v-12q0 -87 165 -587h12v12q-59 297 -153 552q0 35 -24 35zM460 1316l-12 -82l23 -12l-11 -23v-82h11l24 117h-24v82h-11zM1470 1293v-82h24v58q0 24 -24 24zM154 1281
q0 -35 -12 -35l12 -59v-117h24v47q0 11 -12 11q0 12 12 12q-12 83 -12 141h-12zM965 1222q47 -120 47 -152l23 11q-35 78 -35 106h12q-12 20 -12 59h-12q-23 -4 -23 -24zM577 1187v-223q0 -27 -12 -47q12 -129 24 -129l-12 -24v-12q0 -26 12 -47q-12 -20 -12 -47
q0 -11 12 -11l-12 -24l12 -70l-12 -24l12 -70q-12 -23 -12 -36q12 0 12 -11h-12q0 -12 12 -12q-12 -104 -12 -129q0 -23 24 -141q-24 -39 -24 -59q24 -4 24 -24v-82q0 -12 -12 -12l12 -23v-94q0 -24 -24 -24l12 -23q12 -351 35 -411q0 -69 -59 -83l-23 12q-12 0 -12 -12
q-106 12 -106 24l-23 -12h-82q0 -29 -24 -59v-11h35q12 0 12 11q23 -11 35 -11q250 -12 294 -12q12 59 24 59l-12 23v388q0 26 -12 47q12 20 12 47v106q0 11 -12 11l12 24l-12 59l12 23q-12 23 -12 35t12 12q-12 141 -24 141l12 82v224q0 131 -23 282h11l-11 23q0 12 11 12
l-23 106h12q-24 38 -24 58l12 83q-24 40 -35 117h-24zM330 1175q0 -35 -11 -35q11 -20 11 -47h12v35q-12 0 -12 12q24 0 24 24v11h-24zM460 1070v-24q0 -26 11 -47q-11 -23 -11 -35l23 -12q0 24 12 24q-12 94 -35 94zM330 752q0 -26 -11 -47q11 -19 11 -58h12v35l-12 23
l12 24v23h-12zM859 752v-11q12 -71 35 -71q-15 82 -35 82zM1505 588v-176h12q0 58 12 141q-12 22 -12 35h-12zM330 506v-118h12v118h-12zM1599 177l12 -24v-23l-12 -24l24 -12h12q-12 47 -12 83h-24zM1176 47q29 -105 47 -105v23q0 18 -23 106q-24 -4 -24 -24zM272 -188
q0 -70 -12 -70q12 -18 12 -71h11v141h-11zM354 -329v-94l12 -58h11v58l-11 59h11q-11 23 -11 35h-12zM1458 -470q12 -45 12 -94h12q0 27 12 47q-12 20 -12 59z" />
    <glyph glyph-name="O" unicode="O" horiz-adv-x="1409" 
d="M683 1833q54 -23 117 -23v12l24 -12q12 0 12 12q11 0 11 -12l59 12q306 -36 306 -165q41 0 82 -282h-12l12 -23q0 -12 -12 -12l47 -294l-12 -23v-24q0 -12 12 -12l-12 -23v-12q0 -12 12 -12l-12 -23v-71q0 -11 12 -11q-12 -23 -12 -36q12 -22 12 -35h-12l12 -23
q0 -36 -12 -36l12 -141v-23q0 -669 -70 -1069h11q-62 -153 -235 -247q-38 -24 -58 -24l-47 12q-36 0 -36 -35h-11q0 35 -24 35h-23v-23l-24 11h-12l12 -23q0 -24 -23 -24q0 47 -59 47h-12q-26 0 -47 -11l-247 58v-11l-70 35q0 -12 -12 -12q0 17 -129 59q0 15 -106 106
q-35 117 -47 317h12l-12 23v459q0 26 12 47q-12 22 -12 35q12 0 12 12h-12q24 59 24 211v294l11 59h-11l11 23v200l12 82h-12q9 27 24 153h-12l47 94h-12q41 189 165 294q110 66 376 105zM624 1716l12 -71q0 -40 -24 -199q12 -23 12 -36q0 -11 -12 -11l12 -59v-212h12
q23 126 23 294q0 25 -11 129l11 24q-11 21 -11 47l11 23q-11 21 -11 47h11q-11 21 -11 47q-24 -3 -24 -23zM330 1610q-14 -141 -35 -141q0 -12 12 -12l-12 -58l12 -83q17 0 35 36v35q0 12 -12 12l12 23v24l-12 23h12q-12 23 -12 35q0 11 12 94v12h-12zM789 1551v-329
q0 -11 -12 -11q12 -12 12 -94h11l12 47l-12 23q0 12 12 12l-12 59v94q0 11 12 11l-12 24v23q0 12 12 12l-12 24v35q0 12 12 12q-12 19 -12 58h-11zM871 1469q0 -95 -12 -223h24q0 47 11 47q-11 33 -11 176h-12zM930 1434v-388h11q24 0 24 24v82l12 70l-12 24q0 12 12 12
l-24 199q-23 -3 -23 -23zM471 1446q0 -12 12 -12l-12 -24v-129h12l12 59v106h-24zM319 1246l-12 -47q12 -23 12 -35h11l12 82h-23zM542 1234v-106h12v106h-12zM1071 1175v-82h11v82h-11zM730 1164v-47h-12v23h-12v-23h12l-12 -24q24 -48 24 -70l-24 11h-11l23 -47
q-12 0 -12 -11q12 0 12 -12q-12 0 -12 -12h24v-12h-24v-117q4 -24 24 -24q12 153 23 153l-11 24v11q0 12 11 12q0 12 -11 12l11 59v35l-11 59h-12zM389 1117v-36l-12 -70q0 -12 12 -12l-12 -141v-129h12q24 94 24 117v271h-24zM1071 1070v-83h11l12 47q-12 23 -12 36h-11z
M178 1046v-129h11v129h-11zM789 952v-94q23 0 23 24l-12 70h-11zM166 882v-118h12q0 106 23 106q-12 23 -12 35q-23 -4 -23 -23zM589 846q0 -35 12 -35q-24 -174 -24 -211h12l-12 -24v-117q0 -12 12 -12q-12 -94 -24 -94l12 -59v-94q0 -23 -23 -23q15 -59 35 -59
q0 76 23 164q-11 23 -11 36q11 0 11 11h-11l11 24v82q0 12 -11 12l11 23v106q0 12 12 12q0 12 -12 12q0 12 12 35q-12 100 -12 164v71q-23 -4 -23 -24zM789 764q0 -67 -12 -82h12l-12 -24v-70h12l11 59v117h-11zM154 541v-82h12v82h-12zM765 506v-83h24v24l-12 59h-12z
M142 423q0 -35 -11 -35l11 -23q0 -12 -11 -12l11 -59v-188h24l-12 24v11q0 36 12 36l-12 58v12q0 59 12 176h-24zM765 400v-94q0 -27 -12 -47q12 -21 12 -47q-12 0 -12 -12h12l-12 -23v-188h-11v23h-12v-35l12 -47q-12 0 -12 -12l23 -12q0 12 12 12q0 -12 12 -12l12 106
q0 24 -12 24l12 58v200q0 12 -12 12l12 23v71h-24zM1000 353v-94q24 0 24 23v12l-12 59h-12zM295 247v-117h12v117h-12zM1000 247q0 -62 -12 -106h12l-12 -23q12 -64 12 -106q-12 0 -12 -12h12l-12 -23l12 -106q-23 -4 -23 -23v-12q23 0 23 -12q-12 -23 -12 -35h12l-12 -24
l12 -164h-12q0 -12 12 -12l-12 -59v-35h12q24 0 35 82q-11 0 -11 12h11l-11 24q0 26 11 47q0 11 -11 11l11 59v235q0 12 12 12l-12 23v177q0 61 -35 70zM1106 247q0 -26 12 -47l-12 -23q12 -23 12 -36q-24 -3 -24 -23l24 -47h-24l12 -24v-188h12l11 118v223q0 12 -11 12
l11 23v12h-23zM953 212v-165h12q0 13 12 36q-12 20 -12 47h12l-12 23v35l12 24h-24zM424 141v-129q0 -12 -11 -12l11 -23q-11 -217 -11 -364v-12l11 -82q-23 -4 -23 -24h47v94q0 26 12 47q-12 21 -12 47h12l-12 24v47q0 11 12 11q-9 20 -24 141l12 24q0 12 -12 12l12 58
q0 27 -12 47q12 23 12 36h-12l12 23q-12 23 -12 35h-12zM283 94v-58q24 0 24 23v59q-24 -4 -24 -24zM131 94v-11l11 -59h-11q11 -15 11 -82h12l12 105q-12 21 -12 47h-23zM565 71l12 -24v-23q-27 -59 -35 -59q12 -23 12 -35q-12 -23 -12 -35l23 -12l-11 -24v-35
q0 -12 11 -12l-11 -23v-71q0 -11 11 -11l-11 -24v-82l-12 -59l23 -12l12 59v12l-12 23q24 0 24 24v35q0 12 -12 12q12 17 24 153q0 11 -12 11l12 59v59q0 12 -12 12q0 11 12 11q-12 47 -12 83zM330 -235l12 -23q0 -13 -12 -35q0 -13 12 -36q-12 -63 -12 -105h12
q-12 -36 -23 -36l11 -23v-153q24 0 24 24q0 11 -12 11l24 165h-12q12 23 12 35q-12 23 -12 35h12q0 12 -12 12l23 106q-11 0 -11 12h11q0 11 -11 11l11 141v59q-35 0 -47 -200zM742 -105v-12l11 -24q-22 -11 -35 -11q12 -127 24 -153q-12 -21 -12 -47q0 -12 12 -12
q-24 -200 -36 -200l12 -23v-82l-12 -24l24 -12q0 40 12 59h-12q35 115 59 306q-12 63 -12 105v59q0 12 -12 12l12 23v36h-35zM659 -317v-23q0 -12 12 -12l-12 -24v-11h24v94q-24 -4 -24 -24zM424 -517v-82h24v82h-24z" />
    <glyph glyph-name="P" unicode="P" horiz-adv-x="1515" 
d="M554 1857q11 0 11 -12l83 12h129q226 0 529 -129q129 -132 129 -459q0 -422 -235 -540l-729 -94q0 -24 -11 -24q0 -11 11 -11q0 -27 -11 -47l23 -564h-12l12 -24v-23q0 -12 -12 -12l24 -106q-12 -23 -12 -35h12l-12 -24l12 -105q0 -13 -12 -36q24 -149 24 -176h-12
q12 -106 23 -106q0 -70 -235 -117q-29 0 -94 12l-70 -12l-59 59q31 58 47 58q-12 118 -12 177v176q0 12 -11 12l11 23q0 12 -11 12l11 23v165q0 12 12 12l-12 23v106l-11 23q11 0 11 12h-11l11 24v141q0 136 12 434q-12 0 -12 12h12l-12 24l12 70h-12q12 23 12 35
q0 148 12 365l-12 58l12 24q0 12 -12 12l12 58q0 70 -12 247q12 65 12 94l-24 47l83 47l11 -23q144 47 365 82zM189 1610v-164q0 -27 12 -47q-12 -21 -12 -47v-130q0 -11 12 -11l-12 -24v-129q0 -42 -11 -106l11 -23q-11 -59 -23 -59q12 -188 23 -188l-11 -82v-271
q0 -199 -24 -199l12 -24q12 -206 12 -247q-12 -102 -12 -117q12 -23 12 -35q-12 0 -12 -12q12 0 12 -12h-12l12 -23v-59q0 -12 -12 -12l12 -23v-177q23 -70 47 -70q19 -12 58 -12h36q94 0 94 94v47q0 26 -12 47q0 12 12 12l-12 82v35l12 59h-12q0 12 12 12l-12 59v141
q0 11 -12 11q0 12 12 12q-14 412 -35 576q11 0 11 12h-11q11 22 11 35q-11 23 -11 35h11l-11 24v94q11 35 70 35h106q693 65 693 117q118 190 118 400v70q0 27 11 47q-54 341 -211 341q-88 35 -329 71v-12l-24 12h-82q-42 0 -106 -12l-23 12q-313 -39 -388 -94zM460 1587
q0 -12 11 -12v12l24 -12q12 0 12 12q364 0 528 -212l47 -106q0 -11 -11 -11l11 -59q0 -246 -199 -282q-12 0 -141 -24v12l-94 -23q-64 11 -106 11h-24q-82 -3 -82 -23q-59 23 -59 35q21 317 36 317q0 12 -12 12l12 59v23q0 12 -12 12q12 23 12 35l-12 47q12 21 12 47h-12
l12 24v82zM518 1504h-35v-117q0 -27 -12 -47q0 -12 12 -12q-15 -305 -35 -364h94q12 0 12 12l23 -12h71q202 0 282 59q0 -12 11 -12q52 59 71 176q0 194 -235 294l-188 35z" />
    <glyph glyph-name="Q" unicode="Q" horiz-adv-x="1750" 
d="M988 1810h141q102 -16 165 -71q115 -143 164 -470q12 -96 24 -117q-12 -71 -24 -71l12 -58v-47q0 -12 -12 -12l12 -24v-23q-23 -347 -23 -376h-12l12 -24v-58q-28 -46 -47 -482v-35q0 -12 -12 -12q0 -12 12 -12l-12 -59v-188q0 -53 70 -94q106 -147 188 -188l24 -35
q0 -212 -106 -247h-12v12q-70 -12 -70 -23q-189 35 -270 105q-59 69 -59 83h-12q-94 0 -94 -83h-12v36h-35l-23 -12v12q-81 -21 -294 -36v12q-71 -23 -212 -35l-23 12q-21 -12 -47 -12q-235 68 -235 164q-78 0 -94 376q0 12 -12 12l12 24l-12 23l12 24q-12 64 -12 94l12 82
h-12l24 117q0 13 -12 36q23 173 47 799l-12 58q12 23 12 36h-12q133 575 212 575q0 98 364 177v-12q70 12 70 23l24 -11h35q113 35 176 35zM683 1692q0 12 -12 12v-12q-23 12 -35 12q-215 -58 -259 -141q-38 -17 -164 -364q-34 -139 -35 -411l11 -24q-11 -17 -23 -129h12
q-12 -23 -12 -35l12 -47l-12 -24l12 -23q-12 -23 -12 -36h12l-12 -23v-35q0 -82 -24 -224q12 -64 12 -94q-12 -22 -12 -35l12 -23l-12 -71v-47q0 -12 12 -12l-12 -23v-59q0 -12 12 -12l-12 -23v-12l12 -23h-12q28 -280 94 -376q74 -118 318 -118q88 24 399 59q0 12 12 12
v-12q38 23 59 23q22 -11 35 -11q0 19 82 47q38 0 188 -153q9 0 129 -47q83 0 106 59v11q-26 134 -223 294q0 24 12 24q0 10 -12 94q0 23 12 258q-24 32 -36 176q36 318 47 318l-11 23q23 282 35 282l-12 24l12 23h-12q12 19 24 188q-13 643 -212 764q-82 8 -82 23l-24 -11
q-11 0 -11 11l-24 -11h-70q-12 0 -12 11zM871 1457q282 -42 282 -352q0 -101 12 -212q-12 -92 -12 -282q0 -12 12 -35q-12 -23 -12 -35h12l-12 -24q6 -141 23 -141l-11 -23v-106l11 -70q-11 -21 -11 -47l11 -71q0 -294 -70 -294v-23l-59 35h-35q-71 -41 -71 -59
q0 -39 36 -82v-117q0 -32 -188 -59q-23 12 -36 12q-25 0 -129 -12q-12 0 -12 12l-58 -12h-12q-141 0 -141 82q-39 83 -94 341l12 59q0 53 -12 270l12 23q-12 21 -12 47q0 12 12 12q0 12 -12 12l12 59v11q0 65 -12 165q12 23 12 35h-12l12 24v35q0 12 -12 12q0 11 12 11
q0 27 -12 47q0 729 305 729q27 0 47 -12q24 12 212 35zM401 1023l12 -24q-12 -23 -12 -35h12q-12 -23 -12 -35q-12 -191 -12 -212q12 -23 12 -35l-12 -24l12 -23q0 -13 -12 -35l12 -71l-12 -164q0 -29 12 -177q-24 -88 -24 -164v-71q0 -26 -11 -47q11 -20 11 -47v-82
q0 -235 177 -235q258 0 258 24l24 -12q20 12 47 12v47q-47 67 -47 105q92 153 235 153q11 138 11 200v12q0 11 -11 11l11 24v94l12 70q-12 21 -12 47h12l-12 24q0 12 12 12l-12 82v94l-11 23h11l-11 24v59l11 23h-11l11 24v129q0 26 12 47q-12 59 -23 59l11 70
q0 276 -105 341q-76 35 -153 35h-12q-188 0 -305 -70q-54 -80 -106 -282z" />
    <glyph glyph-name="R" unicode="R" horiz-adv-x="1538" 
d="M424 1833q681 0 799 -82q224 -187 224 -317q0 -27 -12 -47q12 -71 23 -71q-11 -94 -23 -94q0 -11 12 -11q0 -40 -36 -94l12 -59q-103 -153 -211 -153q0 -21 -118 -35q259 -240 259 -388q11 0 35 -70q-12 -21 -12 -47q26 0 59 -259l-12 -23l12 -24q0 -12 -12 -35l12 -71
q-12 0 -12 -11h12l-12 -24q9 -153 24 -153q0 -11 -12 -11q16 -200 23 -224q-11 -20 -11 -47v-82q0 -11 -106 -82l-59 12q-260 -47 -482 -47v-12q-48 23 -70 23v12q0 12 12 12l-12 23q0 12 12 12l-12 24q23 141 23 223v35q0 12 -11 12l11 23v282l-11 59q11 0 11 12h-11l11 23
v12l-11 24h11l-11 23l11 59q-11 0 -11 12h11q-23 136 -35 164h12l-12 24l12 23q-107 388 -282 388q-19 0 -47 -82l12 -47q-12 -62 -12 -71q23 -117 23 -211v-24l-11 -23h11l-11 -24v-164q0 -12 11 -12l-11 -24q11 -173 23 -235l-12 -23q16 -165 36 -212h-12l12 -23l-12 -24
l35 -176v-23q-82 -20 -82 -36q-12 0 -12 12q-41 -12 -47 -12q-214 12 -270 12v176l-12 24q24 0 24 23v47q0 49 -12 94q12 46 12 94v71l11 23h-11q11 23 11 36q0 82 12 258l-12 24l12 23l-12 71v23q0 12 12 12q0 12 -12 12q0 14 12 117q-12 141 -23 153q0 12 11 12l-11 58
q0 62 23 247q-12 0 -12 12h12l-12 23v24q0 12 12 12l-12 23q0 12 12 12l-12 23v153q0 12 -11 12l11 23v36q0 47 -11 47l11 82v282q37 0 118 70q185 47 211 47zM377 1739v12l-199 -59q0 -155 -24 -329h12l-12 -23v-35l12 -83h-12l12 -23l-12 -24l12 -47q0 -12 -12 -35
q12 -80 12 -129l-12 -118h12l-12 -23v-24q0 -11 12 -11l-12 -24v-23q0 -55 24 -188l-12 -83h12q-12 -94 -24 -94l12 -23v-71q0 -11 -12 -11q9 -25 24 -130q-15 -110 -24 -141h12l-12 -23v-106q0 -12 12 -12l-12 -23v-47q0 -62 -12 -106q12 -64 12 -129q-12 -103 -12 -118
l36 -23h47q11 0 11 12l24 -12h47q61 0 70 35v12q0 26 -11 47l11 23q-11 143 -35 271q0 11 12 11l-12 83v164q0 12 -12 12l12 23v94q0 105 12 235q-24 121 -24 165l12 59l-12 23q0 153 47 153l106 35l118 -70q65 -45 94 -94q25 -30 94 -165h11q0 -12 -11 -12q20 -32 47 -282
l-12 -23q23 -89 23 -165v-141q0 -11 -11 -11l11 -24q0 -12 -11 -12l11 -23v-24l-11 -70q11 -21 11 -47h-11l11 -24v-117q0 -82 -23 -82l12 -24v-82h82l23 12v-12l24 12h106l23 11v-11q33 11 259 35v141q0 12 11 12q0 11 -11 11l11 83v11l-11 59h11l-11 24v152
q0 639 -294 893q-68 94 -118 94q0 29 318 94q105 76 105 282v83q0 387 -552 387q-68 0 -294 12v12q-31 -9 -141 -24zM413 1587l70 -12q0 12 12 12v-12q12 0 12 12l270 -47v11q188 -57 188 -223q12 0 12 -23q0 -165 -106 -165q0 -14 -47 -23v11q-58 -35 -282 -58q0 11 -12 11
v-11l-117 23v-12q-118 51 -118 71l35 153q-11 0 -11 11q11 0 11 12h-11l11 24v152q0 83 83 83zM377 1187q20 -23 188 -47q329 55 329 118v58q0 24 -23 24l12 23q-39 130 -271 130q-26 0 -47 11q0 -11 -11 -11q0 11 -12 11v-11q-82 11 -82 23q-59 0 -59 -141q0 -121 -24 -188
z" />
    <glyph glyph-name="S" unicode="S" horiz-adv-x="1421" 
d="M589 1786q183 -58 376 -58v11q176 -52 176 -141l24 -11h47l23 11v-11l24 11q70 -27 70 -94q12 -63 12 -129h-12l12 -23v-36q0 -83 -24 -129h12q-12 -30 -35 -247h12q-9 -26 -24 -152h12q-23 -54 -47 -59l-118 12q-38 -24 -70 -24h-24q-82 0 -82 118q12 20 12 47h-12
l-35 -24v12l-24 -12l-47 35l12 83v105l12 24h-12q35 127 35 176h-11l11 24v23l-23 -12q-43 24 -94 24h-24q-185 0 -211 -153l12 -23q-12 -97 -24 -118h12q-24 -63 -24 -129q0 -125 177 -165q0 12 11 12q35 -33 294 -129q90 -69 118 -153l-12 -23q0 -49 129 -83q39 0 82 -564
h12q0 -11 -12 -11q12 -214 12 -271q-12 -145 -12 -152q12 -21 12 -47l-82 -130q-279 -52 -282 -70l-24 12h-164q-42 0 -106 -12l-23 12l-71 -12q-282 0 -282 176v47q-93 0 -200 176l12 24v35q0 26 -12 47l12 24q-23 43 -23 94h11q-20 89 -35 376h12l-12 23v12q0 26 270 47
q0 12 36 12q52 0 82 -118q91 -15 129 -47l-23 -305q12 0 35 -12q0 12 12 12q0 -12 11 -12q0 12 12 12q0 -12 12 -12v12l23 -12q165 0 165 94q12 102 12 176v24q-31 282 -118 282q-238 125 -317 152q0 21 -188 130q-64 105 -94 105q0 27 12 47q-12 59 -24 59l12 24v117
q0 12 -12 12l12 23v24q0 12 -12 12l12 23v212q106 446 188 446q0 34 200 71v-12q82 12 82 23zM1188 1504q0 12 -12 12q0 -12 -11 -12q11 -163 23 -223h-12q0 -12 12 -12q-23 -185 -23 -211q11 -35 23 -35l-12 -24v-35l12 -24q-49 -47 -94 -47h-47q0 -26 -12 -47
q12 -19 12 -58q106 14 106 35l23 -12q47 0 47 176h-11q23 0 58 353q-8 188 -47 188zM401 1023q12 -83 35 -83h12l35 188q-12 23 -12 36q12 22 12 35h-12q0 132 177 188q29 0 58 23v-11l24 11h35l24 -11q0 11 11 11q0 -11 12 -11l12 23q-118 47 -176 47q-200 0 -200 -153
q-35 -112 -47 -293zM624 541v-24q21 0 106 -70h12q-2 24 -118 94zM1035 435v-35q12 -65 12 -94h12v35q-12 65 -12 94h-12zM894 353v-24q36 -51 36 -94h11v59q-22 54 -47 59zM1129 329q14 -211 24 -270h-12l12 -23v-83q23 -115 23 -129v-82l12 -24h-12q12 -22 12 -35
q0 -216 -176 -317l-12 -24l-117 12q-225 -12 -306 -12l-47 -23v12q-12 0 -12 -12l-58 12h-12q-12 0 -12 -12l-23 12h-36q0 -130 212 -130h188l23 12v-12l24 12h129q82 0 82 35l24 -11h12q64 0 94 58q43 0 82 165h-12q12 59 24 59l-12 23v47q0 12 12 12q-12 23 -12 35
q0 176 -35 353h11q-11 58 -23 58l12 24v35q0 12 -12 12l12 23v36l-12 23h12q0 74 -59 129h-24zM918 59v-82q23 0 23 23l-11 59h-12zM401 -176q0 -59 70 -59q0 30 24 106q-12 23 -12 35h12l-12 24l12 23h-12l12 24v35q0 24 -24 24q-51 0 -70 -212zM225 -399q19 -53 70 -82h12
q-49 82 -71 82h-11zM530 -458l-12 -23v-12h83v23z" />
    <glyph glyph-name="T" unicode="T" horiz-adv-x="1315" 
d="M1200 1833q35 -11 35 -23q-23 -125 -23 -165v-188q-181 -23 -259 -23l-82 12v-12l-24 12h-58q0 -30 -12 -94q12 -161 12 -200q-12 -65 -12 -94h12l-12 -24v-176q0 -23 -24 -23l12 -83v-58q0 -100 -23 -153h11l-11 -24l11 -23h-11q11 -23 11 -35q0 -24 -23 -341
q12 -103 12 -118h-12q12 -22 12 -35q0 -198 23 -305q-12 -23 -12 -36q0 -82 24 -82l-12 -23v-118q0 -26 12 -47q0 -70 -200 -70q0 -12 -129 -36q-59 17 -59 83q0 11 12 11l-12 24v23q5 259 24 259q0 12 -12 12l23 376h-11l11 23v118l12 23h-12l12 24v152q0 65 -12 165
q9 47 24 47l-12 23q0 12 12 12l-12 24v23l12 59q-12 0 -12 12h12l-12 23q35 289 35 670l-23 12h-188q-12 0 -12 -12l-23 12h-12q-12 0 -12 -12q-23 12 -35 12q-35 0 -94 -24v235q0 12 -12 12q12 94 35 94h118l282 47l70 -12l83 12q11 0 11 -12q105 24 282 24h247q12 0 12 11
zM695 1739v-11h105q12 0 12 11l24 -11h11v23h-11zM706 1669q0 -24 36 -24l23 12q23 -12 35 -12l12 24h-106zM530 1140l12 -23v-12l-12 -24h12l-12 -23v-141q0 -12 12 -12l-12 -23v-71q0 -26 12 -47q-12 -20 -12 -47l12 -23q-12 -23 -12 -36q35 0 35 188v71q0 76 -11 235z
M483 -317q0 -95 -12 -223q9 -118 36 -118v106q0 76 -12 235h-12z" />
    <glyph glyph-name="U" unicode="U" horiz-adv-x="1397" 
d="M1235 1775q71 0 71 -106q0 -54 -12 -270h12q0 -12 -12 -12l12 -59q-12 -23 -12 -35h12l-12 -24v-105q0 -77 12 -235h-12l12 -24v-153q0 -39 -12 -58l12 -71v-106q0 -11 11 -11l-11 -24v-82l-12 -118h12q0 -11 -12 -11l12 -83l-12 -82q12 0 12 -12h-12l12 -23l-12 -59h12
l-36 -211l12 -24q-12 -23 -12 -35h12l-12 -24v-47q-31 -340 -235 -340q-493 0 -493 -24q-376 94 -376 212q-33 0 -82 199q11 0 11 12q-11 0 -11 12h11l-11 23v24q0 95 -12 153l12 82q-12 306 -24 364q35 174 35 411v71l12 23q-12 0 -12 12q12 0 12 12h-12l12 23v177
q0 152 24 211q-12 0 -12 12q12 0 12 12h-12q12 105 23 105q0 12 -11 12l11 59q0 12 -11 12q11 11 23 199q47 0 47 24q39 -24 71 -24h58l24 12v-12l23 12h94q17 0 36 -35q-9 -188 -24 -188q0 -12 12 -12l-47 -529h-12l12 -58v-282q0 -12 12 -12q-12 -35 -24 -35l12 -59v-165
q0 -73 -12 -176q12 -44 12 -106l-12 -47q36 -305 141 -305q9 -26 153 -47q211 0 211 176q19 0 36 118h-12q23 43 23 94v188q0 11 12 11l-23 83h11l-11 23v82q0 12 11 12q0 12 -11 12l11 59v141q0 11 -11 11l23 130q-12 20 -12 47v11q0 12 12 12l-12 24v70q0 210 -23 270
q0 12 12 12l-12 59v94q0 26 12 47l-36 200h12l-12 23v59h83q61 0 199 -12zM1047 1692q0 -11 -12 -11l12 -118v-35q0 -42 -12 -106l24 -70h-12l12 -24q12 -245 12 -399q0 -12 11 -12l-11 -24v-293q0 -12 -12 -12q0 -12 12 -12q-15 -121 -24 -141l12 -70v-83q0 -11 12 -11
l-12 -24v-35q0 -12 12 -12q-10 -47 -24 -47l12 -59q0 -158 -94 -387q-78 -94 -223 -94q-341 58 -341 176q-23 2 -35 82h11q-23 59 -23 212v223q0 12 12 12q0 11 -12 11q12 138 12 200v223q0 27 -12 47q12 21 12 47q11 320 11 388h-11l35 200h-12l24 106h-12l12 23v106
l-59 12h-24q-105 0 -105 -94l-12 -71h12l-12 -23v-118q0 -12 -12 -12l12 -23q-24 -82 -24 -141v-212q0 -42 -11 -105l11 -24q-47 -378 -47 -423q12 -47 12 -82q-12 0 -12 -12h12q0 -12 -12 -12q30 -752 94 -752q-11 0 -11 -11q111 -130 246 -153q0 -24 365 -59q22 12 35 12
q0 -12 12 -12q3 24 23 24l24 -12q223 29 223 164q44 121 82 600h-12q0 11 12 11l-12 59v82l12 24h-12l12 23q0 12 -12 12l12 24v152q0 27 -12 47q12 21 12 47v12q0 12 -12 12l12 23q0 47 -12 47l12 83v164l-12 24h12q-23 61 -23 246q0 12 11 12l-11 24v35q0 49 11 129
l-11 24l11 23l-11 24l11 58l-11 59l11 24q-9 47 -23 47q-7 0 -153 11z" />
    <glyph glyph-name="V" unicode="V" horiz-adv-x="1661" 
d="M583 1834q122 -698 170 -890v-12l-12 -24q37 -79 86 -366h-13q33 -102 86 -451h12q110 833 207 1731h12q116 0 500 -25q0 -94 -134 -573q-134 -727 -183 -865l12 -24q-97 -648 -195 -1097q-40 -25 -73 -25h-171v25q220 0 220 146q49 402 73 402l-12 24q85 547 195 1012
l-12 25q101 471 195 780q0 12 -13 12q0 22 25 97q-45 28 -183 37l-24 -12q-48 24 -134 24q-77 0 -135 -975q-85 -606 -182 -890h-25q-122 566 -122 622v85q-36 73 -97 402h12q-134 687 -171 756q-426 0 -426 -61q70 -185 134 -524h-25q-48 140 -158 585q49 25 158 37v-12
l25 12h24q12 0 12 -12l25 12q233 12 317 12zM193 1176h12q46 -51 97 -354q73 -157 208 -853l158 -683q0 -36 195 -61v-24h-73l-122 -12q-122 261 -219 792q-25 74 -256 1195z" />
    <glyph glyph-name="W" unicode="W" horiz-adv-x="2161" 
d="M2034 1822q47 -12 47 -47q-15 -177 -35 -177q0 -11 12 -11q-24 -151 -24 -282v-24q0 -12 -12 -12l12 -23q0 -79 -35 -329h12q-24 -149 -47 -494l11 -23l-23 -71h12l-12 -23v-35q-47 -509 -94 -670l12 -24l-36 -223h12q0 -39 -141 -70q-23 11 -35 11q-75 -23 -82 -23
q0 12 -12 12v-12q-12 0 -12 12q-268 -38 -270 -47l-24 11l-23 -11q-141 371 -153 481h-12l-117 -340h12q0 -16 -59 -130q-36 36 -259 36v11q-11 0 -11 -11l-59 11h-35l-259 -47q-59 15 -59 36v11q-47 418 -82 1222v12l-12 24h12l-12 23l12 59h-12q0 12 12 12
q-35 325 -35 458h-12l12 23l-12 24q12 20 12 47q-12 0 -12 12h12l-12 23v35q0 149 -47 400q221 63 235 106q82 0 82 -153h-11q23 -92 70 -599q40 0 82 -376h-11q23 -45 70 -517q-12 0 -12 -12q12 0 12 -12h-12q24 -129 83 -282h23q106 266 176 717q24 236 71 482
q0 32 70 317v35l-11 59q216 94 246 94h24q28 0 47 -247l-12 -23q12 -71 24 -71l-12 -23v-36l12 -23h-12q0 -12 12 -12q0 -12 -12 -35q23 -148 47 -482q14 0 47 -305h12l11 58v59q0 12 -11 12l11 23q0 12 -11 12l11 24l-11 58q11 0 11 12h-11l11 24v70l12 71q0 11 -12 11
q24 334 47 435v106q0 12 12 12q0 11 -12 11q15 105 24 130l-12 23q35 129 47 129l-12 83v117l59 12q12 0 12 -12q32 24 153 35q22 -11 35 -11v11q12 0 12 -11q164 20 164 35l24 -12q48 24 70 24zM1541 1481h11q-23 -59 -23 -212v-58l-12 -59q12 0 12 -12q-12 0 -12 -12h12
q-24 0 -47 -352v-24q0 -11 -12 -11l12 -24q0 -12 -12 -12l12 -23l-12 -59h12l-12 -23v-341q0 -12 -12 -12l12 -23q0 -12 -12 -12l12 -24v-141q0 -11 12 -11q-30 -106 -71 -106q-35 0 -82 270q-35 285 -70 447q0 11 11 11l-23 141q12 21 12 47q-12 0 -12 12q12 0 12 12h-12
q0 12 12 12l-24 152h12q-12 23 -12 36q0 179 -47 387h-35v-23h-71q-45 0 -105 -447q11 0 11 -11q-28 0 -58 -247h11l-47 -247l12 -23l-94 -470q-106 -238 -106 -259q-20 0 -58 -35q-47 0 -130 282q0 34 -23 188q12 23 12 35q-24 109 -106 846q-19 24 -59 517q-11 2 -59 129
q-152 -47 -152 -70v-59q0 -12 11 -12q0 -11 -11 -11q27 -188 35 -188q0 -12 -12 -12q47 -600 82 -1328h12q0 -12 -12 -12l12 -58l-12 -71q12 -23 12 -35h-12q21 -61 47 -259h-11q25 -164 47 -246l23 11h59q117 0 117 24l24 -12h12q11 0 11 12l24 -12h153l141 -12
q38 165 94 165q58 201 105 411q24 0 24 82h12q58 -476 188 -669q52 0 70 -12l118 35v-12q86 21 270 36q0 11 -12 11q24 36 71 376q11 0 11 12h-11l11 24v11q0 12 -11 12q11 106 23 106q0 12 -12 12q59 231 94 834q12 94 24 94l-12 23v24q0 12 12 12l-12 23v12l12 59h-12
q20 35 35 211q-11 20 -11 59h11l-11 23q11 200 35 247h-12l12 24v141q-24 0 -24 11q-399 -23 -399 -94q-12 -132 -35 -164z" />
    <glyph glyph-name="X" unicode="X" horiz-adv-x="1597" 
d="M1165 1845q37 0 188 -59q164 0 164 -35q-117 -223 -164 -411q-188 -471 -282 -646q-71 -56 -71 -118l129 -317q36 -70 177 -541q25 -10 152 -458q12 0 36 -47q0 -47 -106 -59l-24 12q-22 -12 -35 -12q-23 12 -35 12v-12q-12 0 -12 12q-26 0 -211 -23q-45 0 -118 270
q-28 0 -106 411q-47 59 -70 212q-35 58 -47 58q-306 -676 -306 -881q-117 0 -117 -12l-24 12h-23l-24 -12v12l-129 -23q-47 17 -47 35v23q0 87 212 541q78 235 282 681q-118 305 -435 1222q206 101 258 141q74 0 94 -141q235 -576 306 -775h12q103 391 152 423
q135 453 224 505zM1188 1763q-106 -150 -176 -435q-41 -50 -118 -247h12q-74 -257 -141 -340q-247 672 -317 810q12 0 12 12q-27 6 -83 176h-11q-55 0 -165 -94l423 -1163q12 0 12 -23q-212 -435 -423 -987q-59 -111 -59 -200h82l24 12v-12l23 12h71q0 58 153 470
q154 330 246 470q55 0 83 -153l105 -294l-11 -23q70 -289 176 -529h258l24 12q-35 161 -341 1034h12q-47 109 -118 376q118 121 224 434q82 137 141 353h11q0 12 -11 12l117 293q-23 12 -35 12q-40 0 -200 12z" />
    <glyph glyph-name="Y" unicode="Y" horiz-adv-x="1574" 
d="M1329 1775l12 -118v-12h106q19 0 47 -82l-12 -23v-24q0 -26 12 -47q-59 -399 -59 -411q12 -21 12 -47q-12 -170 -12 -188l12 -24l-12 -23l12 -71h-12q0 -11 12 -11l-12 -83v-70q0 -80 12 -141l-24 -259h12l-12 -23v-82l12 -83h-12l12 -23q0 -12 -12 -12l12 -23v-12
l-12 -24h12l-12 -23v-24q0 -11 12 -11l-12 -24q-12 -327 -12 -423q12 -35 24 -35q-71 -259 -200 -259q-12 0 -12 12q-23 0 -23 -12l-141 12h-106q-12 0 -12 -12l-23 12h-129q-12 0 -12 12q-46 -24 -129 -24h-24q-12 0 -12 12l-23 -12q-39 24 -71 24q-9 0 -70 -12
q0 12 -12 12v-12l-23 12q-13 0 -36 -12q-109 0 -129 94l12 24v23h-12l-23 -12q0 23 -130 59q0 106 -23 106q0 12 12 12q0 22 -24 82q24 106 24 153h-12l12 23v165q0 20 317 58v-82q46 24 129 24q24 -4 24 -24q-12 -120 -12 -188v-12h59q11 0 11 12l24 -12q200 19 200 71
l23 164l-12 24q12 20 12 47h-23l11 23v106q0 20 -82 35q-129 -11 -270 -58q-129 0 -129 105l-12 83h-12q-12 0 -12 -12q-152 65 -152 294l-12 117q12 124 12 270v59l11 24l-23 11q23 43 23 94v47q0 12 -11 12l11 24v387l-11 83h11l-11 23v35q0 12 11 12l-11 24q0 58 387 58
l12 -23q-12 -64 -12 -106q11 0 94 12q47 -12 47 -71v-11q0 -12 -11 -12q0 -12 11 -12q-23 -93 -23 -223q0 -87 12 -270q-24 -248 -47 -353q11 -12 23 -141h118q26 0 82 176q0 12 -12 12l24 200h-12l12 23v670q0 27 11 47q-11 21 -11 47v12q0 18 47 47h141q82 0 258 12z
M1153 1645q0 -55 -12 -117h12q-24 -59 -24 -212v-11q0 -12 12 -12l-12 -24v-399h24v164l12 83h-12l12 23v82q0 12 -12 12l12 24v387h-12zM1376 1575v-24l-23 12h-12q-24 -167 -24 -235v-247l-11 -58h11l-11 -24q0 -12 11 -12l-11 -23q0 -68 -12 -188l12 -106
q-12 -107 -12 -235q-12 0 -12 -12h12l-12 -23v-12q0 -39 12 -59l-12 -70v-12q0 -12 12 -12l-12 -23v-153q0 -42 -12 -106q12 -15 12 -82q0 -12 -12 -12l12 -23q0 -12 -12 -12q0 -12 12 -12l-12 -58v-83q0 -11 12 -11q-12 -12 -23 -200h11q0 -270 -423 -270q-164 11 -176 23
q-117 -12 -117 -23l-59 11h-141q-24 -3 -24 -23q12 -23 12 -35h212l23 11q0 -19 82 -35q63 24 130 24l58 -12q47 12 83 12q11 0 11 -12q6 0 47 12q148 -12 177 -12q0 12 11 12v-12l24 12q12 0 12 -12q105 30 105 106q0 34 24 117q0 299 23 364q-11 21 -11 47q0 12 11 12
l-11 24q0 11 11 11q0 12 -11 12q0 10 11 94q0 21 -11 212l11 23q0 12 -11 12l23 270h-12l12 24q0 11 -12 11l12 24v12l-12 58q12 0 12 12h-12l12 24v35q0 12 -12 12l12 23v106q0 12 -12 12q0 11 12 11l-12 47q0 67 24 141l-12 71v59l12 23h-12q35 273 47 317q-12 21 -12 47
v71h-35zM554 1493h11l-11 -24v-70l11 -71q0 -12 -11 -12l11 -47q-11 -503 -23 -564q12 -22 12 -35h-12q16 -82 35 -82q27 292 47 329q0 12 -12 12l12 117v12l-12 82h12l-12 24l12 58l-12 47l12 59l-12 24l24 188q-23 11 -35 11q-47 -11 -47 -58zM1129 846v-94h24l-12 24
q12 23 12 35h-12l12 24v11h-24zM941 799v-82h12v82h-12zM612 141l-23 12h-12q-12 0 -12 -12l-23 12h-106v-94q35 0 35 -12q177 59 224 59h141v12l-12 59h-47q-12 0 -12 -12l-23 12q-130 -9 -130 -36zM1035 -105h12l-12 -24v-94h12q12 106 24 106q-12 23 -12 35l12 59
q-20 0 -36 -82zM401 -282q8 -164 35 -164h35v117l12 59z" />
    <glyph glyph-name="Z" unicode="Z" horiz-adv-x="1938" 
d="M1776 1786q38 -23 70 -23q-12 -100 -12 -153q0 -29 12 -94q0 -108 -164 -270l-177 -259q0 -21 -82 -129l-94 -141q0 -21 -129 -211q-236 -366 -423 -611l-59 -94l106 -24q232 24 258 35q64 -11 106 -11h212q11 0 11 11q12 0 12 -11l270 23q12 0 12 -12l129 24
q12 -82 24 -82l-12 -141v-318q-12 0 -12 12l-23 -12l-24 12q0 -23 -23 -23h-188q-14 0 -129 -24h-59q-27 0 -47 12q-21 -12 -47 -12h-94l-24 -12v12l-23 -12q-23 12 -35 12l-24 -12l-23 12q-9 0 -71 -12l-59 12q-11 0 -11 -12q-118 12 -118 24l-23 -12q-308 12 -353 24
q-19 -12 -59 -12h-11q-12 0 -12 12l-24 -12h-58q-59 0 -212 -35v129q0 39 12 59l-12 70v94q248 311 423 635q261 414 588 846q164 244 164 282h-12q-95 0 -223 -36l-94 24q-21 -12 -47 -12q-12 0 -12 12q-96 -35 -164 -35q-19 0 -141 11q-23 -11 -35 -11v11q-25 -9 -130 -23
v12q0 -12 -188 -24l-11 24v317l-12 70q12 16 12 83q11 0 11 -12l59 12h106q117 0 235 -24q0 12 12 12v-24h70q12 0 12 -11q24 9 129 23q62 -12 118 -12h58q12 0 12 -11l24 11h23q12 0 12 -11q43 23 94 23q35 0 35 -12l59 12h176q12 0 12 12l23 -12h118l23 12v-12
q59 24 177 35zM742 1622v-12q23 0 23 -12l24 12h129q0 24 -24 24l-23 -12l-71 12v-12l-23 12q-23 -12 -35 -12zM530 1563v-23l82 11v12h-82zM930 1504v-23h82v23q-35 0 -35 12q-21 -12 -47 -12zM248 1375v-12h71q13 0 129 24v12h-35l-24 -12q-12 0 -12 12zM1329 1034
l-59 -82v-12h24q0 22 47 94h-12zM1118 717l-71 -129h12q70 100 70 117v12h-11zM965 564q-223 -257 -294 -399h12q171 206 294 399h-12zM1059 470q0 -16 -82 -141h11q13 1 94 130v11h-23zM883 177h11l47 70v12q-42 -12 -58 -82zM483 -188q0 -23 -82 -117v-12h12q60 45 82 118
v11h-12zM1588 -258v-24h23q12 0 12 12l23 -12h24v24h-82zM706 -399h-152v-24q12 0 35 -11q23 11 35 11v-11q118 11 118 35q-12 0 -12 12zM295 -517v-23h129v12q-62 0 -105 11q0 -11 -12 -11q0 11 -12 11zM1400 -634v-24q45 12 94 12v12h-94z" />
    <glyph glyph-name="backslash" unicode="\" horiz-adv-x="1502" 
d="M483 1715q138 -251 387 -857q48 -63 106 -235l-12 -24q88 -208 118 -258l-12 -24q56 -119 82 -211q-12 0 -12 -12q13 -1 129 -317q109 -236 141 -270q0 -12 12 -35h-23l11 -23v-12q0 -24 -47 -24l12 -23v-24q-12 0 -35 -11v11l-24 -11q-12 0 -35 11q-41 -11 -47 -11
q-100 11 -152 11q0 -11 -12 -11q0 11 -12 11v-11q-41 0 -70 117q-47 59 -141 341q-200 415 -329 763q-66 113 -164 411q-121 320 -271 587q-23 60 -23 94l35 23h47q182 0 341 24zM166 1609v-12q6 -77 94 -199l-12 -24q31 -31 153 -375q8 -4 70 -118q0 -12 -12 -12l82 -199
q63 -103 130 -341q57 -75 223 -446l23 -12l-12 -23l177 -376q0 -15 70 -23v11q12 0 12 -11q73 11 164 11q-152 274 -282 705q-105 260 -223 622q-199 399 -329 740q-11 0 -58 106q-210 -24 -270 -24z" />
    <glyph glyph-name="a" unicode="a" horiz-adv-x="1512" 
d="M305 1852q158 -12 232 -37q83 13 134 13h171q28 0 49 12l24 -12q118 24 135 24q138 -12 256 -12q86 -88 86 -281q-12 -37 -25 -37q0 -13 13 -37q0 -48 -13 -48q13 -122 13 -184v-342q0 -12 -13 -12l13 -24q0 -31 -13 -98q13 -104 13 -171q0 -13 -13 -37q13 -73 25 -73
l-12 -86v-281q24 -394 24 -427v-61q0 -13 -12 -13q12 -46 49 -342h-12l12 -24v-37q-1 -16 -61 -49h-257l-85 -12q-25 43 -61 587l12 61q0 12 -12 12l12 61v220h-61q-28 0 -49 -12q-135 12 -135 24l-24 -12q-64 0 -208 -12q0 -25 -12 -25q0 -12 12 -12q0 -27 -12 -49
q24 -376 73 -831l-24 -12h-134q-122 0 -294 -12q-49 18 -49 37v97q0 74 -12 74l12 122v305q0 176 -12 477l12 24q-12 66 -12 110v196q0 12 12 12l-24 146l12 25q0 24 -12 24l12 86v110q0 12 12 12q-24 49 -24 86l12 24l-12 73q0 12 12 12l-12 62v48q0 13 12 13q0 12 -12 12
q0 501 183 501v-12zM378 1791q-13 0 -37 -12q-12 0 -12 12q-183 0 -183 -98q0 -102 -12 -110q0 -12 12 -12q-12 -165 -12 -244v-147q0 -12 -13 -12l25 -147l-12 -73v-147q0 -41 12 -61l-12 -73v-196q0 -12 -13 -12q13 -12 25 -146q0 -41 -12 -61q12 -84 12 -135v-208l12 -73
q-12 -21 -12 -49q0 -78 12 -159q-12 -117 -12 -256l24 -159h37q158 0 220 -24l49 24q0 13 -13 37l13 73q-49 387 -49 733v61q7 37 97 37h477q61 0 61 -403l-12 -61q12 -259 36 -379h-12q25 -50 25 -73h49v24q79 -24 110 -24l24 12q24 -12 37 -12q23 12 36 12v36l-36 404
q0 12 12 12q0 9 -12 73q-13 373 -13 477q0 10 13 97q-13 24 -13 37q0 12 13 12l-13 122v501q0 28 13 49q-13 21 -13 49v12q0 37 13 37l-25 183l12 73q0 28 -12 49q12 84 12 135v158q-110 13 -110 25q-12 0 -12 -12q-98 8 -98 24l-24 -12h-49q-41 0 -61 12q-43 -12 -49 -12
q-60 0 -146 12q-182 -12 -379 -12zM598 1449q13 0 36 -12l74 12h97q13 0 13 -12l24 12l110 -12q6 0 49 12q65 0 85 -171h-12l12 -25q-12 -124 -12 -195v-25q0 -12 -12 -12q24 -62 24 -269q0 -293 -36 -293q-172 -12 -293 -12h-220q-122 0 -147 49l12 61v49q0 44 -12 110
q0 12 12 12q-16 169 -24 208l12 24q-12 22 -12 49h12q0 12 -12 12l12 86v36q0 28 -12 49q24 55 24 159v37q0 61 196 61zM463 1119v-73q0 -13 -12 -13l12 -24v-147q0 -27 13 -48q-13 -24 -13 -37q13 -64 13 -73q0 -13 -13 -13l13 -61v-97q0 -25 183 -62q12 0 12 13l49 -13
q202 13 244 37q24 -12 37 -12q24 49 37 49q-17 420 -37 574q0 12 12 12q-15 132 -24 159q12 21 12 49q-12 24 -12 37q-122 0 -306 36q-207 0 -207 -98q-13 -69 -13 -195z" />
    <glyph glyph-name="b" unicode="b" horiz-adv-x="1691" 
d="M659 1845q47 -9 47 -23q106 11 106 23l24 -12h105l59 12q0 -30 59 -35v12q70 -12 70 -24l24 12q194 0 329 -223q44 -115 59 -235q0 -12 -12 -12l12 -82v-12l-12 -71q23 -38 23 -58l-11 -24q11 -23 11 -35q-39 -212 -58 -212l-106 -70q-62 0 -153 -24q56 -58 129 -58
q83 -33 165 -200q0 -35 23 -35l-11 -24q70 -189 70 -317h-12l12 -24q0 -11 -12 -11l12 -59v-35l-12 -118h12l-23 -70h11q-11 -106 -23 -106l12 -24v-11q0 -435 -341 -435q0 -35 -200 -47h-47q-411 0 -411 35q-25 -12 -129 -23q-383 27 -400 47v11q27 71 35 71l-11 23v212
q0 12 -12 12l12 23q0 12 -12 12l12 59v117q0 12 11 12q0 12 -11 12q0 21 11 282q0 95 -11 423q8 176 23 176l-12 47q0 137 12 223q-12 201 -12 411v71q0 12 -11 12l11 23q0 24 -11 24q23 145 23 293l165 36q61 -12 117 -12q12 0 12 12q12 0 12 -12q15 0 129 23l23 -11l24 11
l23 -11q47 9 47 23zM636 1739l-59 12h-117q-306 -9 -306 -59q12 0 12 -11h-12q12 -23 12 -36l-12 -47q12 -22 12 -35h-12l12 -23v-12q0 -35 -12 -35l12 -59v-35q0 -40 -12 -59q12 -106 24 -106q-12 -23 -12 -35q0 -64 12 -223l-12 -24q0 -12 12 -12l-12 -82v-94l-12 -23h12
q0 -12 -12 -12l12 -59q0 -74 -12 -176l12 -59l-12 -59q12 -20 12 -47h-12l12 -23v-82q0 -40 -12 -59l12 -71l-12 -70q12 -47 12 -82h-12l12 -24q0 -12 -12 -12l12 -58v-106l-12 -59h12q-12 -82 -24 -82q24 -73 24 -94l-12 -82q24 -141 59 -141q93 0 188 -47l141 11h82
q112 0 341 -23q482 77 482 176q44 0 82 576l-12 59q12 19 12 58h-12l12 24q0 225 -153 470q-47 43 -164 70q0 12 -12 12v-12q-100 36 -247 71v12q181 70 458 129q47 51 47 258v200q0 12 -11 12l11 23q0 231 -199 353v-12l-235 47v-12q-71 12 -71 24l-23 -12h-177
q-26 0 -47 12q-70 -12 -70 -24zM319 1563h305q116 -23 129 -23h71q23 -24 153 -36q164 -76 164 -188q0 -342 -282 -399q-30 0 -129 -35v11q-56 -20 -141 -35v12l-24 -12h-35q-12 0 -12 12l-23 -12l-24 12q-66 -35 -94 -35l-23 47q12 155 12 258l-12 24q12 20 12 47h-12
l12 23l-12 59h12l-12 23q0 12 12 12q-28 141 -47 188h11l-11 24v23zM401 1493q35 -244 35 -553q12 0 12 -11l23 11h106q12 0 12 12l23 -12q62 0 235 71l24 -12q176 59 176 188q24 0 24 118q0 133 -318 176l-47 23v-11l-94 23v-12q-82 12 -82 24q-129 -15 -129 -35zM448 564
l117 -11q0 11 12 11v-11l24 11q11 0 11 -11q23 11 36 11q231 0 458 -188q141 -139 141 -411q-96 -529 -270 -529h-247l-82 -11v11l-24 -11l-117 11q-18 0 -106 -23q-35 72 -35 94v47l11 59h-11q11 11 23 176l-12 23l24 235h-12l12 24l-12 23q0 12 12 12l-12 59v317
q0 12 -12 12q10 40 71 70zM460 353q0 -12 11 -12l-11 -82q11 -190 11 -212h-11q0 -11 11 -11l-11 -59v-165q0 -64 -12 -164l12 -24q-12 -82 -24 -82q12 -23 12 -35h305q27 0 47 12l24 -12q247 0 247 106q105 262 105 387q-32 247 -129 341q-209 141 -399 153
q-165 -16 -165 -59q-8 -82 -23 -82z" />
    <glyph glyph-name="c" unicode="c" horiz-adv-x="1574" 
d="M659 1822q23 -12 306 -36v12q313 0 364 -200q0 -35 24 -35q11 0 11 12q109 -24 118 -59v-35q0 -26 -12 -47q24 -39 24 -71h-12l12 -23q-12 -267 -12 -400q12 -146 12 -164l-47 -35h-24q-26 0 -47 11q-20 -11 -47 -11q-23 0 -23 11l-83 -11h-129q-82 0 -82 164v82
q-9 0 -71 12q12 23 12 35q0 59 -23 59q23 43 23 94h-12l12 24v23l-12 59h-47q-163 0 -211 -94v-106l-12 -59l24 -11l-12 -24v-141q0 -12 -12 -12l12 -23l-12 -47q12 -23 12 -35q-24 -39 -24 -71v-117q0 -100 -23 -153q12 0 12 -12h-12l12 -23q0 -27 -12 -47q15 -173 23 -188
l-11 -71v-94q0 -12 -12 -12q23 -88 23 -258q12 0 12 -12h-12q28 -94 153 -94h35q79 0 130 294q-36 109 -36 164q108 36 271 36q11 0 11 11q118 0 118 -94v-11h141q0 -43 12 -106q0 -30 -12 -94q12 -120 12 -188q0 -29 -12 -176l12 -24q-24 -305 -177 -305q-278 -71 -434 -83
q-456 0 -553 141q-52 60 -58 94q11 0 11 12q-37 52 -152 129q-71 133 -71 470q12 78 12 153v247q0 12 12 12q0 11 -12 11l12 141v47l-12 71q12 23 12 35t-12 12l12 59v23q0 12 -12 12l12 23v188l11 118h-11q11 35 23 35l-12 24q0 35 24 94h-12q83 634 423 634q129 0 129 24z
M1364 1493l-11 -165l11 -47q-11 -23 -11 -35h11q-9 -47 -23 -47l23 -106q-23 -54 -23 -106l-24 12q-82 0 -258 -12q8 -188 35 -188q306 0 306 59q11 21 11 47q0 124 12 376l-23 212h-36zM507 882q0 -40 11 -200q-11 -209 -11 -353h-12l12 -23v-82q0 -12 -12 -12l12 -24v-23
l-12 -24q12 0 12 -11h-12l12 -24v-35q20 -329 70 -329h12l-12 23v294q0 12 12 12l-12 23v12l12 24h-12q0 11 12 11q-16 163 -24 200q20 0 36 458h11l-11 24v23q0 12 11 12l-11 24v11l11 24h-11q0 12 11 12q-11 117 -11 176v59q45 176 141 176q0 23 164 23q0 -11 12 -11
l23 35v23l-82 12h-176q-120 0 -141 -211q0 -24 -35 -329zM1364 -47q-11 -634 -70 -634q0 -110 -552 -129q-312 47 -376 70v-12q26 -75 152 -129q130 -12 130 -35l23 12h141l24 -12v12l23 -12q187 0 458 94q106 57 106 200q0 47 24 152q-12 238 -12 329h12l-12 24v70h-71z
" />
    <glyph glyph-name="d" unicode="d" horiz-adv-x="1398" 
d="M608 1810v-12q13 0 13 12q337 0 547 -207q146 -247 146 -572v-123q0 -12 13 -36q0 -12 -13 -12q25 -98 25 -207v-146l-12 -86q12 0 12 -11h-12l12 -25v-146l-12 -24h12q0 -12 -12 -12l12 -123v-60q0 -12 -12 -12q0 -13 12 -13q-16 -125 -25 -146h13l-13 -24l13 -25
q-62 -389 -134 -389q0 -139 -670 -208h-146q-12 0 -12 13l-25 -13q-27 0 -49 13q-85 -13 -85 -24l-24 11l-73 -11v11q-24 437 -24 488v86q0 11 -13 11l13 25v24q0 12 -13 12l13 25v109q0 12 -13 12l13 25v12q0 44 -13 109q13 22 13 49q-13 24 -13 36h13q-13 21 -25 146
q12 0 12 13h-12l12 25l-12 24l12 61q0 36 -12 36l12 146v536q0 12 -12 12q20 25 49 536q48 0 48 13l62 -13h12l85 13q0 -13 12 -13q0 13 12 13v-13q81 24 268 49zM523 1579q0 -37 -12 -86l24 -12v98h-12zM937 1579l-24 -184l11 -23l-11 -25l11 -24q-11 -24 -11 -36
q11 -24 11 -38h13v123l12 23q-12 0 -12 13h12l-12 25v48l12 24h-12l12 25v49h-12zM437 1566l-11 -122v-49l-13 -23h13l-13 -25v-49q24 12 37 12v98q0 12 12 12l-12 24v122h-13zM608 1542q0 -27 -12 -49q8 -183 25 -183l-13 -23v-38q20 0 37 98q-13 73 -24 73l11 24l-11 25
h11q-11 19 -11 73h-13zM242 1493l-11 -85v-13q0 -11 11 -11l-11 -25q0 -12 11 -36l-11 -74v-48h24v48q0 28 12 49q-12 22 -12 49q0 12 12 12q-12 45 -12 134h-13zM791 1420l12 -61v-110q0 -11 -12 -11l12 -25v-280h13l11 61h-11l11 24v74q0 11 -11 11l11 25v219l12 86h-23z
M998 1274v-12h12q24 103 24 133q-24 0 -36 -121zM498 1116h25v97l12 61q-27 0 -37 -158zM998 1238q-12 -108 -12 -135v-72h12q0 18 12 170v37h-12zM730 1164v-97q24 0 24 25q-12 0 -12 11h12q-12 21 -12 61h-12zM231 1103v-49q3 -23 24 -23l-13 -25v-24q25 0 25 24l-12 48
q12 24 12 38v11h-12v-24h-13v24h-11zM608 982l13 -61v-13q0 -11 -13 -11l13 -25v-12q0 -12 -13 -12l13 -25v-12q0 -27 -13 -49q13 -11 13 -97h11v97h-11l11 25v195h-24zM730 933v-243l-12 -62l24 -12q0 12 12 12l-12 25v134l12 24h-12q0 12 12 12q-12 67 -12 110h-12z
M231 908l11 -60q0 -13 -11 -37q0 -12 11 -12l-11 -61l11 -61h13v244zM352 921v-110l-12 -24h12l-12 -25q0 -11 12 -11l-12 -61v-231q0 -28 12 -49q-12 -22 -12 -49v-61l12 -25h-12q0 -36 37 -36v-110h-25l13 -24q0 -28 -13 -49l13 -24q-13 -23 -13 -37l13 -24q0 -12 -13 -12
l13 -61v-36h24l-12 23v13l12 25q-12 0 -12 11h12q0 13 -12 13q0 23 24 85q-12 66 -12 109q12 87 12 98h-24v12h24v24h-24v-24l-25 13l25 48q-12 66 -12 109l12 74q0 12 -12 12q0 13 12 36q-12 108 -12 134l12 74q-12 66 -12 133q12 24 12 37h-25zM145 897v-135
q0 -43 12 -109q-12 -20 -12 -61h12q-12 -110 -23 -110q11 -15 11 -85h12q0 85 13 98q-13 0 -13 12h25v49q0 11 -12 11l12 25l-12 121h12l-12 25v73q0 12 12 12l-12 25l12 24q-25 0 -25 25h-12zM852 811q0 -36 -13 -36q13 -20 13 -62h12v98h-12zM1083 799v-86h12v86h-12z
M547 751v-184q25 0 25 25v85l-12 25h12q-12 21 -12 49h-13zM839 677v-170h13q0 36 12 36q-12 24 -12 37q0 15 12 122q-25 -4 -25 -25zM231 665q11 -3 11 -122h13v122h-24zM437 531l13 -61h12v25h-12l12 24v37q-25 -4 -25 -25zM1083 434v-208l-12 -60h12l-12 -25
q0 -12 12 -12l-12 -60v-98h12l12 85v49h24q0 24 -24 24l13 122v183h-25zM827 397v-25q0 -26 12 -48l-12 -24q12 -22 12 -49h13v146h-25zM1193 324l-13 -60h13l-13 -25v-36h25v121h-12zM839 226v-85h13v85h-13zM998 190q0 -85 -12 -97h12l12 25v72h-12zM219 141v-48h12
q0 37 11 85q-23 0 -23 -37zM839 129q0 -121 -12 -121q12 -21 12 -61h13v182h-13zM986 56v-182q0 -12 12 -12q-12 -85 -25 -85q13 -123 37 -123q0 110 12 110l-12 24v220q0 12 -12 12l12 24v36q-24 -3 -24 -24zM475 -126q-13 -198 -13 -220h13q-13 -61 -25 -61l12 -24v-122
q0 -27 13 -49q-13 -20 -13 -48v-37q3 -24 24 -24q0 24 12 24q0 25 -12 25l12 146v183q0 64 -12 207h-11zM754 -163q0 -13 -12 -37l12 -61l-12 -60h12l-12 -25v-110l12 -72q-12 -24 -12 -36l25 -13l11 49q0 12 -11 12l11 60v269q0 24 -24 24zM839 -248v-146h13q0 133 12 133z
M1071 -272v-13q0 -12 12 -12l-12 -24v-37q24 0 24 25v61h-24zM291 -321v-49q0 -28 13 -48q0 -13 -13 -13q13 -53 13 -182h12v219h12q-12 12 -12 97q-25 -4 -25 -24zM645 -333v-13h12l-12 -24q0 -28 12 -48q-12 -22 -12 -49l12 -25q-12 -24 -12 -36l24 -13v13h-12
q12 85 24 85q-15 110 -36 110z" />
    <glyph glyph-name="e" unicode="e" horiz-adv-x="1691" 
d="M1259 1892q20 -12 47 -12v12q11 0 11 -12l59 12q56 0 82 -94q130 -14 130 -47q-24 -104 -24 -141q12 -148 12 -176q-35 0 -35 -24q-23 12 -36 12q-170 0 -352 -23q-9 0 -71 11q-70 0 -340 -23q-46 12 -94 12q-9 -31 -24 -141q12 0 12 -12h-12l12 -24v-305q23 -27 23 -82
h71q49 0 129 11q38 -23 59 -23v-118q12 0 35 -11q12 0 12 11l59 -11h11l24 11v-11q-12 -175 -12 -235h12l-12 -24l12 -23l-12 -59l12 -47q-12 -46 -12 -94q-47 -6 -47 -35q-23 11 -35 11q-30 -18 -129 -35l-24 12h-117l11 -24v-11l-35 23h-12v-270l12 -59h-12l12 -23v-59
l-12 -24h12l-12 -23q12 -94 36 -94h164q12 0 12 -12q12 0 12 12l117 -12h12q86 0 317 35v-11l24 11h35q35 -11 35 -70q-12 0 -12 -12h12l-12 -23v-12l24 -35l59 11h82q0 -246 35 -246q0 -12 -12 -12l12 -59v-23q0 -92 -59 -118h-211q-12 0 -12 -12l-23 12l-188 -23v11
l-24 -11q-35 0 -35 11q-89 -11 -118 -23q-63 12 -105 12q-108 0 -306 -24v12l-23 -12h-282l-24 12l12 82v59q0 23 -141 35q0 24 -12 24q12 35 24 35l-12 23l12 24h-12q17 37 35 164l-12 24v117q0 12 -11 12q23 54 23 106h-12l12 23v470l-12 24h12l-12 23v282q0 12 -11 12
l23 59q0 12 -12 35q12 64 12 106v12q0 11 -12 11l12 24v59q0 11 -12 11q12 15 24 165q-12 165 -12 282q12 0 12 12h-12l12 23v71q0 11 -12 11l12 24q0 12 -12 12l12 23l-12 24h12q-15 114 -35 176l11 23l-11 24l23 82h-12q12 23 12 35h24q293 0 293 24q60 -24 212 -24
q12 0 12 12l47 -12q564 26 564 59zM1447 1728l-12 -59v-94q-445 -12 -576 -35q-21 11 -47 11q-23 -11 -35 -11v11l-71 -23q-22 12 -35 12q0 -12 -12 -12v12l-23 -12q-84 12 -94 12l-59 -12v-35q0 -43 12 -106q-12 -21 -12 -47h12l-24 -129q15 -353 36 -353q20 -12 47 -12h11
q0 24 12 24l-12 23v141q0 27 -11 47l11 24q-11 120 -11 188v70q0 40 -36 83q0 29 47 35q47 0 153 -24l24 12q12 0 35 -12q595 27 717 47q0 31 23 118h-12l12 23v71l-59 12h-11zM906 600l12 -71q-12 -164 -24 -164l12 -24q0 -23 -23 -23q-43 0 -106 11q-12 0 -12 -11l-59 11
h-94l-58 -11v11q-47 -17 -47 -35q0 -59 23 -59l-12 -23v-35q0 -76 12 -153l-12 -71q0 -11 12 -11l-12 -59v-71q0 -11 12 -11l-12 -24q0 -12 12 -12l-12 -58q0 -27 12 -47l-12 -24q18 -47 36 -47h23q24 0 24 24q0 54 -24 329q12 0 12 11q-12 0 -12 12q12 0 12 12
q-12 0 -12 12h12l-12 23v82q0 60 -23 141q23 0 23 24q82 -24 141 -24h165q52 47 82 47l-12 59q24 0 24 24v58q0 12 -12 12q12 94 23 94l-11 24q11 35 23 35q-12 23 -12 35h-58q-24 -4 -24 -23zM624 -493v-12h94v24q-65 -12 -94 -12zM1423 -599l24 -200q-12 0 -12 -11h12
q-12 -23 -12 -36h-12v24q-23 -12 -35 -12q-39 24 -71 24q-47 -3 -47 -24q-11 0 -11 12l-141 -12h-12q-27 0 -47 12l-24 -12q-26 0 -47 12q-100 -12 -164 -12h-141l-71 -12q-94 12 -94 24l-23 -12h-82q-118 0 -118 -35l-12 -82h130l23 11v-11l24 11h11q12 0 12 -11l24 11h82
l59 12q0 -12 11 -12v12l24 -12h23l24 12v-12l23 12l47 -12q62 12 118 12v-12l23 12h36q11 0 11 -12q49 12 376 47q12 0 12 -11q153 11 153 35v23l-24 36h12q0 11 -12 11q0 9 12 71q-9 141 -35 141zM448 -634h12q22 12 35 12v-12q20 12 47 12v11h-71q-23 -3 -23 -23z" />
    <glyph glyph-name="f" unicode="f" horiz-adv-x="1362" 
d="M1271 1786q23 -11 36 -11v-86q0 -78 12 -242h-133q-28 0 -48 -11q-13 0 -13 11l-60 -11q-13 0 -37 11l-72 -11h-24q-13 0 -13 11l-23 -11h-61l-85 11v-11l-24 11h-36l-24 -11v11l-25 -11h-158q0 -77 13 -400q0 -32 -24 -145q11 -24 11 -36h-11q8 -146 60 -146q12 0 12 12
l61 -12q97 0 97 24q24 -12 36 -12q24 12 36 12v-12q37 12 37 24l60 -24h37l24 -72q-19 -28 -36 -146q12 -66 12 -109v-61q-87 -11 -97 -11q-12 0 -12 11q-223 -23 -267 -48v-218l-11 -73l11 -23l-11 -25q8 -85 23 -85l-12 -60v-109q0 -12 12 -12q-12 -61 -23 -61l11 -23v-97
q0 -41 12 -61l-12 -73v-121q-36 0 -36 -12q-24 12 -36 12q-109 -8 -109 -24q-13 0 -13 12l-60 -12h-12q-12 0 -12 12q-21 -12 -146 -24l-36 60v134q0 11 13 11l-13 25v145q0 13 -12 13q12 133 25 133q0 12 -13 12l13 60q-13 64 -13 73h13q-13 24 -13 36q0 129 13 181
q-13 149 -13 291v85q0 50 13 133l-13 24q13 103 13 170v72q0 12 11 12l-11 25v108q0 28 -13 49q24 67 24 339v37q0 11 12 11l-12 25q0 278 73 278q64 12 472 25l158 -25q29 0 206 25q19 -13 60 -13v13l24 -13q24 13 36 13v-13l25 13h108q13 0 13 11zM205 1689l-23 13
q-18 0 -38 -73l13 -60v-146l12 -60h-12q0 -13 12 -13q-29 -230 -36 -230l11 -23q13 -221 13 -279l-13 -24l13 -25l-24 -266q0 -12 11 -12l-11 -85v-12l11 -120h-11l11 -25v-109q0 -12 -11 -12l11 -24v-85q0 -28 -11 -48q11 -22 11 -49q0 -12 -11 -12l11 -24v-218
q0 -13 -11 -13l11 -23v-49q0 -28 -11 -48l11 -25q0 -11 -11 -11q24 -194 49 -194h36q12 0 12 11q36 -11 36 -23q97 12 97 23l24 -11q39 24 60 24v230l13 24h-13l13 24v97q0 12 -13 12l13 25v24q0 12 -13 12l13 24l-36 134q23 46 23 132v24q0 184 -36 231q0 25 61 48l24 -12
h61q12 0 12 12l24 -12q242 17 242 85v206h-13q-108 -8 -108 -25l-24 12l-24 -12l-25 12q-42 -12 -48 -12l-85 12q-36 -12 -36 -23q-50 23 -73 23v13q0 12 12 12l-12 24q0 13 12 36q-12 66 -12 109v36q0 12 12 12l-12 25v60l12 61h-12l12 24v49q0 55 -24 193h12
q-12 133 -24 133q6 97 49 97q181 -3 181 -25l61 13h436l145 12l-37 194l-24 -12h-170q-108 0 -205 -24q-24 11 -37 11v-11q-31 21 -291 36q0 12 -11 12l-25 -12q-12 0 -36 12q-206 -12 -206 -37z" />
    <glyph glyph-name="g" unicode="g" horiz-adv-x="1433" 
d="M753 1869q30 0 94 -12l71 12q352 -64 352 -212q31 0 59 -200q0 -11 -12 -11q24 -159 24 -341q12 0 12 -12h-12l12 -23v-36q0 -11 -12 -11q0 -12 12 -12q0 -100 -47 -141q-13 0 -36 12q-258 -24 -258 -36q-47 12 -94 59q23 72 23 94q-11 0 -11 12h11l-11 23v24q0 12 11 12
q-11 22 -11 35q11 23 11 35q-11 0 -11 12h11q-35 294 -82 294l-94 47q-174 -36 -223 -118q-129 -183 -129 -493h11q-11 -106 -23 -106l12 -24v-23q0 -27 -12 -47l12 -24q0 -11 -12 -11l12 -118v-47q0 -12 -12 -12l12 -23v-12q0 -135 11 -411h-11q23 -54 23 -118l-12 -23
q12 -21 12 -47l-12 -24q47 -199 141 -199q0 -12 12 -12h71q11 0 11 12q12 0 12 -12q200 44 200 141q12 106 23 106q0 11 -11 11l11 59v24q0 11 -11 11q0 12 11 12q0 42 -35 82l-23 -11q-43 23 -94 23l-24 -12l-23 12q-22 0 -94 -23v11l-24 -11h-23q-17 0 -36 35
q9 153 24 153l-24 235q6 0 47 11q125 0 764 36l12 -59v-94l-12 -59h12l-12 -23q0 -12 12 -12q-24 -137 -24 -200l12 -23l-12 -71v-117q0 -36 12 -36l-12 -58v-376q-62 -130 -188 -130h-11q-27 0 -47 12q-94 -47 -400 -47v-12l-23 12q-12 0 -12 -12q-341 0 -458 94
q-45 56 -106 188v12q0 108 -12 306l12 23q-12 21 -12 47v71q0 11 12 11l-12 24v82q0 12 12 12q0 12 -12 12l12 58v212q0 12 -12 12l12 23v47q0 12 -12 12l12 23q-12 209 -12 341h12l-12 24v188l12 70q0 12 -12 12q78 625 341 681q173 56 270 71v-12q35 24 82 24zM530 1751
h12q64 12 94 12v23h-35q-71 -7 -71 -35z" />
    <glyph glyph-name="h" unicode="h" horiz-adv-x="1374" 
d="M859 1833q194 -11 294 -11h141q-17 -197 -35 -247l11 -24q0 -12 -11 -35l11 -70v-12q0 -12 -11 -12q0 -12 11 -12l-11 -58v-141q0 -24 -24 -24l12 -59q0 -53 -12 -270h-12l12 -23v-83q0 -11 -12 -11q0 -12 12 -12q-23 -174 -23 -212l11 -58q-7 -106 -23 -106l12 -24
q0 -26 -12 -47q12 -63 12 -105v-59q-24 -84 -24 -94q12 -148 12 -176q-24 0 -35 -141q11 -21 11 -47h-11l11 -24v-23q0 -92 -11 -165l23 -176q-317 -12 -341 -24v24l12 59h-12q9 14 24 164h-12l12 24v47q0 11 -12 11l12 24v12q0 26 -12 47l12 23q-12 23 -12 35q12 0 12 12
h-12l12 24q0 11 -12 11l12 83v82q0 12 12 12q0 129 -83 129h-23q-139 0 -282 -24q0 -163 35 -282l-12 -23v-24q0 -11 12 -11l-12 -24v-376q-352 -35 -458 -82q0 12 12 12q12 217 12 317v235q0 12 11 12l-11 23v212q0 11 -12 11l12 24q0 12 -12 12l12 23v47l-12 24h12l-12 23
v176q0 12 12 12q-12 23 -12 35t12 12l-12 59v59l12 117h-12l12 24v47l-12 23h12l-12 24v82l-12 59h12q0 11 -12 11q12 141 24 141l-12 24q0 12 12 12l-12 58q0 160 12 553q11 22 11 35h165q12 0 12 12l23 -12h24q171 23 188 23q23 -3 23 -23v-24q0 -26 -12 -47
q12 -20 12 -47v-47l-12 -23h12l-23 -118q11 -20 11 -47v-47q0 -26 -11 -47q11 -22 11 -35q-11 -64 -11 -94h11l-11 -23q-12 -198 -12 -306v-47q0 -12 12 -12l-12 -23v-388l12 -59h35l59 12v-12q199 40 199 47l24 -11q23 11 35 11q24 249 24 294l-12 59q12 23 12 35h-12
q20 62 35 317l-12 24q9 70 24 70q-9 47 -24 47q12 23 12 36l-12 105h12l-12 24v176q0 12 12 12q-33 78 -47 258zM354 1669v-12l12 -23q-12 -21 -12 -47q0 -12 12 -12l-12 -24v-47l12 -23q-12 0 -12 -12l23 -12q0 83 12 83l-12 23v106h-23zM272 1481v-259h11q0 68 12 83h-12
l12 23v35q0 12 -12 12l12 24v23l-12 59h-11zM424 1246q0 -71 -11 -71l11 -23q-11 -65 -11 -94h11l-11 -24v-117l-12 -82h12l-12 -24v-59h12l35 341q-12 40 -12 153h-12zM1035 1081v-117q0 -42 -11 -106q11 -17 11 -70h12l12 58v47l-12 141q12 0 12 12h-12l12 24v11h-24z
M154 1011q0 -12 12 -12l-12 -82v-341q24 0 24 24v270q0 12 11 12q-11 129 -35 129zM1000 682v-82l24 -12q-12 45 -12 94h-12zM272 588v-24q0 -96 -12 -188q12 -77 12 -152h23v47q0 11 -12 11l12 24v258q0 24 -23 24zM1059 -258v-82h12l11 58q0 24 -23 24z" />
    <glyph glyph-name="i" unicode="i" horiz-adv-x="716" 
d="M401 1880h12q27 0 35 -82h-12q12 -23 12 -35q110 23 176 23v-47q0 -39 -12 -58l12 -71v-12l-12 -23h12q0 -12 -12 -12l24 -188q-12 -156 -12 -258h-12l12 -24v-176q0 -39 -12 -59l12 -70v-59q0 -141 -23 -141l11 -24v-82l-11 -59h11l-11 -23l11 -24q-23 -3 -23 -23v-188
q0 -27 12 -47q-16 -121 -24 -176q12 -47 12 -83q0 -49 -12 -129q0 -9 12 -70q-12 -164 -24 -224h12l-12 -23v-118q0 -23 -23 -23h-59q-99 0 -294 -12q-11 82 -23 82l12 24v12q0 26 -118 35v258l12 59q-12 0 -12 12q12 0 12 12h-12l12 23v259q0 110 12 223q-12 52 -12 188v35
l12 24h-12l12 23q0 13 -12 35l12 71h-12l12 23v224q0 11 -12 11l12 24v352q0 12 11 12q0 12 -11 12l11 59v70q0 27 -11 47q0 12 11 12l-23 211q0 12 12 12l-24 165h24q55 0 117 -12q94 23 200 23zM436 1469q9 -47 24 -47l-12 -23v-106l-12 -118h12q-12 -22 -12 -35
q0 -141 -12 -811h12l-12 -23v-24q0 -11 12 -11l-12 -24v-82q0 -49 -11 -129q11 -23 11 -36h-11q0 -11 11 -11q-11 -130 -23 -130l12 -58v-94q0 -100 -12 -294q12 0 12 -12h-94l-24 12v-12l-23 12h-24v-24q0 -11 12 -11l-12 -24q4 -23 24 -23h11q12 0 12 11q43 -23 94 -23
q103 0 129 59q0 35 -11 35q0 12 11 35l-11 376q0 60 11 376h-11l11 24v129l12 23h-12q24 51 24 188v36q0 26 -12 47l24 129h-12q0 12 12 12l-12 58v224q2 293 23 293q-20 69 -35 165l12 23v24q0 12 -12 12q0 11 12 11l-12 59v35h-12q-70 0 -70 -105q0 -115 -12 -118z" />
    <glyph glyph-name="j" unicode="j" horiz-adv-x="1421" 
d="M1012 1822h12l23 -12v12q12 0 12 -12l141 12l141 -12l-12 -24v-35q0 -49 -12 -129q0 -12 12 -12l-12 -59v-834q0 -12 12 -12l-12 -23v-118q0 -26 -11 -47q0 -11 11 -11l-11 -83v-246q0 -27 -12 -47q12 -23 12 -36h-12q0 -11 12 -11q-38 -436 -83 -611q-26 0 -58 -106
q-72 -94 -447 -106q0 -12 -70 -12h-47q-12 0 -12 -11l-24 11q-22 -11 -35 -11v11l-23 -11l-24 11v-11l-23 11h-12l-24 -11v11l-23 -11l-24 11q-41 -11 -47 -11q-117 40 -117 82l-24 -12q-117 100 -117 329v106q0 12 -12 12q0 11 12 11l-12 59q0 27 12 47l-12 71q0 11 12 11
l-12 59v200l12 82h-12l12 24q0 35 -12 35q0 188 94 188q47 0 47 12q12 0 12 -12l117 12h94q0 -142 -23 -670q44 -235 164 -235q0 -10 106 -35q120 0 200 117q70 208 70 400v70q0 12 12 12q0 12 -12 12l12 58q0 27 -12 47q12 23 12 36q0 11 -12 11l12 59v153q0 12 -12 12
l12 23l-12 59h12l-12 23v59q0 12 12 12l-12 23v12q0 12 12 12l-12 23l12 59h-12l12 24q-35 274 -35 470v305q0 12 -12 12q0 106 106 106zM1118 1739v12l-24 -12h-23q-27 0 -47 12q-23 -12 -36 -12v-82l-11 -59q11 0 11 -11h-11l11 -24v-47q0 -12 -11 -12l11 -23v-47
q0 -12 -11 -12l11 -23v-24l-11 -70q11 -23 11 -36q-11 -22 -11 -35l11 -23q0 -12 -11 -12q11 -49 35 -282q-12 0 -12 -12h12q-12 -23 -12 -35l12 -82h-12l12 -24v-117q0 -91 12 -165q-12 -57 -12 -153q0 -11 12 -11l-12 -59v-153q0 -12 -12 -12q0 -11 12 -11
q0 -242 -118 -447q-43 -55 -105 -94h-118q-121 0 -176 35q0 -11 -12 -11q0 27 -117 117q-24 103 -36 247q24 344 24 576h-12q-43 -24 -94 -24h-82q-20 0 -35 -59h11l-11 -23v-188q0 -12 -12 -12l12 -23q0 -27 -12 -47q12 -100 12 -165v-23q0 -12 11 -12l-11 -24v-105
q0 -12 11 -12q0 -12 -11 -12l11 -82v-35q0 -12 -11 -12l11 -24v-47q0 -229 259 -270h12l23 12q23 -12 35 -12q0 12 12 12v-12l24 12q11 0 11 -12l24 12q12 0 12 -12l58 12q431 16 470 82q130 168 130 541v11l11 24q-11 0 -11 12h11l-11 23q23 43 23 94v118l12 23h-12l12 24
v540q0 65 -12 165q12 19 12 58l-12 24q12 20 12 47v35l-12 24h12l-12 23l12 24l-12 70v12q0 12 12 12l-12 23v12l12 23h-12l12 24v94q0 152 35 270q-39 0 -59 12q-80 -12 -105 -24z" />
    <glyph glyph-name="k" unicode="k" horiz-adv-x="1573" 
d="M365 1809h153q0 -24 12 -24q-12 -82 -24 -82l12 -23q-23 -48 -23 -71q11 -23 11 -35q-11 -21 -11 -47h11l-11 -24l11 -58h-11l11 -24v-35l12 -141h-12l12 -23v-24q0 -12 -12 -12l12 -23l-12 -59l24 -211h23q263 404 494 681q107 173 129 176q86 -59 294 -94
q-109 -120 -353 -470q-109 -168 -258 -364q-47 -158 -47 -200q25 -70 70 -129q235 -432 376 -763q124 -229 235 -400q-12 -20 -12 -47q-239 -11 -458 -58q-60 64 -176 446q-20 0 -59 153q-34 3 -141 317l-82 188h-23l11 -24l-11 -70q0 -12 11 -12l-11 -23v-12q0 -27 11 -47
q0 -12 -11 -12l11 -117v-294q0 -258 24 -411h-12l12 -24v-23q-279 -24 -505 -24q0 12 -12 12q23 128 23 188l-11 118h11q0 11 -11 11q-12 515 -12 764v152q0 12 12 12l-12 24v246l12 141q-12 0 -12 12h23v12q0 12 -11 12q11 58 23 58q-12 23 -12 36q12 22 12 35h-12l12 23
v47q0 12 -12 12l12 24v117q0 12 -12 12l12 23v94q0 12 -12 12l12 23l-12 24h12l-12 23q0 12 12 12l-12 24v23q0 39 12 59l-12 70v83q150 35 282 35zM377 1750q-12 -23 -12 -35q0 -29 12 -176h12q0 53 12 70l-12 71v11l12 24q-12 0 -12 12q12 0 12 11zM260 1727l11 -83v-35
q0 -12 -11 -12q11 -22 11 -35h12v176zM377 1515v-141h12v141h-12zM260 1445v-94h11q12 83 12 94h-23zM260 1339v-188l-12 -59h12l-12 -23v-94q0 -12 12 -12l-12 -23v-153q0 -12 12 -12l-12 -23v-83q20 0 35 71h-12l12 23v177q0 26 -12 47q12 20 12 47v11q0 12 -12 12l12 24
v82q0 12 -12 12l12 23v35l-12 71q12 23 12 35h-23zM354 775l-12 -59v-11q0 -12 12 -12l-12 -24v-47h12q0 23 23 83q-12 17 -12 70h-11zM871 82v-23q152 -342 152 -365h12v47q-102 248 -164 341zM1011 -59q118 -313 118 -341h23l-117 341h-24zM412 -71l-11 -58h11l-11 -24
v-12l11 -58h12q0 35 12 82h-12l12 23q-12 21 -12 47h-12zM835 -153q80 -200 94 -200v12q-32 115 -94 188zM295 -270v-130q4 -23 23 -23v106l-11 23q11 0 11 12zM401 -306v-35q3 -23 23 -23v82q-23 -4 -23 -24zM1223 -376v-35q73 -179 117 -247h36v12q-111 152 -141 270h-12z
" />
    <glyph glyph-name="l" unicode="l" horiz-adv-x="1514" 
d="M201 1844l23 -12h24q26 0 47 12l23 -12q81 12 130 12q70 0 70 -106v-47q-12 -22 -12 -35q104 12 130 12l58 -71l-11 -23v-47l11 -59l-23 -12l35 -82l-23 -47q-12 -417 -12 -599q0 -12 12 -35q-12 -21 -12 -47q0 -12 12 -12q0 -12 -12 -12q23 -88 23 -164v-47l-11 -59
q11 0 11 -11h-11q11 -23 11 -36q0 -11 -11 -11l11 -59v-59q0 -49 -11 -129q11 -21 11 -47q-8 -71 -23 -71q0 -117 59 -117q26 0 47 -12l234 47q21 -12 47 -12q0 12 12 12v-12q64 24 165 24q35 -38 35 -106h12l141 12v-35q0 -110 11 -200q-23 -157 -23 -223l-24 12l-23 -12
v23q-12 0 -12 -11l-59 11h-35l-82 -23v12l-24 -12l-23 12q-13 0 -35 -12l-59 12l-164 -24l-24 12l-188 -24q-23 12 -35 12q-23 -12 -35 -12v12l-24 -12l-47 12l-59 -12l-23 12q-23 -12 -35 -12l-47 12q-39 -23 -59 -23l-35 47l11 23q0 98 -141 106q-11 94 -23 94l12 23v82
q0 36 11 36q-23 132 -23 411q0 12 12 35q-12 35 -24 35q0 12 12 12q-12 277 -12 411v200l12 70q-24 130 -35 130q0 11 11 11q-11 118 -11 177q0 29 11 94l-11 23q11 21 11 47h-11l11 23v247l-11 59h11q0 12 -11 12l11 58v12l-23 35v12q0 9 35 35l24 -11q82 0 82 23z
M483 1468q12 -23 12 -35h-12l12 -24q-12 -61 -12 -70l12 -24q-12 -20 -12 -46l12 -83h-12q12 -70 23 -70l-11 -24l11 -23h-11l11 -24v-23q0 -12 -11 -12l11 -23l-11 -24l11 -23q-11 -21 -11 -47h11q-11 -23 -11 -36q11 -104 11 -129h-11l11 -23v-529q0 -65 12 -164
q-12 -23 -12 -36q12 -20 12 -47h-12l12 -23v-12l-23 -82l23 -12h59q0 13 12 35q-24 0 -24 24v12q27 0 47 141q0 11 -12 11l12 59v329q0 12 12 12l-12 23v35q0 12 12 12l-35 176q11 64 11 106v165q0 11 -11 11l11 24q0 12 -11 12q23 94 23 199v24q0 12 -12 12q12 22 12 35
l-12 23q10 47 24 47l-24 71q0 11 12 11l-12 83v82q0 23 -23 23q-79 0 -94 -129zM365 1562v-235h12l12 59v35q0 12 -12 12l12 23v12l-12 24q12 0 12 11h-12l12 24v12q0 23 -24 23zM213 1257q0 -67 -24 -129q12 0 12 -12q-12 0 -12 -12h12l-12 -23v-71q24 0 35 118l-11 23
q0 9 11 71v35h-11zM1270 -329q0 -64 -24 -200h-70q-12 0 -12 -11q-59 11 -59 23l-23 -12q-12 0 -12 12l-59 -12h-11q-27 0 -47 12q-23 -12 -36 -12l-23 12q-49 -35 -294 -35h-141q-129 0 -129 -35l24 -59q11 0 11 12l59 -12h82q12 0 12 12l24 -12h11q124 0 376 12
q0 11 12 11v-11l23 11h177q13 0 129 24h59l23 -12q12 71 24 71q0 11 -12 11l12 59v35q0 118 -24 118l12 23v12z" />
    <glyph glyph-name="m" unicode="m" horiz-adv-x="2360" 
d="M2092 1821h176q0 -24 12 -24l-12 -23v-118q0 -12 -11 -12q0 -11 11 -11l-11 -83v-23q0 -12 11 -12l-11 -23v-247q0 -12 -12 -12q0 -11 12 -11q-36 -279 -36 -365v-82l-11 -59q11 0 11 -11h-11l11 -24v-35q0 -12 -11 -12l11 -23v-588q0 -11 -11 -11l11 -24q0 -12 -11 -12
l11 -82v-235q0 -12 12 -12q-12 -93 -23 -93l11 -59v-176q0 -83 -129 -83l-59 12h-141l-82 -12v12q0 56 12 270l-12 59q12 0 12 12h-12l12 23q0 129 23 470q-11 135 -11 259v11h-12l-153 -458q-85 -369 -152 -493q-64 0 -106 188q-45 56 -200 434q-113 325 -340 776h-24
q12 -148 12 -177h-12l12 -23v-82q0 -40 -12 -59l12 -70v-165q0 -12 -12 -12l12 -23v-71q3 -199 23 -199q-11 -23 -11 -36q0 -143 23 -270q0 -12 -12 -12l12 -82q0 -49 -12 -129q12 -59 24 -59q0 -22 -35 -70q-179 12 -259 35h-59q-11 0 -94 -23h-70q-85 0 -282 -47
q-21 11 -47 11v12q0 174 12 470h-12l12 23v24q0 12 -12 12q12 22 12 35q-12 23 -12 35q12 0 12 12h-12l12 23v106q0 12 11 12l-11 23v153l11 71l-11 23q11 65 11 94l-11 47l11 24q-11 22 -11 35h11l-11 23v212q0 11 -12 11l12 24q0 35 -12 35q12 117 12 176v329q0 12 11 12
l-11 23v282l11 71q-11 23 -11 35q11 23 11 35h24q129 0 317 36v-12l24 12q245 11 399 11h35q37 -2 82 -129q15 0 24 -47h-12q156 -421 259 -611q28 -94 58 -94l-11 -23q80 -150 94 -212q74 -204 105 -223q0 118 12 118l-12 23q12 23 12 35h-12q68 228 106 564q-12 0 -12 12
q36 0 36 59h-12q12 37 47 352v82q0 12 -12 12q24 39 24 71l23 -12q23 12 35 12q0 -12 12 -12q0 35 117 35q23 -12 36 -12v12l23 -12q125 36 188 36zM2069 1738l-12 -82v-12h12q23 75 23 94h-23zM483 1691q23 -87 23 -117l-11 -24q11 -22 11 -35h-11l11 -23v-188l12 -141h-12
q12 -25 24 -106h12v82q0 27 -12 47l12 24q-12 197 -12 305v165l-12 23q-23 -12 -35 -12zM1845 1703q0 -31 -47 -188h12q-12 -25 -23 -106l23 -11q12 112 24 129h-12q35 59 47 176h-24zM154 1609q0 -10 -12 -282h24q11 176 11 259v23h-23zM260 1609l-12 -59v-23q0 -32 23 -71
q-23 -38 -23 -70q12 -84 12 -94h11l12 117v200h-23zM612 1609l-12 -82q24 0 24 23v59h-12zM1857 1374v-12h12q0 21 23 71h-11q35 92 35 117v24q-24 0 -59 -200zM835 1503v-23q18 -129 47 -129v11q0 59 -23 59l12 24q-16 58 -36 58zM330 1362l12 -23v-35q0 -12 -12 -12
q12 -21 12 -47h12v129zM1787 1374q0 -35 -12 -82q23 0 35 82h-23zM683 1245l-12 -59v-47q0 -11 12 -11l-12 -24v-164q0 -66 23 -177h12v294l-12 71q12 19 12 58l-12 59h-11zM906 1045v-23q27 -71 47 -71q-36 66 -36 94h-11zM342 998v-188q-12 0 -12 -11l24 -12v211h-12z
M1763 869q0 -17 -23 -106v-11h12l23 105v12h-12zM777 658l-12 -59q3 -24 23 -24v83h-11zM671 505v-94q23 0 23 24h-11l23 70h-35zM448 423q-12 -118 -12 -176v-47q23 0 23 23v200h-11zM1928 411q0 -136 -12 -188l12 -23q-12 -21 -12 -47v-24l12 -23h-12q0 -12 12 -12
l-12 -47q12 -81 12 -129q-12 0 -12 -12l23 -12q0 96 12 153q-12 19 -12 59l12 23q-12 21 -12 47h12l-12 24v11q0 40 12 59l-12 71v11q0 12 12 12q-12 21 -12 47h-11zM671 329v-188q23 0 23 23h-11l11 24v12q0 26 -11 47q11 20 11 47h-11l11 23v12h-23zM260 235v-200
q0 -59 11 -176h12v59l-12 23l12 24q0 11 -12 11l12 59q0 27 -12 47l12 24q-12 20 -12 47h12q-12 15 -12 82h-11zM1282 176v-12q35 -85 35 -105h23v23zM2057 12q0 -43 -12 -106l24 -12v118h-12zM1916 -129v-130l-12 -23h12l-12 -24q0 -11 12 -11l-12 -24v-82h24q0 59 11 59
q0 11 -11 11l11 59v165h-23zM706 -235v-118h12v118h-12zM495 -247q0 -53 -12 -70h12l-12 -24v-282h12l11 59q0 12 -11 12l11 23v282h-11zM389 -329v-12q0 -12 12 -12q-24 -48 -24 -70q12 -23 12 -35h12q0 49 11 129h-23zM2033 -400v-211h12q0 22 24 94q-12 21 -12 47l12 59
l-24 11h-12zM706 -435l12 -82h12v82h-24z" />
    <glyph glyph-name="n" unicode="n" horiz-adv-x="1550" 
d="M1411 1797h47q0 -23 12 -23l-12 -59v-270q0 -12 -12 -12q0 -12 12 -12l-12 -82v-235q0 -12 12 -12l-12 -23v-47q0 -39 12 -59q-12 -219 -35 -376h11q-11 -23 -11 -35q4 -223 23 -223l-35 -235q12 -21 12 -47q0 -13 -12 -35l12 -71v-23q0 -12 -12 -12l12 -24v-446
q0 -26 -12 -47q12 -20 12 -47q-12 -23 -12 -35q-69 0 -423 -24q-59 227 -117 317q-341 1057 -412 1222q-23 -4 -23 -23q0 -12 12 -12l-12 -59v-141q0 -50 23 -258h-11l11 -24v-11q0 -12 -11 -12l11 -24v-188q4 -82 24 -82q-12 -106 -24 -106q0 -11 12 -11l-12 -83v-58
q4 -24 24 -24q-12 -94 -24 -94q12 -23 12 -35l-12 -59h12q-12 -22 -12 -35l12 -23l-12 -24q12 -65 12 -94q-38 -59 -211 -59q-82 24 -141 24h-47q0 47 -12 47l12 23q0 12 -12 12l12 24v105q0 12 11 12q-11 117 -23 117l12 24v70q0 12 -12 12l12 24q-12 246 -12 340h12
q-12 23 -12 36q0 30 12 317h11l-11 23l11 71q-23 38 -23 70v59q0 12 12 12l-12 23v141q0 12 12 12l-12 23v118q0 82 12 258h-12l12 24v188q0 11 11 11l-11 24q0 12 11 12q-11 117 -23 117q0 28 82 59q4 -24 24 -24h82q12 0 12 12q22 -12 35 -12q47 0 176 24q12 0 12 -12
l59 12h58q37 -11 83 -129h-12q96 -371 141 -482q117 -394 164 -470q0 -6 82 -258q24 0 36 141l-24 117q12 0 12 12h-12l12 23q-12 235 -12 353l-12 23l12 24l-12 59l12 23q-12 21 -12 47h12q-14 19 -23 117l11 47q-11 23 -11 36q11 20 11 47h-11l11 23v106q0 12 12 12
q-15 135 -35 152q23 0 23 47q235 12 353 12zM1176 1703l-24 12h-35v-423l12 -23h-12q12 -12 24 -200l-12 -118q12 -20 12 -47h-12q20 0 35 -446l-35 -211q12 -23 12 -36q-12 -20 -12 -47q-200 317 -200 435q-40 24 -117 282q-24 0 -35 129q-65 133 -94 247h11
q-99 368 -141 387l-82 12q-31 0 -317 -23v-12q-12 -405 -12 -423q-12 0 -12 -12h12l-12 -23q0 -12 12 -12l-12 -59q0 -35 12 -35l-12 -117v-83q0 -68 12 -188l-12 -23q16 -188 24 -211l-24 -130h12l-12 -23v-24q0 -11 12 -11l-12 -24v-47l12 -70q-12 -20 -12 -59h12
q0 -12 -12 -12l24 -235q-12 0 -12 -12h12q0 -11 -12 -11l12 -59v-294l12 -58q138 -12 199 -12h12v70q0 27 12 47q0 12 -12 12l12 141v70q0 12 -12 12l12 24q0 12 -12 35l24 106q-12 208 -12 352v35q0 12 12 12l-12 24v58q0 12 12 12l-12 24q0 11 12 11q-24 46 -24 129v59
q0 12 -12 12q24 43 24 94v23q0 68 -12 83q12 63 12 105v188h23q111 -310 177 -411l152 -458q-11 0 -11 -12q32 0 164 -446q126 -319 176 -388l24 12l58 -23q181 0 188 70v24q-11 20 -11 47h11q0 11 -11 11l11 59v141q0 35 -11 35l11 59v282q0 210 24 270l-12 71v70
q0 12 -12 12l12 23q12 204 12 329h12l-12 24q12 22 12 35h-12l12 23v224l-12 23h12l-12 24l12 23h-12l12 24l-12 23h12l-12 23q0 12 12 12q0 12 -12 12q12 153 23 153l-11 23v24q0 11 11 11l-11 24v70q0 12 11 12q-23 48 -23 71h-47q-141 -3 -141 -24z" />
    <glyph glyph-name="o" unicode="o" horiz-adv-x="1432" 
d="M659 1797v-12l24 12h58q27 0 47 -12l24 12q348 0 387 -94q67 -99 106 -376h-12q12 -23 12 -35q0 -97 24 -247q0 -11 -12 -11l12 -59v-82q0 -12 -12 -12l23 -71l-23 -11q23 -39 23 -71v-47q0 -26 -11 -47q11 -20 11 -47v-82l-11 -24h11q0 -11 -11 -11q11 -141 23 -141
l-12 -24q0 -35 12 -35q-16 -157 -35 -211q0 -12 12 -12q0 -501 -106 -670q-21 0 -141 -70h-24q-22 12 -35 12v-12l-23 12h-24l-70 -12l-24 12q-132 -21 -329 -36q-352 36 -352 106q-62 0 -118 235v129l-11 24h11l-11 23v94q0 27 11 47q-11 21 -11 47v82q0 12 -12 12l12 24
q0 35 -12 35q12 45 23 247q-11 110 -11 211h11l-11 23q0 49 23 200q-12 23 -12 35h12l-12 24v59l12 23h-12l12 24v152q0 55 47 282h-12q0 251 294 341q82 0 235 35zM130 893q12 -196 24 -212q-12 -20 -12 -47v-35q0 -12 12 -12l-12 -23l12 -118q-12 0 -12 -11q12 0 12 -12
h-12q0 -12 12 -12l-12 -59v-176l-12 -23h12l-12 -24v-23q0 -12 12 -12l-12 -24l24 -141h-12l12 -23v-47q0 -27 -12 -47q33 -435 282 -435v12q12 -12 141 -23v11q68 -23 294 -23q228 32 258 70v-11q94 0 118 375v94l11 71l-11 23q11 21 11 47v12q0 12 -11 12q23 53 23 153
v199q0 82 12 259h-12l12 23q-12 23 -12 35h12l-12 24v23q0 297 -47 635l12 23q-71 259 -106 259q-31 35 -176 70q-681 -37 -681 -176q-130 -223 -130 -681zM636 1586l47 -12l47 12q281 -44 281 -177q17 0 47 -152q0 -12 -11 -12q11 -106 23 -106q0 -11 -12 -11l12 -59v-106
q0 -39 12 -59l-12 -70v-223q0 -27 12 -47q-12 -21 -12 -47v-118q0 -11 12 -11l-12 -24v-47q0 -12 12 -12l-12 -23q12 -23 12 -35h-12l12 -24l-12 -47l12 -23l-12 -71q12 -84 12 -94q-12 -23 -12 -35h12l-12 -24v-117q-28 -223 -117 -223q-196 -40 -200 -47l-23 12h-59
q-317 33 -317 117q-21 59 -47 247q11 22 11 35l-11 23q0 12 11 12l-11 59v12q0 118 -12 293l12 47q-12 46 -12 94h12l-12 24v152q0 27 12 47q-12 21 -12 47v94l12 71l-12 23l12 24q0 23 -12 23q23 257 70 458q167 103 271 130zM377 1104q0 -12 12 -12q-12 -117 -12 -176
v-117q0 -12 12 -12q-12 -35 -24 -35l12 -59v-24l-12 -23h12q0 -12 -12 -12l12 -117v-82q0 -12 12 -12l-12 -24v-11l12 -24q-12 0 -12 -12h12l-12 -23v-59q0 -12 12 -12l-12 -23v-82q0 -12 12 -12q-12 -23 -12 -35q12 -36 24 -36l-12 -23q0 -388 106 -388q79 -35 129 -35h35
q294 23 294 70l47 294l-12 24v399q0 12 12 12l-12 23q0 12 12 12l-12 23v12q0 12 12 12l-12 23v12l12 24h-12l12 23v59l-12 23h12l-12 24q0 12 12 12l-12 23v12l12 70q0 12 -12 12l12 47q-12 265 -36 388l12 23q-18 212 -199 212q-83 11 -141 11q-200 -49 -200 -141
q-35 -115 -47 -258h-12z" />
    <glyph glyph-name="p" unicode="p" horiz-adv-x="1420" 
d="M518 1774l24 -12l70 12v-12q12 0 12 12q217 -12 317 -12h82q182 0 223 -129l47 -153l-11 -59q23 -36 47 -270h-12q15 -15 23 -164l-11 -47l11 -24q0 -420 -258 -481h-106l-23 -12v12q-46 -24 -129 -24h-47q-12 0 -12 -12l-24 12h-70q-12 0 -12 -12l-23 12
q-106 -14 -106 -47h12q-16 -82 -36 -82q21 -59 47 -282q0 -12 -11 -12q11 -138 11 -200v-82q0 -123 -11 -376l-118 -11h-211l-141 -12l-12 23v36q0 35 12 35l-12 59v364q4 82 23 82q-11 65 -11 94q0 107 11 388h12l-12 23v117q0 12 12 12l-12 24l12 23l-12 24q12 63 12 105
v36q0 11 -12 11q12 23 12 36l-12 105q12 23 12 36h-12q12 22 12 35l-12 59h12l-12 23l12 71q-12 110 -12 211v12q0 11 12 11l-12 24v341q12 0 12 -12q388 39 423 59zM283 1691q0 -11 12 -11l-12 -59v-94h12q23 0 23 23v12l-11 82h11q-17 47 -35 47zM624 1691
q-24 -72 -24 -94h12l-12 -23v-59q0 -12 12 -12l-12 -23v-94q4 -24 24 -24h12q0 36 11 36l-11 23v129q0 12 11 12l-23 71h12l-12 23v12l12 23h-12zM518 1656q-12 -104 -12 -129q12 -23 12 -35h-12q12 -15 12 -83h12q0 53 12 71l-12 70v12l12 24q-12 0 -12 11h12l-12 24v12
l12 23h-24zM788 1539q0 -12 12 -12l-23 -247q11 0 35 47l-12 59v35q0 21 35 106l-11 59h11q-11 17 -11 70q-21 0 -36 -117zM154 1562v-340q23 0 23 23l-11 117q11 0 11 12h-11l11 24l-11 23l11 24l-11 58l11 59h-23zM1058 1539q-11 -106 -23 -106q35 -51 35 -94h12
q0 23 23 23v12q-30 0 -35 59h12l-12 23l12 24q-12 19 -12 59h-12zM706 1527l-12 -47q12 -104 12 -129q-12 -23 -12 -36q12 0 12 -11q-12 0 -12 -12q12 0 12 -12q-12 0 -12 -11q23 11 36 11l-12 24v35q0 12 12 12l-12 23v35q0 12 12 12q-12 8 -12 106h-12zM894 1527v-153h12
v153h-12zM412 1456l-11 -23v-141q0 -143 23 -270h12v70q0 12 -12 12q0 12 12 12q-12 198 -24 258h12l-12 24v35l12 23h-12zM964 1327q0 -12 12 -12l-12 -23v-59h12l12 82v12h-24zM166 1210q0 -67 -12 -82h12l11 23v59h-11zM1152 1010q-9 -25 -23 -129h23v106l12 23h-12z
M953 834v-94h11q0 67 12 82zM1129 834v-94h12v94h-12zM1023 669q0 -101 -35 -152h35v58q4 24 24 24l-12 70h-12zM283 611v-83h12v83h-12zM271 517v-12q0 -12 12 -12q0 -12 -12 -12l12 -82v-58l-12 -24h12l-23 -82q11 -81 11 -129v-12q0 -59 -11 -176q11 0 11 -12
q-11 0 -11 -12q11 0 11 -12h-11l11 -23q0 -35 -11 -35l11 -59v-24q0 -39 -11 -58l11 -71v-70q0 -27 -11 -47q11 -23 11 -35l24 11q12 217 12 317v94l-12 59h12l-12 24v223q0 12 12 12l-12 23v294h-24zM213 505l-24 -35q24 -4 24 -24v-82h23v117q0 24 -23 24zM365 305v-246
h12q0 47 12 47l-12 23v24l12 58q-12 0 -12 12h12q-12 15 -12 82h-12zM365 -24v-129h24q-12 0 -12 129h-12zM166 -165v-23l11 -59h12v82h-23zM166 -282v-47q0 -12 11 -12l-11 -23v-24l11 -23q-11 0 -11 -12h23v12q0 11 -12 11l12 24v94h-23zM448 -364l11 -24l-23 -35v-200h23
q8 94 24 94l-12 59v117zM166 -505v-106l-12 -23h23v11q0 15 12 118h-23z" />
    <glyph glyph-name="q" unicode="q" horiz-adv-x="1655" 
d="M953 1868q0 -12 11 -12q0 12 12 12v-12q12 0 12 12q317 0 435 -247q35 -86 58 -352v-71l-11 -59h11l-11 -23q11 -21 11 -47h-11l11 -24q-11 -20 -11 -47h11l-11 -23q0 -223 11 -482q-8 -152 -35 -152q12 -23 12 -36q0 -99 -24 -188h12l-59 -434v-24l12 -23
q-23 -4 -23 -24q110 -211 188 -211l-12 -24v-11q3 -24 23 -24q0 -32 -152 -211q0 -71 -94 -71q-46 89 -235 282l-235 -47l-24 12q-123 -24 -152 -24q-529 0 -529 200l-47 117q0 13 12 36q-28 418 -47 517q11 22 11 35q-23 283 -23 364v270l12 82q-12 0 -12 12h12l-12 24v82
q0 12 12 12l-12 23q0 214 106 493q69 172 364 271l23 -12q59 0 59 23l24 -11h11q12 0 12 11l24 -11zM894 1762q-35 -132 -35 -212v-35h12q0 94 23 94l-12 24q35 82 35 117zM988 1703q-59 -285 -59 -693q-12 -23 -12 -35q36 0 36 -35h-12q0 -12 12 -12l-12 -82v-59
q0 -27 12 -47q-12 -21 -12 -47v-12q23 0 35 129q0 12 -12 12l12 71l-12 70q12 46 12 94h-12q12 21 24 106q-12 20 -12 47h12q0 12 -12 12l12 58v153q0 51 23 94l-11 23l11 24l-11 23q11 23 11 36h-11l11 23v47h-23zM1152 1515v-47q0 -26 -11 -47q11 -20 11 -47
q-6 -129 -23 -129q12 -105 35 -176l-12 -59h12l-12 -23q12 -21 12 -47h-12q12 -23 12 -36h12v94q0 12 -12 12l24 106q-12 20 -12 47q0 12 12 12q-12 70 -24 70l12 24v246h-24zM777 1503l-24 -164q12 -47 12 -82h12l11 141v105h-11zM1329 1433v-35q0 -12 11 -12
q-11 -26 -23 -153q12 -102 12 -176v-23h-12v23h-12v-23q12 0 12 -12h-12l12 -24q0 -11 -12 -11l12 -24v-117h12v141l23 11v-58h12v82h-12l12 23v24q0 12 -12 12l12 23q0 12 -12 12l12 23l-12 106q0 12 12 35l-12 71v82h-23zM436 1304v-129h12v129h-12zM1258 1280
q0 -47 -12 -47l12 -23v-129h12v199h-12zM1070 1222q-47 -529 -47 -658v-317q0 -27 -12 -47q12 -23 12 -36h-12l12 -23l-12 -71q0 -11 12 -11l-12 -24v-12h24v165l12 141h-12q23 72 23 94q0 12 -11 12l23 187h-12l24 118h-12l12 23v130q0 76 12 235h-12l12 23v24q0 11 -12 11
l12 24v12h-24zM424 1151v-82h12q0 35 12 82h-24zM1246 1069v-47l-11 -71q0 -11 11 -11l-11 -59q0 -27 11 -47q-11 -21 -11 -47v-12q26 0 35 129l-12 24q12 20 12 47h-12l12 23v71h-24zM412 1010v-117h12q0 47 12 47q-12 17 -12 70h-12zM330 893q-21 -121 -35 -259l12 -23
q-12 -21 -12 -47q0 -12 12 -12l-12 -59v-364q0 -12 12 -12l-12 -23v-118h23v188q0 12 12 12q0 12 -12 12q24 193 24 540h12l-12 24v141h-12zM1235 740q0 -27 -12 -47h12l-12 -24q0 -35 12 -35l-12 -59v-105l-12 -118h12q-12 -22 -12 -35q12 -23 12 -35q-12 0 -12 -12h24
q11 138 11 200v82q0 12 12 12q0 11 -12 11l12 83l-12 82h-11zM1152 681l12 -23q-12 -23 -12 -36h24v36q0 11 -12 11l12 24v12q-24 -4 -24 -24zM542 611v-118q0 -12 -12 -12l12 -23v-94l-12 -23l23 -12q0 59 12 59l-12 23v94q0 26 12 47q-12 19 -12 59h-11zM1152 599v-129h12
q0 58 12 58l-12 24q0 12 12 12q-12 22 -12 35h-12zM1152 458v-82h12v82h-12zM1340 282q0 -188 -23 -188l12 -24l-12 -23h12q-9 -21 -24 -165q36 0 47 353v12l12 23zM518 129l-12 -82h12l-12 -24q12 -61 12 -117q24 0 24 23v83l-12 117h-12zM448 59q-17 -213 -24 -247
q12 -30 12 -188h12l11 70l-11 83l11 70h-11q0 12 11 12l-11 59q0 11 11 11l-11 24q0 9 11 70v36h-11zM518 -129v-317h12l12 82v211q0 24 -24 24zM1293 -153q0 -12 12 -12l-12 -47v-47h12q0 15 12 118zM777 -200q0 -53 -12 -70q12 -21 12 -47q-12 0 -12 -12h23v129h-11z
M1000 -270q0 -59 -12 -176h23v117q0 12 12 12l-12 23l12 24h-23zM436 -388v-129h12v129h-12z" />
    <glyph glyph-name="r" unicode="r" horiz-adv-x="1832" 
d="M612 1868h259q587 -41 587 -165q61 -63 188 -106q82 -81 82 -176q0 -12 12 -35h-12l12 -24v-58q0 -91 12 -165q0 -399 -282 -399q-97 0 -247 -35v-12q137 -145 188 -294q76 -32 200 -423q11 0 11 -11l-11 -24q23 0 35 -387q-12 -122 -12 -141l24 -141q-329 -12 -435 -36
q-62 12 -118 12h-11l11 82v12q0 12 -11 12l11 23v59q0 24 -23 24v-12q-129 8 -129 59q0 928 -71 928q0 19 -70 35l-82 -24v24h-71q-23 -4 -23 -24v-434q0 -12 11 -12q-11 -59 -23 -59l12 -23v-12q0 -27 -12 -47l12 -24l-12 -58q0 -25 12 -130q-12 -102 -12 -117
q0 -26 23 -211q-11 0 -11 -12l23 -12l-12 -23v-59h-481q0 35 -12 35q12 31 35 153l-59 -12h-11l-59 12v35l12 59h-12q0 12 12 12q-12 176 -12 258v141l12 117h-12l12 24v59q0 11 -12 11l12 24v12l-12 58h12l-12 24l12 23q-12 0 -12 12h12l-12 24v70q0 76 23 164h-11
q0 12 11 12q-11 65 -11 94l11 24q-9 47 -23 47l35 223l-23 94q11 20 11 47v12q0 26 -11 47l11 23l-11 71l11 23h-11q0 12 11 12q0 12 -11 35l11 82q-11 23 -11 35h11l-11 24q23 43 23 94v235l-12 82q293 24 529 24zM624 1738v-11h176q0 23 -23 23h-71zM459 1550v-129
q0 -12 -11 -12l35 -187l-12 -24q12 -23 12 -35q-24 -4 -24 -24v-23h71v82l12 82h-12l12 24v70l-12 24q82 58 82 82l259 23q100 -11 152 -11v23q-66 35 -235 71v-12l-23 12zM1540 1562v-12l35 -235v-152q0 -54 -82 -212q-100 -70 -399 -117v-24q0 -35 117 -35q114 12 212 47
l23 -12h24q199 0 199 318v35q0 12 12 12l-12 23v47q0 285 -105 317h-24zM600 1269h12l-12 -24v-12q0 -101 36 -129q62 32 293 59q141 30 141 199q-29 71 -117 71v-12q-23 12 -36 12q-305 0 -305 -82q0 -36 -12 -82zM260 1292v-200q3 -23 23 -23v82q0 12 -12 12l12 23l-12 59
l12 70q-23 -3 -23 -23zM1481 1304q0 -27 -11 -47q11 -21 11 -47l-35 -153h24q23 76 23 106v141h-12zM577 799q0 -24 82 -36q0 28 -82 36zM471 552q12 -351 24 -388l-12 -70q8 -223 23 -223q-23 -46 -23 -130q0 -23 12 -23l-12 -82v-223q0 -12 -47 -47l-141 23q0 -28 -35 -94
q178 -35 270 -35q4 23 23 23q0 12 -11 12l11 82v24q0 42 -11 106q11 20 11 47h-11q11 22 11 35l-11 23q11 23 11 35t-11 12l11 59v188l12 70q-12 23 -12 36q0 11 12 11q-12 106 -23 106l11 24v117q0 12 -11 12l11 23q0 25 -11 130q0 117 164 117v12q-106 11 -106 23z
M283 258q0 -109 -12 -199q0 -12 12 -12l-12 -59v-47l12 -82h12v200q0 11 12 11l-12 24v23l12 83h-12l12 23q-12 23 -12 35h-12zM1023 235v-24q0 -11 12 -11l-12 -24v-35l12 -71l-12 -23q12 -56 12 -165h12q0 94 11 94l-11 24v47q0 48 11 94q-11 45 -11 94h-24zM1446 211v-23
q24 -227 24 -306h11q0 -11 -11 -11q11 -118 11 -177v-70q0 -26 12 -47q-12 -35 -23 -35l11 -24q-23 -58 -35 -58q-247 0 -247 -36q0 -42 -11 -105q47 -10 47 -24q140 24 211 47q21 -12 47 -12q59 9 59 36v117q0 26 12 47q0 12 -12 12l12 47q-9 199 -24 199l12 24
q0 117 -82 341l-12 58h-12zM1211 -118v-235h12q12 130 23 130l-11 23v82h-24zM1329 -259l-12 -58q0 -12 12 -12l-12 -24q0 -11 12 -11q-12 -23 -12 -36v-11h12q7 94 23 94q-12 19 -12 58h-11z" />
    <glyph glyph-name="s" unicode="s" horiz-adv-x="1409" 
d="M906 1856l23 -12h129q186 0 247 -435h12l-12 -23q6 -141 24 -141q-15 -91 -36 -117v-165q0 -47 -164 -70l-24 11h-82q-12 0 -12 -11l-23 11l-24 -11q0 11 -11 11q0 -11 -12 -11v223q0 12 -12 12q0 11 12 11q-19 215 -70 223q-187 12 -224 12q0 -12 -11 -12v12
q-97 0 -153 -293q0 -152 376 -329q352 -206 352 -364l24 -83l-12 -58q12 -84 12 -94q-12 -23 -12 -36q12 0 12 -11h-12q12 -130 23 -130l-11 -23v-106q0 -12 11 -12l-11 -23v-200q0 -129 -83 -282q-23 -27 -152 -82h-282l-71 -12q-20 12 -47 12q-28 0 -176 -12
q-156 0 -282 118q-35 77 -35 106v328l-12 71q0 12 12 12l-12 47q0 270 35 270q208 0 282 23l36 -70q-12 -21 -12 -47v-12q0 -12 12 -12l-12 -23q0 -24 12 -24l-12 -82v-106q0 -70 70 -105v11q12 0 12 -11l176 35v-12q148 0 177 200v23q0 266 -188 341q-55 40 -212 106
q0 -12 -12 -12q-3 43 -141 94q-235 111 -235 341q-11 0 -11 188v23l-12 24h12l-12 23v24q0 105 23 199h-11q72 311 235 423q100 63 434 82q165 0 165 24zM142 1186q16 -196 24 -211q-12 -21 -12 -47v-24l12 -23h-12q0 -242 341 -364q3 -21 235 -118q177 -133 187 -164
q32 -63 47 -176q0 -12 -11 -12l11 -71q-38 -258 -129 -258q-59 -32 -329 -71q-164 45 -164 177v35q0 26 12 47q0 12 -12 12l12 47q-5 176 -24 176q-12 0 -12 -12l-58 12h-71q0 -35 -12 -35q12 -65 12 -94q0 -100 12 -447q-12 0 -12 -11h12q0 -12 -12 -12q0 -166 129 -188
q0 -18 282 -59q118 12 118 24l188 -24q246 44 246 352h-11l11 24v12q0 11 -11 11l11 24v223l-11 59h11l-11 23q0 12 11 12l-11 59v12q0 11 11 11l-11 24v59q0 26 11 47q0 239 -211 340q-3 9 -117 82l-24 -11q0 49 -211 129q-188 160 -188 247v82l11 59h-11q45 270 270 270
h117l24 -12v12q199 0 199 -200q12 -3 12 -117v-83l-12 -58q39 -24 71 -24h47q12 0 12 12l23 -12h35l47 35q-32 670 -105 670q0 87 -165 106h-282q-388 0 -493 -306q-24 -46 -59 -282z" />
    <glyph glyph-name="t" unicode="t" horiz-adv-x="1409" 
d="M1235 1821q94 0 94 -106v-12q0 -12 -12 -12q0 -11 12 -11l-12 -118v-47q0 -26 12 -47q-12 -20 -12 -47v-94h-94q-12 0 -12 -12q-12 0 -12 12l-117 -12h-247v-234q0 -12 -11 -12l11 -24v-117q0 -27 -11 -47q11 -20 11 -59q0 -45 -23 -247q12 -22 12 -35h-12l12 -23v-423
q0 -12 -12 -12q23 -71 23 -211q0 -13 -11 -36q11 -20 11 -47h-11l47 -317q-12 -22 -12 -35q23 -38 23 -70v-71q-58 0 -58 -23q-23 11 -36 11q-10 0 -94 -11q-22 11 -35 11v-11q-141 31 -141 82l12 23v47q0 12 -12 12l12 24v152q0 27 -12 47q12 21 12 47q0 12 -12 12l12 23
v12l-12 59h12l-12 23l12 24l-12 23l12 24l-12 59l12 23q0 13 -12 35l24 177q0 11 -12 11l12 59v106l-12 23h12l-12 24q0 7 12 152l-12 24l12 23q-15 211 -24 271h12l-12 23v411l-70 -12q-146 12 -153 12q0 -12 -12 -12v12l-23 -12q-27 0 -47 12q-23 -12 -36 -12v12l-23 -12
h-24q-60 0 -70 36l12 117h-12l12 24v11q0 12 -12 12l35 129l-12 71v47q0 17 36 35q141 -23 223 -23h94l59 11v-11l23 11q197 -11 306 -11h11q12 0 12 11l24 -11q117 0 234 23v-12l24 12h106v24zM718 1691h-12l-117 12v-12l-24 12q-70 0 -211 -12l-141 12q-21 -12 -47 -12
q-12 -246 -24 -246q12 -21 12 -47h94q12 0 12 11q11 0 11 -11q24 0 24 11l117 -11h71q12 0 12 -12l23 12h24l58 -12v-258q0 -59 -23 -59q35 -125 35 -634v-130q0 -42 12 -105q-8 -24 -24 -212q12 -23 12 -35q-12 0 -12 -12q12 0 12 -12h-12l12 -23v-71q0 -11 -12 -11l12 -24
v-47q0 -12 -12 -12l24 -105q-9 -47 -24 -47l12 -24v-47q0 -11 -12 -11q0 -153 106 -153h12q20 0 70 23q-23 218 -47 705q12 67 12 188v59l-12 23h12l-12 24q0 12 12 12l-12 58q0 187 24 400q0 11 -12 11l12 59v212q0 270 35 270h235q137 0 188 23q0 -12 12 -12v71l11 117
q-11 0 -11 12h11l-11 24l11 23l-11 59q-188 -24 -517 -24z" />
    <glyph glyph-name="u" unicode="u" horiz-adv-x="1420" 
d="M1211 1785h59q32 0 47 -117v-153q0 -39 12 -59l-12 -70v-24q0 -100 12 -211l-12 -47q12 -100 12 -153q-12 -250 -12 -293q12 0 12 -12q-12 0 -12 -12h12l-12 -23q6 -130 23 -130l-11 -23v-117q0 -12 -12 -12l12 -24q-12 -20 -12 -47h12l-12 -23v-106l12 -70l-24 -118
l12 -23l-12 -24q0 -12 12 -12q0 -297 -129 -552q-24 -3 -24 -23l-23 12q-78 -36 -106 -36h-106q-12 0 -12 12q-22 -12 -35 -12q-23 12 -35 12v-12q-21 12 -117 24q-12 0 -12 -12q-259 17 -259 35q-11 0 -11 -11q-365 51 -365 352q0 174 -11 329q11 23 11 35q-23 51 -23 188
v364q0 27 12 47q0 12 -12 12l12 82v12q0 299 23 364q-12 21 -12 47l12 59l-12 23q12 23 12 36h-12q9 20 24 140q0 12 -12 12q24 341 59 341q23 0 23 12l59 -12h153q63 0 70 -71l-11 -23v-329q0 -26 -12 -47q0 -12 12 -12q0 -40 -71 -575h12q0 -12 -12 -12q24 -106 24 -153
h-12q12 -23 12 -35q-12 -62 -12 -70q23 -43 23 -94q0 -30 -11 -94l11 -71q-11 0 -11 -12h11l-11 -23v-24q0 -26 11 -47l-11 -23l23 -94q-12 0 -12 -12q15 0 47 -82q31 -103 259 -200q199 40 199 200q9 38 47 317h-11l11 24v11q0 137 12 435h-12l12 23v24l-12 23h12l-12 24
q12 138 12 200q-12 83 -12 94q12 0 12 11h-12l12 24q0 12 -12 12q0 12 12 35q0 39 -12 199q0 48 12 212q-12 113 -12 223q174 35 247 35zM1199 1715l24 -118h12v24q-12 65 -12 94h-24zM342 1691q0 -11 -12 -11l12 -71h12l11 59q0 23 -23 23zM1141 1527q0 -24 -12 -24
l12 -117v-82h23v70q0 12 -12 12q0 12 12 12q-12 42 -12 129h-11zM1223 1186v-70h12l-12 -24v-11h12q0 23 11 23q-11 47 -11 82h-12zM1223 1057v-141h12v141h-12zM201 916v-82h12v82h-12zM177 446q12 -46 12 -82h12v94zM1047 329q0 -7 -12 -153h12q-24 -43 -24 -94v-12
q4 -23 24 -23q23 141 23 153h-12q0 11 12 11q-12 41 -12 118h-11zM154 -306q23 -68 35 -152h24v12q-36 115 -36 152zM495 -329v-12l82 -59q23 0 23 24q-97 47 -105 47z" />
    <glyph glyph-name="v" unicode="v" horiz-adv-x="1667" 
d="M1293 1832h106v-11l-12 -118q40 0 59 -12q82 12 82 24q20 -12 59 -12v-59l-82 -364h12l-71 -223h12q-33 -93 -47 -294q-27 -130 -82 -317h11q-11 -66 -58 -188h11q-152 -545 -270 -881q-45 -94 -59 -94h-140q-49 0 -130 12q-17 -12 -70 -12q-28 83 -35 83l11 23v12
q-23 28 -23 47h-47q-12 0 -12 -12q-49 0 -70 223q-12 97 -71 294q-82 338 -82 411q0 57 -106 540h12q-33 234 -59 247l12 24q-56 247 -94 528v35q111 36 352 83h12q24 -83 24 -118h35q12 0 12 12q58 -15 58 -35l24 11h59v-11q12 -282 58 -282l-11 -24q0 -113 23 -211h-12
q24 -39 24 -71q0 -26 -12 -47q35 -141 71 -423q16 0 47 153q0 12 -12 12l164 916v12h-12l12 23v59zM483 1633l70 -341l-11 -23q35 -404 152 -964q0 -35 12 -82h-12q23 -54 47 -59l12 83v105l-94 447h12l-24 94l12 23q-12 118 -35 118l12 23l-12 24l12 23q-33 214 -47 235v12
h11q-35 109 -35 246v24zM1329 1421h11q-15 -59 -35 -59q12 -22 12 -35q-35 -35 -71 -423q-14 0 -35 -117h12l-106 -482q12 0 12 -11q-9 0 -35 -36l11 -23q-47 -153 -117 -529q-12 0 -12 -12q12 -22 12 -35q-12 0 -12 -12q12 0 12 -11q-24 0 -35 -94q11 0 11 -12
q-55 -70 -93 -70v11q-39 -23 -59 -23h-129q-12 -21 -12 -47v-24h59q31 0 70 -23q21 12 47 12v-12q141 0 141 117q82 223 129 482q71 188 118 388h-12q70 238 94 434q23 0 23 24h-11l11 23v47q0 59 106 517l35 235q-129 0 -129 -82zM1082 787v-24h12q35 159 35 177
q-24 0 -47 -153zM495 35l11 -59v-35h24q-24 72 -24 94h-11zM600 -247l24 -117h12v11q-12 64 -12 106h-24z" />
    <glyph glyph-name="w" unicode="w" horiz-adv-x="2243" 
d="M659 1774q71 0 71 -47q23 -27 94 -341h-12l12 -24q0 -145 58 -340l12 -59q-12 -20 -12 -47q40 0 118 -423v-47h23q0 44 24 71h-12l12 23v12l-12 59q35 0 94 387l129 576q78 -86 153 -446h-12q94 -205 141 -435h12q23 314 70 599l-11 23q0 12 11 12q0 12 -11 12
q47 178 47 200q-12 0 -12 11q12 0 12 12h-12l12 24v117q0 24 35 24l470 35v-12q-71 -108 -130 -646q0 -12 12 -12q-70 -545 -70 -646v-35l-12 -23h12l-12 -24v-211q0 -12 -12 -12q12 -23 12 -35l-12 -24l12 -23q-20 -165 -35 -165l11 -23v-24q-46 -611 -94 -611h-187
q-84 0 -130 -23q-47 273 -152 634q-12 0 -12 12t12 12q-24 61 -36 246h-23q-106 -578 -106 -599h-12l12 -23q-23 -77 -23 -106v-94q0 -12 11 -12q-11 -20 -11 -47q-12 0 -12 12l-24 -12q-147 12 -176 12q-26 0 -47 -12q-63 12 -105 12h-247q-141 0 -141 82q0 62 -71 364
q-23 294 -70 412h12q-36 147 -59 399h-12l12 23v12q0 12 -12 12q0 12 12 12l-176 1057q11 0 11 12h-11l11 23q-23 39 -23 71v11l141 12h164q12 0 12 12q106 -12 106 -24l82 24l24 -12q70 9 70 24zM354 1586v-83q35 -187 35 -223h23v12q-17 287 -58 294zM248 1527
q0 -35 -12 -35l59 -212h23q-21 188 -47 247h-23zM600 1445v-36h12l-12 -23l24 -117h12v82q0 10 -24 94h-12zM1881 1245v-106h11q0 43 12 106h-12q24 59 36 59q-12 23 -12 35q12 23 12 35h-12q-35 0 -35 -129zM213 1233q0 -37 47 -282h11v47l-35 235h-23zM459 1104
q0 -12 -11 -12q0 -17 58 -211h12v12q-27 188 -59 188l12 23h-12zM342 1057q12 -23 12 -35q0 -141 23 -212l-12 -23q24 -39 24 -71v-35h23l-11 24v117q0 74 -36 235h-23zM683 1034q23 -146 82 -388h12v23l-59 294h12q-24 48 -24 71h-23zM730 493v-12q11 -187 35 -187
q0 -12 -12 -12q0 -82 59 -129v23q-48 317 -82 317zM1622 435v-83h12v83h-12zM1176 423q-47 -225 -47 -259q18 0 47 130h-12q12 21 24 117v12h-12zM1141 -212q0 -70 -24 -70q12 -23 12 -35h12l11 82v23h-11zM565 -223l12 -59v-94q4 -24 23 -24q0 36 12 36q-23 43 -23 94v47
h-24zM1681 -341v-12q0 -11 12 -11l-12 -24q12 -20 12 -47q23 0 23 24v11l-11 83q-24 -4 -24 -24zM1000 -364l-12 -118h23v118h-11zM600 -423v-47l12 -82h12v59q-12 0 -12 11h12q-12 20 -12 59h-12z" />
    <glyph glyph-name="x" unicode="x" horiz-adv-x="1620" 
d="M518 1809q135 -443 317 -822h24q105 291 246 622q47 87 83 200h23q250 12 294 12v-12q-51 -118 -118 -364q-164 -336 -352 -893q0 -41 188 -458q231 -447 247 -447q32 -117 70 -117l-12 -23v-12l12 -24q-23 -3 -23 -23q-277 -12 -412 -12h-82q-94 150 -117 247
q-72 225 -129 282q-71 -244 -200 -552q-83 0 -341 -12q223 468 388 1010q-118 262 -270 670q-71 75 -130 328q-58 68 -141 318l-23 11q0 83 458 83v-12zM1235 1633q0 -15 -106 -259h12q21 25 105 212v47h-11zM941 987l23 -12q24 75 24 94q-24 0 -47 -82zM1246 -165
q24 -86 83 -176h-12q23 -38 23 -59h24q-15 98 -118 235zM1364 -411v-24q12 -70 35 -70h12v12l-24 35l12 23zM1258 -435v-11q16 -71 35 -71v35q-23 29 -23 47h-12z" />
    <glyph glyph-name="y" unicode="y" horiz-adv-x="1350" 
d="M1270 1785v-35q0 -35 -12 -35l12 -71q-24 -299 -24 -352v-23l-11 -59h11l-11 -24q0 -35 11 -35l-23 -176h12l-24 -59q27 -176 35 -176l-11 -59v-47l11 -59h-11l11 -23q0 -101 -11 -211q0 -23 23 -83q-12 -20 -12 -47q0 -11 12 -11q0 -12 -12 -12l12 -82v-259
q0 -12 12 -12l-12 -23v-282q0 -12 -12 -12q0 -11 12 -11q0 -22 -23 -94v-36q-31 -47 -118 -105l-23 11q-110 -70 -306 -70q-293 59 -364 59q-23 -12 -35 -12q-282 59 -282 82q0 15 -47 118q23 181 23 493q0 49 224 70q0 19 105 24v-129q0 -12 12 -12l-35 -259q12 -64 12 -93
h35q235 -24 235 -36q117 35 117 106q9 0 24 47q0 12 -12 12q35 123 35 235q0 188 -23 188l12 23v35q0 83 -24 83q24 38 24 70v47q0 29 -47 35q-34 0 -165 -35v24h-23q-27 0 -47 -12q-12 0 -12 12q-13 0 -35 -12q-365 0 -365 141q-11 73 -11 164v59l11 23h-11l11 24v188
l12 141q-12 0 -12 12q12 0 12 11h-12q12 29 24 118h-12l12 23v141q0 185 23 247q-11 20 -11 47v12q121 23 340 35l12 -59q-12 -220 -23 -270q0 -12 11 -12l-11 -59v-82q0 -11 -12 -11l12 -24l-12 -23h12l-12 -24v-94l-12 -59h12q-24 -38 -24 -70v-12q0 -188 212 -188h82
l24 12q0 -12 11 -12q29 0 71 353q-24 93 -24 223q3 117 24 117q-12 23 -12 35q0 102 -23 247q70 35 446 35zM260 1680q0 -141 -24 -141l12 -24q0 -67 -24 -141h12l-12 -23q0 -13 12 -36q-9 -129 -23 -129q11 -22 11 -35q0 -41 -11 -247h11l-11 -23v-106q0 -282 47 -282
q24 -12 129 -23q192 11 376 11q12 0 12 12l23 -12h117v-211q0 -12 -11 -12l11 -23l-11 -106q11 0 11 -12h-11l11 -23v-118q0 -11 12 -11q-8 -15 -23 -165q11 -23 11 -35q-53 -294 -129 -294q-102 0 -258 -11q-171 0 -235 94q23 144 23 434h-11l-71 -23l-59 11l-23 -35v-223
q0 -26 12 -47q-12 -21 -12 -47v-117l12 -59h-12q0 -58 399 -141h94q74 0 177 -12q145 7 211 59q95 0 117 82q-11 23 -11 35l23 12l-12 24l12 58h-12l12 24v105q0 12 12 12l-12 24v35l12 23h-12l12 24q0 56 -12 117l12 71h-12q0 12 12 12l-12 58v365q0 11 -12 11l12 24v35
q0 12 -12 12q0 11 12 11q-12 60 -23 353l11 23l-11 71v35l11 24q-11 0 -11 11q11 0 11 12q-11 0 -11 12q11 0 11 12h-11l11 23v94l12 59q-12 0 -12 12q12 0 12 11h-12l12 24q0 12 -12 35q24 155 24 305v71l-59 -12q0 12 -12 12q0 -12 -11 -12q0 12 -12 12v-12l-24 12h-129
v-47q0 -39 -12 -59l12 -70q0 -48 -12 -212q12 -20 12 -47q-12 0 -12 -11q12 0 12 -12h-12q12 -94 24 -94l-12 -59v-47q0 -376 -141 -376q-14 0 -117 12l-59 -12q-200 29 -200 200q-11 61 -11 141v117q0 12 -12 12l12 24q0 128 35 505q-12 47 -47 47q-129 -36 -129 -47z" />
    <glyph glyph-name="z" unicode="z" horiz-adv-x="1949" 
d="M1587 1844q12 0 12 -12l59 12l58 -12v12q12 0 12 -12l59 12h23q17 0 47 -141l-12 -23v-94l12 -24q-12 0 -12 -12h24l-12 -47l12 -70q-494 -599 -646 -822l-611 -811v-12q153 36 1104 83h12q19 -12 59 -12h23v-141l12 -71q-12 -22 -12 -35q12 -138 12 -199q-12 0 -12 -12
l-105 12q-444 -36 -647 -36q-35 0 -152 24q-100 -12 -165 -12v12q-11 0 -11 -12q-65 12 -94 12q-483 -47 -541 -47q-23 12 -35 12q0 11 12 11q-12 235 -12 353v35q0 59 211 223q15 46 83 71q247 244 387 446q314 449 494 857l-24 12h-47q-58 0 -211 -35q-21 12 -47 12h-47
q-12 0 -12 -12l-23 12q-12 0 -12 -12l-24 12h-270q-42 0 -106 -12l-23 12l-24 -12q-54 23 -117 23q-75 -23 -94 -23q-12 23 -12 35v364q17 0 35 36q12 0 12 -12q189 23 223 23q12 0 12 -11l47 11q48 0 212 -11q434 23 434 47l24 -12l58 12q83 -8 83 -24q188 19 188 35
l23 -11q35 0 94 23zM1481 1738h-152q-24 -3 -24 -23q-26 9 -153 23v-11q-22 11 -35 11q-94 -4 -94 -23l-23 12q-12 0 -12 -12l-24 12q-199 -12 -199 -36q-59 12 -59 24l-59 -12h-23q-62 0 -106 12q-62 -12 -117 -12h-47q-12 0 -12 12q-153 -23 -153 -106v-176q24 0 24 -24
q70 12 70 24q51 -24 188 -24l24 12v-12l23 12h35q12 0 12 -12l24 12l23 -12q23 12 35 12v-12l24 12h12q11 0 11 -12l24 12h94q12 0 12 -12l23 12h70q12 0 12 -12q169 47 270 47q9 0 71 -11h70l12 -59q-66 -81 -153 -294l-235 -387q-170 -304 -375 -494q0 -55 -247 -270
q-188 -163 -188 -211q-12 -62 -12 -71h12l-12 -23v-141l-12 -59h36q39 0 58 12l71 -12h47q223 35 223 47l24 -12q10 0 282 -11l46 11q75 -23 153 -35q23 12 35 12q0 -12 12 -12v12q12 0 12 -12q89 12 117 24v-12q106 12 106 23l24 -11q64 0 164 11q12 0 12 -11l200 23v24
q0 55 11 117l-11 70q11 0 11 12h-11l11 24v23q0 24 -94 35q-226 -23 -340 -23v12q-39 -24 -59 -24q0 12 -12 12q0 -12 -12 -12v12l-23 -12h-94q-12 0 -12 12q-23 -12 -35 -12q-24 0 -24 12l-82 -12h-82l-23 -12q0 12 -12 12q0 -12 -12 -12v12q-320 -59 -376 -59l-23 59
q17 0 176 200q298 380 387 528l459 588q270 303 270 329q35 43 35 82v47q0 12 -12 12l12 23v118q0 11 -12 11l12 24l-35 47l-24 -12h-23q-11 0 -94 24q-60 -36 -118 -36z" />
    <glyph glyph-name="quoteleft" unicode="&#x2018;" 
d="M412 980q-120 0 -246 106q-106 85 -106 270v164q0 195 200 529h211l117 12l12 -24v-70q-40 0 -82 -212q268 0 294 -364v-23h-12l12 -24q0 -113 -165 -281q-169 -83 -235 -83zM342 1109q0 21 35 59q-47 -23 -82 -23q0 -17 35 -36h12zM295 1920v11q-10 0 -71 -93v-24
q21 3 71 106z" />
    <glyph glyph-name="quoteright" unicode="&#x2019;" 
d="M460 2061q120 0 246 -106q106 -85 106 -270v-164q0 -195 -200 -529h-211l-117 -12l-12 24v70q40 0 82 212q-268 0 -294 364v23h12l-12 24q0 113 165 281q169 83 235 83zM530 1932q0 -21 -35 -59q47 23 82 23q0 17 -35 36h-12zM577 1121v-11q10 0 71 93v24
q-21 -3 -71 -106z" />
    <glyph glyph-name="quotedblleft" unicode="&#x201c;" horiz-adv-x="1945" 
d="M412 980q-120 0 -246 106q-106 85 -106 270v164q0 195 200 529h211l117 12l12 -24v-70q-40 0 -82 -212q268 0 294 -364v-23h-12l12 -24q0 -113 -165 -281q-169 -83 -235 -83zM342 1109q0 21 35 59q-47 -23 -82 -23q0 -17 35 -36h12zM295 1920v11q-10 0 -71 -93v-24
q21 3 71 106zM1465 980q-120 0 -246 106q-106 85 -106 270v164q0 195 200 529h211l117 12l12 -24v-70q-40 0 -82 -212q268 0 294 -364v-23h-12l12 -24q0 -113 -165 -281q-169 -83 -235 -83zM1395 1109q0 21 35 59q-47 -23 -82 -23q0 -17 35 -36h12zM1348 1920v11
q-10 0 -71 -93v-24q21 3 71 106z" />
    <glyph glyph-name="quotedblright" unicode="&#x201d;" horiz-adv-x="1945" 
d="M460 2061q120 0 246 -106q106 -85 106 -270v-164q0 -195 -200 -529h-211l-117 -12l-12 24v70q40 0 82 212q-268 0 -294 364v23h12l-12 24q0 113 165 281q169 83 235 83zM530 1932q0 -21 -35 -59q47 23 82 23q0 17 -35 36h-12zM577 1121v-11q10 0 71 93v24
q-21 -3 -71 -106zM1513 2061q120 0 246 -106q106 -85 106 -270v-164q0 -195 -200 -529h-211l-117 -12l-12 24v70q40 0 82 212q-268 0 -294 364v23h12l-12 24q0 113 165 281q169 83 235 83zM1583 1932q0 -21 -35 -59q47 23 82 23q0 17 -35 36h-12zM1630 1121v-11q10 0 71 93
v24q-21 -3 -71 -106z" />
    <glyph glyph-name="Euro" unicode="&#x20ac;" horiz-adv-x="1631" 
d="M964 1820l82 -11h165q154 0 340 -270v-12q-93 -152 -199 -270q-70 176 -259 176v12q-269 0 -411 -400l36 -105h164l23 12v-12q106 12 106 23q21 -11 47 -11q-12 -98 -94 -306l-59 12h-129q-11 0 -11 12q-39 -24 -59 -24v-164h35q12 0 12 12q38 -24 70 -24q0 12 12 12v-12
q43 24 94 24h94q-93 -307 -118 -317q-223 -8 -223 -59q0 -13 12 -35l-12 -59q12 -23 12 -35t-12 -12q0 -223 106 -223q133 -118 258 -118q119 0 270 177l24 11h35q0 -33 35 -58q32 0 130 -212q11 0 11 -12q-20 0 -188 -187q-84 -50 -293 -83h-212q-278 29 -493 259
q-47 117 -47 199v24q0 39 12 59l-12 70v200q0 11 12 11q-12 59 -23 59l-24 -12l-23 12q-118 -23 -153 -23q-21 10 -47 281q47 45 247 71l11 117v12h-47l-58 -12v12l-24 -12h-35l-59 12q12 65 12 94q0 19 -12 141q39 33 247 70v188q0 27 12 47q-12 21 -12 47q0 12 12 12
l-12 23q0 164 199 400q325 178 423 187z" />
  </font>
</defs>
</svg>
